<svg width="154" height="31" viewBox="0 0 154 31" fill="none" xmlns="http://www.w3.org/2000/svg">
<g clip-path="url(#clip0_131_297)">
<path d="M55.0646 6.85133C54.6883 6.84419 54.3598 6.91541 54.0792 7.06102C53.8023 7.20347 53.577 7.45604 53.4072 7.81533C53.2337 8.17462 53.1229 8.66921 53.0715 9.30582L52.5842 15.2611C52.5694 15.4565 52.5548 15.638 52.5399 15.8086C52.5286 15.983 52.5174 16.1322 52.5101 16.257C52.4992 16.3816 52.4955 16.4669 52.4955 16.52C52.4955 17.1709 52.6248 17.6655 52.8797 17.9998C53.138 18.3343 53.5254 18.5051 54.0459 18.5051C54.618 18.5123 55.061 18.316 55.3712 17.9252C55.6813 17.5342 55.8768 16.9079 55.9508 16.0504L56.261 12.5713L58.7857 17.0749C58.9296 17.3274 59.092 17.5622 59.2765 17.779C59.4611 17.9929 59.653 18.167 59.8523 18.2988C60.0552 18.4341 60.251 18.5015 60.4466 18.5051C60.6422 18.5016 60.8414 18.4412 61.0449 18.3238C61.2479 18.2064 61.4435 18.0461 61.6279 17.8469C61.8126 17.6477 61.9711 17.4273 62.1078 17.1817L64.6772 12.5713L64.965 16.0505C65.0313 16.8905 65.2196 17.5093 65.5371 17.9112C65.851 18.3093 66.2938 18.5087 66.8696 18.5052C67.3903 18.5052 67.7777 18.3343 68.036 17.9963C68.2909 17.662 68.4198 17.1602 68.4198 16.4989C68.4198 16.4455 68.4165 16.3497 68.4052 16.2144C68.398 16.0789 68.3867 15.9261 68.3755 15.7515C68.3609 15.5778 68.3461 15.4068 68.3315 15.2393L67.8664 9.3059C67.8257 8.7903 67.752 8.37388 67.6449 8.05053C67.5378 7.72274 67.3974 7.47732 67.2239 7.30317C67.0506 7.12901 66.8509 7.00796 66.6221 6.94388C66.3897 6.88 66.1351 6.84762 65.851 6.85145C65.5481 6.84431 65.2525 6.91553 64.9649 7.06114C64.6772 7.20739 64.426 7.46351 64.2119 7.83329L60.5574 14.1936L56.8586 8.06798C56.667 7.75181 56.4712 7.50235 56.2719 7.32465C56.0724 7.14646 55.8697 7.02209 55.6662 6.95466C55.4672 6.88343 55.2642 6.8477 55.0647 6.85149L55.0646 6.85133ZM72.7396 13.5959H78.9858C79.3769 13.5993 79.698 13.5676 79.9562 13.4961C80.2108 13.4285 80.399 13.2934 80.5246 13.0942C80.6501 12.8986 80.7129 12.6106 80.7129 12.2301C80.7092 11.4724 80.5688 10.7608 80.2921 10.0954C80.0189 9.43019 79.6278 8.84672 79.122 8.33827C78.6162 7.82962 78.0144 7.43125 77.3205 7.14319C76.6267 6.85493 75.8591 6.70553 75.0208 6.70173C74.1792 6.70553 73.4041 6.85493 72.6914 7.15369C71.9826 7.44866 71.3628 7.86531 70.8312 8.40235C70.3032 8.93603 69.8937 9.56885 69.5985 10.2946C69.3066 11.0205 69.1555 11.8141 69.1515 12.6782C69.1555 13.5428 69.3103 14.3357 69.6131 15.0581C69.9157 15.78 70.3402 16.4095 70.8864 16.9434C71.4327 17.477 72.0713 17.893 72.806 18.1849C73.5371 18.4801 74.3344 18.6294 75.1982 18.6332C75.9584 18.6294 76.6598 18.5475 77.2984 18.3914C77.9372 18.2349 78.4908 18.0248 78.9595 17.7617C79.432 17.5018 79.7936 17.2068 80.0523 16.8864C80.3104 16.5626 80.4434 16.2352 80.4473 15.9012C80.4473 15.6448 80.388 15.4173 80.2738 15.2217C80.1591 15.0261 79.9969 14.8767 79.7863 14.7664C79.5798 14.6556 79.3324 14.5989 79.0518 14.5989C78.8525 14.6063 78.6308 14.663 78.3874 14.7697C78.1437 14.8767 77.8703 15.0009 77.5714 15.1433C77.2725 15.2856 76.9402 15.4104 76.575 15.5167C76.2133 15.6272 75.8106 15.6804 75.3752 15.6875C74.8731 15.684 74.4303 15.5986 74.0573 15.424C73.6807 15.2536 73.3821 15.0116 73.1564 14.6988C72.9316 14.3857 72.7912 14.019 72.7395 13.5959L72.7396 13.5959ZM72.7176 11.4188C72.8024 11.0062 72.9502 10.6507 73.1676 10.3553C73.3858 10.0565 73.6514 9.83231 73.9725 9.67197C74.2937 9.51567 74.6477 9.43394 75.043 9.43394C75.4381 9.43729 75.8037 9.51946 76.1355 9.68647C76.4676 9.85371 76.7412 10.0846 76.9553 10.3836C77.1654 10.679 77.291 11.024 77.3242 11.4188H72.7176L72.7176 11.4188ZM93.7067 12.6782C93.7027 11.6535 93.5556 10.7679 93.2676 10.0139C92.9796 9.26338 92.5845 8.64418 92.079 8.15357C91.5768 7.66233 90.9973 7.29945 90.3437 7.05743C89.6907 6.81939 88.9963 6.70173 88.2581 6.70173C87.5975 6.70553 87.0105 6.8049 86.5012 6.99694C85.9922 7.18942 85.5415 7.44554 85.1504 7.76506C84.7625 8.08235 84.4154 8.4307 84.1167 8.81522C84.1204 8.0788 84.2198 7.47029 84.4154 6.98644C84.6149 6.50634 84.8844 6.11851 85.2277 5.81974C85.5711 5.52434 85.9622 5.28986 86.4053 5.11211C86.8481 4.93392 87.3205 4.78097 87.8155 4.65281C88.4689 4.47866 89.0889 4.31496 89.6793 4.16556C90.2737 4.0164 90.8274 3.85251 91.3407 3.67452C91.8537 3.49657 92.3187 3.28329 92.7323 3.03101C93.0717 2.80347 93.3227 2.55406 93.4777 2.28005C93.6329 2.01008 93.7103 1.73232 93.7066 1.45116C93.7027 1.19864 93.6404 0.960602 93.5108 0.743328C93.3815 0.522941 93.2122 0.344954 92.9941 0.209887C92.78 0.0745804 92.5365 0.00311417 92.267 0C92.1009 0 91.9239 0.0212003 91.7429 0.0676733C91.5583 0.110114 91.3699 0.181341 91.1817 0.2778C90.7832 0.462454 90.3436 0.622794 89.8675 0.750515C89.3915 0.882268 88.8895 1.02113 88.3618 1.16318C87.8301 1.30564 87.2877 1.49053 86.7264 1.7183C86.1655 1.9456 85.5969 2.24839 85.0246 2.62532C84.3491 3.08798 83.8028 3.61431 83.3857 4.20493C82.9723 4.7989 82.6586 5.43906 82.4408 6.12928C82.2267 6.81947 82.0826 7.5414 82.0052 8.29591C81.931 9.04998 81.8979 9.82169 81.9018 10.6079V12.6783C81.9055 13.6456 82.0569 14.4995 82.3483 15.2393C82.644 15.9795 83.0574 16.602 83.5886 17.1035C84.1204 17.6086 84.744 17.9894 85.4599 18.2452C86.1801 18.5016 86.9626 18.6333 87.8155 18.6333C88.6902 18.6295 89.4836 18.4837 90.2035 18.1919C90.9236 17.9002 91.5437 17.4912 92.0641 16.961C92.5882 16.4314 92.9905 15.8015 93.2746 15.076C93.5589 14.3498 93.7028 13.5533 93.7067 12.6782L93.7067 12.6782ZM87.8155 9.77514C88.2101 9.77869 88.55 9.85711 88.838 10.0103C89.1293 10.1635 89.3693 10.3695 89.5575 10.6359C89.7459 10.903 89.8863 11.2053 89.9822 11.5505C90.0747 11.8919 90.119 12.2548 90.119 12.6353C90.115 13.2224 90.0154 13.7344 89.8235 14.172C89.6277 14.6097 89.3583 14.9477 89.0153 15.1896C88.668 15.4314 88.2692 15.556 87.8155 15.5598C87.3465 15.556 86.9406 15.4278 86.5935 15.1753C86.2466 14.9265 85.9732 14.5813 85.7813 14.1436C85.5895 13.7062 85.4933 13.2011 85.4901 12.6353C85.4933 11.963 85.5969 11.415 85.7959 10.9921C85.9989 10.572 86.2725 10.263 86.6231 10.0672C86.9698 9.86781 87.3685 9.77179 87.8155 9.77514ZM98.1555 13.5959H104.401C104.792 13.5993 105.114 13.5676 105.372 13.4961C105.626 13.4285 105.815 13.2934 105.94 13.0942C106.066 12.8986 106.129 12.6106 106.129 12.2301C106.125 11.4724 105.985 10.7608 105.708 10.0954C105.435 9.43019 105.043 8.84672 104.538 8.33827C104.032 7.82962 103.43 7.43125 102.736 7.14319C102.042 6.85493 101.274 6.70553 100.436 6.70173C99.5948 6.70553 98.8198 6.85493 98.1075 7.15369C97.3987 7.44866 96.7784 7.86531 96.2469 8.40235C95.7191 8.93603 95.3092 9.56885 95.0137 10.2946C94.7225 11.0205 94.5712 11.8141 94.5675 12.6782C94.5712 13.5428 94.7259 14.3357 95.0288 15.0581C95.3316 15.78 95.7557 16.4095 96.3023 16.9434C96.8482 17.477 97.4872 17.893 98.2217 18.1849C98.9528 18.4801 99.7501 18.6294 100.614 18.6332C101.374 18.6294 102.076 18.5475 102.714 18.3914C103.352 18.2349 103.906 18.0248 104.375 17.7617C104.848 17.5018 105.209 17.2068 105.468 16.8864C105.726 16.5626 105.859 16.2352 105.863 15.9012C105.863 15.6448 105.804 15.4173 105.69 15.2217C105.575 15.0261 105.412 14.8767 105.202 14.7664C104.995 14.6556 104.748 14.5989 104.468 14.5989C104.268 14.6063 104.047 14.663 103.803 14.7697C103.559 14.8767 103.286 15.0009 102.987 15.1433C102.688 15.2856 102.356 15.4104 101.991 15.5167C101.629 15.6272 101.226 15.6804 100.791 15.6875C100.289 15.684 99.846 15.5986 99.4734 15.424C99.0969 15.2536 98.7978 15.0116 98.5723 14.6988C98.3471 14.3857 98.2069 14.019 98.1555 13.5959L98.1555 13.5959ZM98.133 11.4188C98.218 11.0062 98.3656 10.6507 98.5839 10.3553C98.801 10.0565 99.067 9.83231 99.3882 9.67197C99.7095 9.51567 100.064 9.43394 100.459 9.43394C100.854 9.43729 101.219 9.51946 101.551 9.68647C101.884 9.85371 102.157 10.0846 102.371 10.3836C102.581 10.679 102.707 11.024 102.74 11.4188H98.133L98.133 11.4188ZM114.143 9.8821V16.0504C114.143 16.9005 114.287 17.523 114.575 17.9178C114.863 18.3128 115.295 18.5087 115.87 18.5051C116.468 18.5015 116.908 18.2952 117.196 17.879C117.48 17.4627 117.624 16.8545 117.62 16.0504V9.45538C117.617 8.60485 117.454 7.98254 117.129 7.58752C116.808 7.19273 116.35 6.9969 115.76 7.00069H109.824C109.252 7.00069 108.805 7.20343 108.48 7.61251C108.156 8.01779 107.993 8.63364 107.986 9.45538V14.0226C107.979 14.3891 107.919 14.7128 107.805 15.0009C107.69 15.2856 107.561 15.5486 107.41 15.7904C107.259 16.0325 107.13 16.2674 107.015 16.4987C106.901 16.73 106.842 16.9719 106.834 17.2242C106.834 17.477 106.893 17.7081 107.011 17.9218C107.126 18.135 107.288 18.3054 107.502 18.434C107.713 18.5617 107.964 18.6294 108.252 18.6332C108.625 18.6294 108.964 18.5334 109.274 18.3485C109.581 18.1636 109.854 17.9075 110.094 17.5837C110.33 17.2595 110.533 16.8904 110.695 16.4737C110.861 16.0609 110.984 15.6198 111.068 15.1576C111.153 14.695 111.197 14.2328 111.197 13.7667V9.88206H114.143L114.143 9.8821ZM121.825 13.5959H128.071C128.462 13.5993 128.783 13.5676 129.042 13.4961C129.297 13.4285 129.485 13.2934 129.61 13.0942C129.736 12.8986 129.799 12.6106 129.799 12.2301C129.795 11.4724 129.655 10.7608 129.378 10.0954C129.105 9.43019 128.713 8.84672 128.208 8.33827C127.702 7.82962 127.1 7.43125 126.406 7.14319C125.713 6.85493 124.948 6.70553 124.107 6.70173C123.265 6.70553 122.49 6.85493 121.777 7.15369C121.068 7.44866 120.448 7.86531 119.917 8.40235C119.389 8.93603 118.979 9.56885 118.684 10.2946C118.392 11.0205 118.241 11.8141 118.237 12.6782C118.241 13.5428 118.396 14.3357 118.699 15.0581C119.002 15.78 119.426 16.4095 119.972 16.9434C120.519 17.477 121.157 17.893 121.892 18.1849C122.623 18.4801 123.42 18.6294 124.284 18.6332C125.048 18.6294 125.746 18.5475 126.384 18.3914C127.023 18.2349 127.576 18.0248 128.045 17.7617C128.518 17.5018 128.879 17.2068 129.138 16.8864C129.4 16.5626 129.529 16.2352 129.533 15.9012C129.533 15.6448 129.474 15.4173 129.359 15.2217C129.245 15.0261 129.083 14.8767 128.872 14.7664C128.665 14.6556 128.418 14.5989 128.137 14.5989C127.938 14.6063 127.716 14.663 127.473 14.7697C127.229 14.8767 126.956 15.0009 126.657 15.1433C126.358 15.2856 126.026 15.4104 125.66 15.5167C125.299 15.6272 124.896 15.6804 124.461 15.6875C123.959 15.684 123.52 15.5986 123.143 15.424C122.767 15.2536 122.467 15.0116 122.242 14.6988C122.017 14.3857 121.881 14.019 121.825 13.5959L121.825 13.5959ZM121.803 11.4188C121.888 11.0062 122.036 10.6507 122.254 10.3553C122.471 10.0565 122.737 9.83231 123.058 9.67197C123.379 9.51567 123.733 9.43394 124.128 9.43394C124.524 9.43729 124.889 9.51946 125.221 9.68647C125.554 9.85371 125.827 10.0846 126.041 10.3836C126.251 10.679 126.377 11.024 126.41 11.4188H121.803L121.803 11.4188ZM121.582 1.85688C121.283 1.86068 121.013 1.9317 120.773 2.07012C120.537 2.20902 120.345 2.39771 120.205 2.63215C120.065 2.86727 119.991 3.12675 119.987 3.41481C119.991 3.70331 120.065 3.96278 120.205 4.19387C120.345 4.42164 120.537 4.60654 120.773 4.74184C121.013 4.87715 121.283 4.94818 121.582 4.95173C121.881 4.94818 122.15 4.87715 122.394 4.74184C122.637 4.60654 122.833 4.42164 122.977 4.19387C123.121 3.96274 123.195 3.70331 123.199 3.41481C123.195 3.12675 123.121 2.86727 122.977 2.63215C122.833 2.39771 122.637 2.20902 122.394 2.07012C122.15 1.93166 121.881 1.86068 121.582 1.85688ZM126.365 1.85688C126.067 1.86068 125.797 1.9317 125.557 2.07012C125.321 2.20902 125.129 2.39771 124.988 2.63215C124.848 2.86727 124.775 3.12675 124.771 3.41481C124.775 3.70331 124.848 3.96278 124.988 4.19387C125.129 4.42164 125.321 4.60654 125.557 4.74184C125.797 4.87715 126.067 4.94818 126.365 4.95173C126.665 4.94818 126.934 4.87715 127.178 4.74184C127.421 4.60654 127.617 4.42164 127.761 4.19387C127.905 3.96274 127.979 3.70331 127.982 3.41481C127.979 3.12675 127.905 2.86727 127.761 2.63215C127.617 2.39771 127.421 2.20902 127.178 2.07012C126.934 1.93166 126.665 1.86068 126.365 1.85688ZM138.522 12.1447C138.798 12.0626 139.072 11.9454 139.345 11.7888C139.614 11.6327 139.865 11.44 140.091 11.216C140.319 10.9921 140.5 10.7359 140.637 10.451C140.774 10.1668 140.844 9.85707 140.847 9.51946C140.844 8.92194 140.7 8.42375 140.415 8.02853C140.131 7.63395 139.722 7.33878 139.19 7.14315C138.659 6.94731 138.023 6.85129 137.281 6.85129H132.741C132.31 6.85129 131.94 6.94017 131.626 7.12127C131.312 7.30305 131.069 7.57725 130.899 7.93986C130.726 8.3027 130.641 8.758 130.637 9.30574V15.9438C130.637 16.5092 130.704 16.9719 130.836 17.3274C130.969 17.6835 131.169 17.943 131.434 18.11C131.7 18.2739 132.032 18.3554 132.431 18.3554H137.126C137.695 18.3554 138.238 18.2844 138.755 18.1422C139.271 18.0035 139.729 17.7896 140.135 17.5053C140.537 17.2242 140.855 16.8721 141.087 16.4454C141.32 16.0222 141.441 15.5272 141.445 14.962C141.441 14.5954 141.375 14.268 141.246 13.98C141.117 13.6922 140.943 13.443 140.729 13.2259C140.515 13.0127 140.279 12.8311 140.021 12.6815C139.762 12.5324 139.504 12.4147 139.241 12.3258C138.983 12.2408 138.743 12.1767 138.522 12.1447H138.522ZM134.114 9.39106H136.241C136.599 9.39441 136.872 9.44444 137.056 9.54401C137.241 9.64383 137.366 9.76464 137.433 9.90709C137.499 10.0491 137.529 10.1916 137.525 10.3305C137.525 10.5191 137.47 10.6897 137.359 10.8498C137.252 11.0062 137.093 11.1303 136.887 11.2268C136.68 11.3226 136.425 11.3726 136.13 11.3764H134.114V9.39106ZM134.114 13.3825H136.285C136.599 13.3825 136.887 13.4182 137.145 13.4928C137.407 13.5676 137.614 13.6812 137.773 13.834C137.927 13.9869 138.009 14.1866 138.012 14.4284C138.012 14.8265 137.865 15.1291 137.573 15.3423C137.281 15.556 136.85 15.6628 136.285 15.6663H134.114V13.3825H134.114ZM148.109 6.70173C147.245 6.70553 146.455 6.85133 145.735 7.14319C145.019 7.4348 144.392 7.84411 143.864 8.37732C143.336 8.90764 142.926 9.5407 142.638 10.2662C142.346 10.9957 142.199 11.7993 142.195 12.6782C142.199 13.5569 142.346 14.361 142.638 15.0867C142.926 15.8122 143.336 16.4383 143.864 16.9684C144.392 17.4985 145.019 17.9076 145.735 18.1956C146.455 18.4837 147.245 18.6295 148.109 18.6333C148.976 18.6295 149.77 18.4837 150.486 18.1956C151.206 17.9076 151.826 17.4985 152.35 16.9684C152.874 16.4383 153.28 15.8122 153.565 15.0867C153.853 14.361 153.996 13.5569 154 12.6782C153.996 11.7993 153.853 10.9957 153.565 10.2662C153.28 9.5407 152.874 8.90764 152.35 8.37732C151.826 7.84407 151.206 7.4348 150.486 7.14319C149.77 6.85133 148.976 6.70553 148.109 6.70173ZM148.109 9.77518C148.54 9.77873 148.932 9.89979 149.279 10.1385C149.622 10.3729 149.899 10.7074 150.102 11.1342C150.305 11.5613 150.408 12.0626 150.412 12.6354C150.408 13.2224 150.309 13.7344 150.109 14.1721C149.914 14.6098 149.64 14.9478 149.297 15.1896C148.95 15.4315 148.555 15.5561 148.109 15.5599C147.662 15.5561 147.264 15.4386 146.917 15.2001C146.566 14.9655 146.293 14.631 146.089 14.1969C145.89 13.7632 145.787 13.251 145.783 12.6566C145.787 12.07 145.894 11.5613 146.101 11.1304C146.308 10.7005 146.584 10.3696 146.935 10.1347C147.286 9.89643 147.677 9.77877 148.109 9.77522L148.109 9.77518Z" fill="#522F56"/>
<path d="M54.0365 27.4795V23.7737C54.0349 23.6573 54.0013 23.5647 53.9325 23.497C53.8641 23.4291 53.7679 23.3956 53.6426 23.3938C53.574 23.3938 53.51 23.4088 53.4489 23.438C53.3879 23.4675 53.3376 23.5117 53.2992 23.5702C53.2612 23.6292 53.2412 23.7027 53.2394 23.7908V27.753C53.2394 27.8253 53.2567 27.8897 53.2901 27.9501C53.3223 28.0104 53.3678 28.0575 53.4292 28.094C53.4885 28.1308 53.5603 28.1487 53.6426 28.15H56.9206V29.1999C56.9206 29.3118 56.9479 29.4002 57.0063 29.4634C57.0642 29.5284 57.1541 29.5603 57.2776 29.5619C57.3923 29.5603 57.4792 29.5268 57.5374 29.4603C57.5967 29.3942 57.6257 29.3076 57.6257 29.1999V27.8412C57.6243 27.7588 57.6088 27.6913 57.577 27.6382C57.545 27.5837 57.5022 27.5442 57.4487 27.5181C57.397 27.4926 57.3407 27.4794 57.2777 27.4794H57.0217V23.7908C57.02 23.6591 56.9818 23.5586 56.91 23.4925C56.8386 23.4264 56.7438 23.3938 56.6277 23.3938C56.4994 23.3956 56.4004 23.4338 56.3302 23.5057C56.2617 23.5794 56.2267 23.6734 56.2246 23.7908V27.4794H54.0366L54.0365 27.4795ZM61.2526 23.3938C60.9917 23.3956 60.7521 23.4394 60.5306 23.5278C60.3093 23.616 60.1112 23.7366 59.9372 23.8911C59.7616 24.0457 59.6121 24.2223 59.49 24.4237C59.3665 24.6236 59.2731 24.8384 59.2075 25.0659C59.1434 25.2928 59.11 25.5232 59.11 25.7586C59.11 26.1221 59.1603 26.4528 59.2596 26.7515C59.359 27.0501 59.5036 27.3071 59.6943 27.5235C59.8869 27.7398 60.1202 27.9075 60.3962 28.025C60.6724 28.1426 60.9884 28.2016 61.3441 28.2029C61.538 28.2016 61.7287 28.1823 61.9148 28.1426C62.1025 28.1033 62.2783 28.05 62.4429 27.9836C62.6076 27.9164 62.7527 27.8412 62.8794 27.7574C63.0045 27.6737 63.1037 27.5868 63.1753 27.496C63.2469 27.4058 63.284 27.3175 63.2851 27.2324C63.2851 27.1722 63.2747 27.119 63.2515 27.069C63.2304 27.0205 63.198 26.9806 63.1572 26.9513C63.1143 26.9223 63.0627 26.9076 63.0015 26.906C62.948 26.9076 62.8871 26.9295 62.8226 26.9703C62.7573 27.0134 62.6824 27.0648 62.5986 27.1266C62.5131 27.1881 62.4139 27.2499 62.3008 27.3117C62.188 27.3736 62.0566 27.4252 61.9072 27.4678C61.7577 27.5089 61.5853 27.531 61.39 27.5323C61.0999 27.531 60.8448 27.4736 60.6221 27.3602C60.4008 27.2456 60.227 27.0824 60.1003 26.8689C59.9738 26.6575 59.9096 26.4014 59.9068 26.103H62.9466C63.0977 26.103 63.2075 26.0704 63.2793 26.0057C63.3507 25.9414 63.3859 25.8472 63.3859 25.7235C63.3843 25.4104 63.3343 25.113 63.2318 24.8352C63.1299 24.5559 62.9848 24.3074 62.7969 24.0928C62.6076 23.8764 62.3835 23.7074 62.1224 23.5821C61.8615 23.4586 61.5716 23.397 61.2526 23.3938ZM59.9068 25.5118C59.9068 25.3032 59.94 25.1117 60.0044 24.9352C60.0684 24.7604 60.1612 24.6072 60.282 24.4764C60.4027 24.3471 60.5475 24.2455 60.7185 24.1734C60.8879 24.1013 61.0786 24.066 61.289 24.0644C61.4982 24.066 61.6829 24.1028 61.8447 24.1778C62.005 24.2513 62.1408 24.3545 62.252 24.4867C62.3621 24.6189 62.4462 24.7723 62.5038 24.9471C62.5604 25.1222 62.5894 25.3104 62.5894 25.5118H59.9069H59.9068ZM66.1155 25.2914V23.8089C66.1141 23.7203 66.0958 23.6455 66.0576 23.5834C66.0212 23.522 65.9723 23.4749 65.9111 23.4425C65.8499 23.4101 65.7844 23.3938 65.7125 23.3938C65.5969 23.3956 65.5021 23.4322 65.4303 23.5057C65.3587 23.5807 65.3202 23.6837 65.3189 23.8174V27.7972C65.3189 27.9294 65.3508 28.0308 65.4139 28.0987C65.4776 28.1677 65.5707 28.203 65.6945 28.203C65.8196 28.2016 65.9215 28.1663 65.998 28.094C66.0742 28.0239 66.1141 27.9221 66.1155 27.7883V25.9617H68.295V27.7798C68.295 27.8575 68.3068 27.9283 68.333 27.9911C68.3573 28.0545 68.4002 28.1061 68.4597 28.1445C68.5176 28.1824 68.5971 28.2016 68.6974 28.203C68.7692 28.203 68.8334 28.1882 68.893 28.159C68.9525 28.1295 69 28.0852 69.0366 28.0265C69.0714 27.9674 69.0899 27.8943 69.0911 27.8059V23.8089C69.0899 23.7203 69.0714 23.6455 69.0366 23.5834C69 23.522 68.9511 23.4749 68.89 23.4425C68.8304 23.4101 68.7632 23.3938 68.6886 23.3938C68.6152 23.3938 68.5482 23.4115 68.4886 23.4441C68.4289 23.478 68.3835 23.5247 68.3482 23.5865C68.313 23.6484 68.2963 23.7234 68.295 23.8089V25.2914H66.1155L66.1155 25.2914ZM71.2165 23.4468C71.0974 23.4483 71.0043 23.4792 70.9403 23.5394C70.8747 23.6 70.8426 23.6837 70.8411 23.7909C70.8411 23.8483 70.8562 23.9014 70.884 23.9496C70.9128 23.9999 70.9526 24.0398 71.0029 24.0704C71.0532 24.0999 71.1127 24.1162 71.1799 24.1176H72.1505V27.8059C72.1533 27.9384 72.1904 28.0382 72.2604 28.1034C72.3322 28.169 72.4237 28.203 72.5349 28.203C72.6723 28.2016 72.7761 28.1663 72.8433 28.0987C72.9119 28.0328 72.9469 27.9399 72.9469 27.8236V24.1176H73.9175C73.9847 24.1162 74.0445 24.0999 74.0945 24.0704C74.1448 24.0399 74.1847 23.9999 74.2139 23.9496C74.2412 23.9014 74.2565 23.8483 74.2565 23.7909C74.2546 23.6837 74.2229 23.6 74.1576 23.5394C74.0931 23.4792 74 23.4483 73.8809 23.4468H71.2165H71.2165ZM78.1305 24.0644C78.3138 24.066 78.4753 24.0999 78.6143 24.1673C78.7547 24.2341 78.8736 24.3263 78.9744 24.4427C79.0738 24.5586 79.1562 24.6912 79.2188 24.8397C79.2825 24.99 79.3286 25.1456 79.3592 25.3104C79.3896 25.4752 79.4033 25.6395 79.4033 25.803C79.4033 25.9702 79.3866 26.1371 79.3532 26.3018C79.3177 26.4664 79.2661 26.6223 79.1956 26.7705C79.1254 26.9177 79.0369 27.0485 78.9303 27.1633C78.8233 27.2767 78.6979 27.3665 78.5533 27.4324C78.4067 27.4967 78.2421 27.531 78.057 27.5324C77.8313 27.531 77.633 27.4842 77.4666 27.3928C77.2986 27.3004 77.1601 27.1736 77.0486 27.0135C76.9388 26.8514 76.8563 26.6662 76.8012 26.4561C76.7477 26.2471 76.7203 26.0234 76.7203 25.7853C76.7203 25.6237 76.7356 25.4604 76.7678 25.2985C76.7998 25.1351 76.8506 24.9795 76.9187 24.8325C76.9875 24.6852 77.0774 24.5543 77.1875 24.4382C77.2973 24.3234 77.4301 24.2321 77.5874 24.1662C77.7431 24.0999 77.9243 24.066 78.1305 24.0644H78.1305ZM76.3911 23.3939C76.2794 23.397 76.1879 23.435 76.1163 23.5118C76.046 23.5881 76.0092 23.6866 76.006 23.809V29.6678C76.0078 29.7515 76.0262 29.8267 76.0627 29.8946C76.0979 29.9621 76.1464 30.0163 76.2076 30.0563C76.2674 30.0958 76.3343 30.1163 76.4094 30.1179C76.4944 30.1164 76.5662 30.0958 76.626 30.0563C76.6837 30.015 76.728 29.9591 76.7569 29.8899C76.7875 29.8191 76.803 29.7401 76.803 29.6501V27.5676H76.8214C76.9859 27.7797 77.1784 27.9383 77.3964 28.0441C77.6161 28.15 77.8603 28.2029 78.1305 28.2029C78.3944 28.2015 78.6356 28.1589 78.8525 28.0734C79.0689 27.9885 79.2614 27.8691 79.4292 27.7163C79.5954 27.5647 79.7374 27.3852 79.8521 27.1806C79.9666 26.9765 80.0518 26.7557 80.1114 26.5163C80.1709 26.2763 80.1999 26.0264 80.1999 25.7674C80.1999 25.5191 80.1709 25.2793 80.113 25.0471C80.0548 24.8146 79.9696 24.5982 79.8535 24.3984C79.7374 24.1985 79.5939 24.0235 79.4199 23.8732C79.2476 23.7234 79.0462 23.6057 78.8159 23.522C78.5853 23.438 78.3261 23.3956 78.039 23.3938C77.7412 23.3938 77.4912 23.4483 77.2896 23.5559C77.0869 23.6631 76.9312 23.8221 76.8214 24.0293H76.803V23.7908C76.7998 23.666 76.7618 23.5691 76.6851 23.4999C76.6105 23.4309 76.5127 23.3956 76.3911 23.3938V23.3939ZM85.0447 23.3939C84.9015 23.3925 84.7868 23.4233 84.6997 23.4881C84.6125 23.5529 84.5604 23.6603 84.5407 23.809L84.147 27.471C84.1377 27.5572 84.129 27.6327 84.1227 27.6956C84.115 27.7604 84.1104 27.8001 84.1104 27.8146C84.1104 27.9283 84.1413 28.0192 84.202 28.0913C84.2632 28.1634 84.3577 28.2001 84.486 28.203C84.6235 28.2016 84.727 28.1561 84.7986 28.0676C84.8705 27.981 84.9119 27.8604 84.9256 27.709L85.2092 24.8234L86.3995 27.4089C86.4836 27.594 86.5569 27.7441 86.621 27.862C86.685 27.9792 86.7494 28.0647 86.8131 28.1205C86.8789 28.1766 86.9538 28.203 87.0406 28.203C87.1245 28.203 87.1994 28.1766 87.2666 28.1205C87.3323 28.0647 87.3993 27.9792 87.4651 27.862C87.5323 27.7441 87.6067 27.594 87.6908 27.4089L88.8813 24.8234L89.174 27.8059C89.1802 27.866 89.1969 27.9267 89.2261 27.987C89.2562 28.0473 89.3021 28.0987 89.3633 28.1397C89.4242 28.1795 89.5037 28.2016 89.6045 28.203C89.7249 28.2016 89.8165 28.1648 89.8823 28.094C89.9463 28.025 89.9801 27.9314 89.9801 27.8146C89.9801 27.8046 89.9782 27.7854 89.9752 27.7561C89.9725 27.7267 89.9678 27.6914 89.9632 27.653C89.9599 27.615 89.9558 27.5782 89.9525 27.5413L89.5498 23.809C89.5297 23.6603 89.478 23.5529 89.3907 23.4881C89.3038 23.4233 89.1895 23.3925 89.0459 23.3939C88.9407 23.3925 88.8552 23.4102 88.7866 23.4484C88.7178 23.4852 88.6569 23.5482 88.6001 23.6366C88.5438 23.7266 88.4828 23.8483 88.4143 24.0028L87.0407 27.0381L85.6674 24.0028C85.5986 23.8483 85.5374 23.7266 85.4841 23.6366C85.4292 23.5482 85.3683 23.4852 85.3008 23.4484C85.2355 23.4102 85.15 23.3926 85.0448 23.3939H85.0447ZM93.8355 23.3939C93.5748 23.3957 93.3352 23.4394 93.1135 23.5279C92.8924 23.6161 92.6943 23.7366 92.5198 23.8912C92.3447 24.0457 92.1952 24.2223 92.0731 24.4237C91.9491 24.6236 91.8562 24.8384 91.7909 25.0659C91.7265 25.2928 91.6931 25.5232 91.6931 25.7586C91.6931 26.1221 91.7434 26.4528 91.8425 26.7516C91.9417 27.0501 92.0868 27.3071 92.2775 27.5235C92.4698 27.7399 92.7031 27.9076 92.9798 28.025C93.256 28.1427 93.5716 28.2016 93.927 28.203C94.1207 28.2016 94.3119 28.1824 94.4977 28.1427C94.6858 28.1034 94.8612 28.05 95.0258 27.9837C95.1907 27.9165 95.3358 27.8412 95.4625 27.7575C95.5876 27.6737 95.6868 27.5869 95.7584 27.496C95.8298 27.4058 95.8666 27.3176 95.8685 27.2325C95.8685 27.1722 95.8576 27.1191 95.8346 27.069C95.8133 27.0206 95.7816 26.9806 95.7401 26.9514C95.6975 26.9223 95.6458 26.9076 95.5844 26.9061C95.5311 26.9076 95.4702 26.9295 95.4057 26.9704C95.3404 27.0135 95.2653 27.0648 95.1817 27.1267C95.0962 27.1881 94.9965 27.2499 94.8839 27.3118C94.7711 27.3736 94.6397 27.4252 94.4903 27.4678C94.3406 27.5089 94.1682 27.531 93.9729 27.5324C93.683 27.531 93.4279 27.4736 93.2052 27.3602C92.9839 27.2457 92.8101 27.0824 92.6834 26.869C92.5567 26.6575 92.4925 26.4014 92.4895 26.1031H95.5297C95.6805 26.1031 95.7906 26.0705 95.8622 26.0057C95.9341 25.9414 95.969 25.8472 95.969 25.7235C95.9674 25.4105 95.9171 25.113 95.8149 24.8353C95.7123 24.5559 95.5677 24.3074 95.38 24.0928C95.1907 23.8765 94.9664 23.7074 94.7055 23.5821C94.4446 23.4586 94.1545 23.397 93.8354 23.3939H93.8355ZM92.4895 25.5118C92.4895 25.3033 92.5231 25.1117 92.587 24.9353C92.6515 24.7604 92.7441 24.6072 92.8651 24.4764C92.9853 24.3471 93.1304 24.2455 93.3016 24.1734C93.471 24.1013 93.6612 24.066 93.8723 24.0645C94.0811 24.066 94.266 24.1029 94.4277 24.1779C94.5881 24.2513 94.7239 24.3545 94.835 24.4867C94.9451 24.6189 95.029 24.7723 95.0869 24.9471C95.1435 25.1222 95.1724 25.3104 95.1724 25.5118H92.4895ZM101.555 21.3907C101.458 21.3907 101.342 21.4043 101.209 21.4289C101.076 21.4527 100.911 21.4836 100.714 21.5204C100.519 21.5557 100.278 21.5923 99.9897 21.6294C99.7484 21.6571 99.5181 21.7026 99.2978 21.7676C99.0786 21.8321 98.8772 21.9232 98.6923 22.0382C98.5093 22.1528 98.3506 22.2997 98.2159 22.4794C98.0831 22.6572 97.9814 22.8746 97.911 23.1294C97.8774 23.2529 97.8484 23.3688 97.8257 23.478C97.8028 23.5852 97.7859 23.6942 97.7722 23.8027C97.7599 23.913 97.7507 24.0306 97.7446 24.1602C97.7402 24.2897 97.737 24.4366 97.737 24.603V25.803C97.7384 26.1634 97.7891 26.4909 97.8899 26.7852C97.992 27.078 98.1353 27.331 98.3246 27.5424C98.5125 27.753 98.7379 27.9164 99.0004 28.0294C99.263 28.1444 99.5561 28.2016 99.8798 28.203C100.145 28.2016 100.389 28.159 100.612 28.075C100.833 27.991 101.03 27.8754 101.204 27.7237C101.378 27.5737 101.525 27.3986 101.645 27.1972C101.764 26.9956 101.856 26.7765 101.918 26.5398C101.981 26.3045 102.013 26.0588 102.013 25.803C102.013 25.4531 101.967 25.1309 101.879 24.8383C101.789 24.5454 101.655 24.2913 101.476 24.0747C101.297 23.8601 101.075 23.6926 100.808 23.5749C100.542 23.4557 100.232 23.3956 99.8798 23.3938C99.6735 23.3938 99.4722 23.4309 99.2766 23.5026C99.0815 23.5731 98.9043 23.6763 98.7426 23.8114C98.5813 23.947 98.4467 24.11 98.3415 24.3029C98.3415 24.3015 98.3443 24.2719 98.3519 24.2145C98.3579 24.1573 98.3675 24.0852 98.3795 23.9954C98.3918 23.9056 98.4069 23.8132 98.4224 23.7129C98.4391 23.6147 98.4558 23.5234 98.4755 23.438C98.4942 23.3528 98.5139 23.2851 98.5339 23.2355C98.6115 23.0395 98.7229 22.8849 98.8664 22.7704C99.01 22.6543 99.1959 22.5674 99.4253 22.5085C99.6539 22.4495 99.9329 22.4071 100.264 22.3789C100.466 22.3631 100.661 22.3423 100.85 22.3175C101.041 22.2925 101.212 22.2572 101.365 22.2114C101.517 22.1643 101.638 22.1009 101.728 22.0192C101.818 21.9364 101.865 21.8308 101.867 21.6999C101.867 21.613 101.841 21.5407 101.79 21.4819C101.739 21.4232 101.661 21.3922 101.555 21.3906L101.555 21.3907ZM99.8798 24.0644C100.095 24.066 100.286 24.1115 100.452 24.2015C100.619 24.2924 100.757 24.4174 100.871 24.5767C100.985 24.7352 101.07 24.9208 101.129 25.1295C101.188 25.3381 101.217 25.5634 101.217 25.803C101.217 26.0428 101.188 26.2661 101.131 26.4749C101.075 26.6839 100.989 26.8661 100.876 27.0251C100.762 27.1839 100.621 27.3071 100.452 27.3953C100.282 27.4853 100.086 27.5311 99.8615 27.5324C99.6323 27.5311 99.434 27.4811 99.2678 27.3853C99.0996 27.2881 98.9624 27.1591 98.854 26.9957C98.746 26.8309 98.6651 26.6471 98.613 26.441C98.5595 26.2367 98.5337 26.0234 98.5337 25.803C98.5349 25.4368 98.59 25.1249 98.6971 24.8663C98.8053 24.6072 98.9591 24.4087 99.1607 24.2719C99.3607 24.1352 99.6003 24.066 99.8797 24.0644H99.8798ZM105.869 23.3939C105.608 23.3957 105.368 23.4394 105.147 23.5279C104.926 23.6161 104.728 23.7366 104.553 23.8912C104.378 24.0457 104.229 24.2223 104.106 24.4237C103.982 24.6236 103.89 24.8384 103.824 25.0659C103.76 25.2928 103.726 25.5232 103.726 25.7586C103.726 26.1221 103.776 26.4528 103.876 26.7516C103.975 27.0501 104.12 27.3071 104.311 27.5235C104.503 27.7399 104.736 27.9076 105.013 28.025C105.289 28.1427 105.605 28.2016 105.96 28.203C106.154 28.2016 106.345 28.1824 106.531 28.1427C106.719 28.1034 106.894 28.05 107.059 27.9837C107.224 27.9165 107.369 27.8412 107.496 27.7575C107.621 27.6737 107.72 27.5869 107.792 27.496C107.863 27.4058 107.9 27.3176 107.902 27.2325C107.902 27.1722 107.891 27.1191 107.868 27.069C107.847 27.0206 107.815 26.9806 107.773 26.9514C107.731 26.9223 107.679 26.9076 107.617 26.9061C107.564 26.9076 107.503 26.9295 107.439 26.9704C107.374 27.0135 107.299 27.0648 107.215 27.1267C107.13 27.1881 107.03 27.2499 106.917 27.3118C106.804 27.3736 106.673 27.4252 106.524 27.4678C106.374 27.5089 106.202 27.531 106.006 27.5324C105.716 27.531 105.461 27.4736 105.239 27.3602C105.017 27.2457 104.844 27.0824 104.717 26.869C104.59 26.6575 104.526 26.4014 104.523 26.1031H107.563C107.714 26.1031 107.824 26.0705 107.896 26.0057C107.967 25.9414 108.002 25.8472 108.002 25.7235C108.001 25.4105 107.95 25.113 107.848 24.8353C107.746 24.5559 107.601 24.3074 107.413 24.0928C107.224 23.8765 107 23.7074 106.739 23.5821C106.478 23.4586 106.188 23.397 105.869 23.3939ZM104.523 25.5118C104.523 25.3033 104.556 25.1117 104.621 24.9353C104.685 24.7604 104.777 24.6072 104.898 24.4764C105.019 24.3471 105.164 24.2455 105.335 24.1734C105.504 24.1013 105.695 24.066 105.905 24.0645C106.114 24.066 106.299 24.1029 106.461 24.1779C106.621 24.2513 106.757 24.3545 106.868 24.4867C106.978 24.6189 107.062 24.7723 107.12 24.9471C107.177 25.1222 107.206 25.3104 107.206 25.5118H104.523ZM112.874 24.1176V27.8236C112.876 27.9399 112.914 28.0328 112.987 28.0987C113.062 28.1663 113.161 28.2016 113.286 28.203C113.355 28.203 113.418 28.1882 113.476 28.159C113.533 28.1295 113.581 28.0852 113.616 28.0265C113.651 27.9674 113.669 27.8943 113.671 27.8059V23.8442C113.674 23.7162 113.642 23.6173 113.575 23.5499C113.509 23.482 113.395 23.4467 113.232 23.4467H110.823C110.744 23.4483 110.674 23.4662 110.616 23.5014C110.556 23.5362 110.511 23.5834 110.479 23.6423C110.447 23.7026 110.43 23.7689 110.43 23.8442V25.1319C110.431 25.4943 110.414 25.8132 110.378 26.0894C110.341 26.3648 110.274 26.6086 110.176 26.8221C110.077 27.0369 109.936 27.2309 109.752 27.4089C109.663 27.4926 109.589 27.5736 109.531 27.6514C109.473 27.7309 109.442 27.8117 109.441 27.8943C109.442 27.9428 109.461 27.9899 109.494 28.0366C109.529 28.0837 109.572 28.1237 109.625 28.1542C109.679 28.1853 109.732 28.2016 109.789 28.2029C109.928 28.2047 110.083 28.1176 110.259 27.9428C110.433 27.7675 110.622 27.496 110.823 27.1266C110.909 26.9748 110.977 26.8015 111.03 26.6086C111.083 26.4163 111.121 26.1986 111.145 25.9559C111.168 25.7116 111.181 25.4367 111.181 25.1319V24.1175H112.874V24.1176ZM116.217 23.3939C116.144 23.3939 116.077 23.4115 116.018 23.4441C115.958 23.478 115.912 23.5247 115.877 23.5866C115.842 23.6484 115.825 23.7234 115.823 23.8089V27.7177C115.825 27.8544 115.842 27.957 115.877 28.0281C115.911 28.0986 115.957 28.1457 116.013 28.169C116.069 28.1928 116.131 28.2047 116.199 28.2029C116.277 28.2029 116.352 28.1823 116.422 28.1397C116.492 28.0957 116.569 28.0249 116.651 27.9283C116.733 27.8307 116.829 27.7016 116.941 27.5413L118.845 24.8234V27.8235C118.844 27.9399 118.874 28.0327 118.935 28.0986C118.998 28.1663 119.098 28.2016 119.239 28.2029C119.377 28.2029 119.477 28.169 119.544 28.1033C119.61 28.0381 119.642 27.9383 119.642 27.8059V23.8089C119.642 23.6794 119.614 23.5778 119.556 23.5057C119.499 23.4322 119.409 23.3956 119.285 23.3938C119.21 23.3925 119.141 23.4074 119.082 23.4367C119.021 23.4675 118.958 23.5176 118.894 23.5881C118.83 23.6602 118.755 23.7558 118.671 23.8795L116.62 26.7826V23.8089C116.619 23.7203 116.6 23.6455 116.565 23.5834C116.529 23.522 116.48 23.4749 116.419 23.4425C116.359 23.4101 116.292 23.3938 116.217 23.3938L116.217 23.3939Z" fill="#522F56"/>
<path fill-rule="evenodd" clip-rule="evenodd" d="M2.79422 16.9692C1.32264 19.8762 0.459742 22.7172 0.622643 24.9281C0.717186 26.206 1.11433 27.6607 1.82361 28.7368C2.08151 29.1276 2.39869 29.4846 2.79377 29.7753C3.10403 30.0033 3.46269 30.1904 3.87814 30.3218C4.52229 30.5245 5.18082 30.3774 5.84812 29.9899C6.41256 29.6622 6.98396 29.1611 7.55884 28.5546C8.06557 28.02 8.57536 27.4037 9.08581 26.7486C10.2091 25.3083 11.3364 23.6867 12.4451 22.3644C13.5494 21.0483 14.6357 20.0294 15.683 19.7807C16.0387 19.6961 16.3895 19.6983 16.7355 19.8104C17.2255 20.0183 17.6025 20.6676 17.9433 21.5349C18.3767 22.6366 18.752 24.0916 19.2256 25.4497C19.9977 27.663 21.0334 29.6152 23.0129 29.3527C23.2256 29.3247 23.4495 29.2701 23.6847 29.1881C24.4773 28.913 25.4033 28.3202 26.4946 27.3175C26.9172 26.929 27.3647 26.4786 27.8385 25.9622C28.6184 25.1114 29.4718 24.0785 30.4044 22.8421C30.6176 22.5589 30.8345 22.2684 31.0562 21.9636C31.7963 20.9477 32.4023 20.4019 32.9085 20.2043C33.2311 20.0784 33.5133 20.0942 33.764 20.221C34.0701 20.3762 34.3299 20.6957 34.5581 21.1265C35.2178 22.3709 35.6193 24.5322 36.1523 26.2585C36.4 27.0608 36.742 27.9011 37.2133 28.6495C37.6394 29.325 38.1709 29.9259 38.8336 30.3571C39.2537 30.6304 39.7267 30.8351 40.2586 30.9474C40.4178 30.9807 40.5736 30.9968 40.7272 30.9999C41.2506 31.0088 41.7409 30.8436 42.1932 30.5301C42.905 30.0366 43.5221 29.1774 44.0258 28.062C44.8676 26.1984 45.3929 23.6211 45.5162 20.8394V20.7471C45.5102 19.6246 45.4909 18.4952 45.4587 17.3644C45.3074 15.3981 44.9501 13.4347 44.3579 11.6391C44.2476 11.3038 44.1366 10.9846 44.0263 10.6718C43.4134 8.93704 42.8026 7.53698 42.1937 6.42319C41.7036 5.52667 41.215 4.81612 40.7277 4.26595C40.0933 3.55073 39.4616 3.10528 38.8344 2.8795C38.291 2.68411 37.7509 2.64618 37.214 2.73972C36.3185 2.89715 35.4324 3.40847 34.5584 4.10137C34.2927 4.3117 34.0278 4.53971 33.7646 4.77931C33.478 5.0401 33.193 5.31367 32.9091 5.59721C32.0601 6.44531 31.2244 7.3693 30.4048 8.20194C29.5308 9.09043 28.6744 9.87708 27.8389 10.3625C27.3847 10.6267 26.9366 10.8009 26.495 10.8549C25.5248 10.9725 24.5864 10.5003 23.6853 9.10672C23.4591 8.75658 23.2349 8.34551 23.0133 7.87503C22.7879 7.39517 22.2387 6.99236 22.0186 6.37448C21.314 4.39834 20.5494 3.2019 19.2265 2.84173C18.819 2.73122 18.391 2.68455 17.9438 2.70172C17.2299 2.72874 16.4704 2.91092 15.6835 3.22422C14.6387 3.6402 13.546 4.28643 12.4458 5.10725C11.3179 5.94932 10.1834 6.97487 9.08652 8.12173C8.56703 8.66455 8.05657 9.23552 7.55934 9.82658C6.96755 10.5293 6.39525 11.2612 5.84908 12.0122C4.68267 13.6159 3.6381 15.3031 2.79447 16.9691L2.79422 16.9692Z" fill="#522F56"/>
<path fill-rule="evenodd" clip-rule="evenodd" d="M2.19054 28.6016L2.19079 15.7959C0.719207 18.703 -0.143442 21.5442 0.019667 23.7548C0.113754 25.0327 0.510898 26.4875 1.22038 27.5633C1.47828 27.9541 1.79572 28.3109 2.19054 28.6016V28.6016Z" fill="#E20D6F"/>
<path fill-rule="evenodd" clip-rule="evenodd" d="M5.24517 10.8389L5.24492 28.8168C4.57736 29.2044 3.91908 29.3513 3.27494 29.1481C2.85948 29.0175 2.50128 28.8302 2.19031 28.6017L2.19101 15.796C3.03464 14.1298 4.07896 12.4423 5.24517 10.8389Z" fill="#E40014"/>
<path fill-rule="evenodd" clip-rule="evenodd" d="M8.48287 6.94824L8.48262 25.5755C7.97192 26.2302 7.46242 26.8467 6.95544 27.3813L6.9559 8.65309C7.45339 8.06204 7.96384 7.49131 8.48287 6.94824Z" fill="#F1D5D7"/>
<path fill-rule="evenodd" clip-rule="evenodd" d="M8.48291 6.94861L8.48267 25.5759C9.60574 24.1352 10.733 22.514 11.842 21.1915L11.8427 3.93457C10.7147 4.77615 9.57985 5.80199 8.48291 6.94861Z" fill="#C8993A"/>
<path fill-rule="evenodd" clip-rule="evenodd" d="M15.08 2.05127L15.0796 18.6074C14.0322 18.8562 12.946 19.8749 11.8419 21.1914L11.8426 3.9343C12.9423 3.11324 14.035 2.46725 15.0801 2.05127H15.08Z" fill="#D93F79"/>
<path fill-rule="evenodd" clip-rule="evenodd" d="M15.08 2.05106L15.0796 18.6072C15.4355 18.5228 15.7865 18.5251 16.1322 18.6369C16.6223 18.8451 16.9988 19.4944 17.3399 20.3617L17.3402 1.52832C16.6263 1.55555 15.867 1.73777 15.0801 2.05106H15.08Z" fill="#A5B2D5"/>
<path fill-rule="evenodd" clip-rule="evenodd" d="M18.6228 1.66884L18.6226 24.2768C18.1488 22.918 17.7732 21.4637 17.3401 20.3617L17.3403 1.52814C17.7873 1.51161 18.2157 1.55829 18.6228 1.6688V1.66884Z" fill="#653575"/>
<path fill-rule="evenodd" clip-rule="evenodd" d="M18.6229 1.66895L18.6227 24.2769C19.3947 26.4897 20.43 28.442 22.4095 28.1798L22.4099 6.702C22.1847 6.2219 21.9613 5.68423 21.7412 5.06658C21.0366 3.09044 19.9462 2.02911 18.6229 1.66895H18.6229Z" fill="#EA671F"/>
<path fill-rule="evenodd" clip-rule="evenodd" d="M23.0819 7.93359L23.0814 28.0149C23.8741 27.7396 24.8 27.1472 25.8916 26.1439V9.682C24.9212 9.79946 23.983 9.32742 23.0819 7.93359H23.0819Z" fill="#F3DFDE"/>
<path fill-rule="evenodd" clip-rule="evenodd" d="M27.2357 9.18945L27.2355 24.7888C26.7614 25.3055 26.314 25.7557 25.8916 26.144V9.68181C26.333 9.62799 26.7813 9.45384 27.2357 9.18945Z" fill="#D41520"/>
<path fill-rule="evenodd" clip-rule="evenodd" d="M27.2357 9.18964L27.2355 24.789C28.0152 23.9387 28.8683 22.9053 29.8007 21.6691L29.8014 7.02881C28.9272 7.91774 28.0708 8.70395 27.2357 9.18964Z" fill="#CA9D38"/>
<path fill-rule="evenodd" clip-rule="evenodd" d="M32.3058 4.42415L32.3055 19.0314C32.6279 18.9052 32.9101 18.9213 33.1605 19.0479L33.161 3.60645C32.8746 3.86748 32.5894 4.141 32.3058 4.42415H32.3058Z" fill="#E85514"/>
<path fill-rule="evenodd" clip-rule="evenodd" d="M33.9551 2.92822L33.9546 19.9535C33.7266 19.523 33.4668 19.2028 33.1608 19.0481L33.161 3.60635C33.4249 3.36676 33.6891 3.13923 33.9551 2.92822H33.9551Z" fill="#E40014"/>
<path fill-rule="evenodd" clip-rule="evenodd" d="M33.955 2.92811L33.9546 19.9534C34.6145 21.1976 35.0161 23.3589 35.549 25.0854C35.7964 25.888 36.1384 26.728 36.6102 27.4762L36.6109 1.56689C35.7149 1.72408 34.829 2.23544 33.955 2.92811Z" fill="#D93F79"/>
<path fill-rule="evenodd" clip-rule="evenodd" d="M38.2307 1.70662L38.2305 29.1841C37.5675 28.7529 37.0358 28.1525 36.6101 27.4764L36.6106 1.56704C37.1474 1.47301 37.6875 1.51166 38.2307 1.70662H38.2307Z" fill="#CC1320"/>
<path fill-rule="evenodd" clip-rule="evenodd" d="M38.2307 1.70654L38.2305 29.1841C38.6501 29.4574 39.123 29.6621 39.6555 29.7742C39.8142 29.8077 39.9701 29.8243 40.1238 29.8269L40.1245 3.09299C39.4901 2.37777 38.858 1.93208 38.2307 1.70654Z" fill="#F0D3D8"/>
<path fill-rule="evenodd" clip-rule="evenodd" d="M41.5906 5.24997L41.5897 29.3569C41.1379 29.6704 40.6473 29.8359 40.1239 29.8265L40.1244 3.09277C40.6114 3.64274 41.1003 4.35325 41.5906 5.25001V5.24997Z" fill="#EB7700"/>
<path fill-rule="evenodd" clip-rule="evenodd" d="M41.5905 5.25L41.5896 29.3569C42.3017 28.8632 42.9189 28.004 43.4224 26.8886L43.4229 9.49864C42.8102 7.76385 42.1992 6.36403 41.5905 5.25Z" fill="#76381E"/>
<path fill-rule="evenodd" clip-rule="evenodd" d="M44.9126 19.5738V19.6667C44.7895 22.448 44.2645 25.0255 43.4227 26.8891L43.4229 9.49918C43.5337 9.81179 43.644 10.1306 43.7545 10.4662C44.3467 12.2613 44.704 14.2252 44.8551 16.1915C44.8878 17.3221 44.9066 18.4519 44.9126 19.5738ZM22.41 6.70193C22.6315 7.17265 22.8553 7.58372 23.0819 7.93387L23.0817 28.0152C22.846 28.0972 22.6222 28.1519 22.4093 28.1798L22.41 6.70193ZM29.8012 7.02904C30.621 6.19636 31.4563 5.27217 32.306 4.42432L32.3053 19.0314C31.799 19.2288 31.1933 19.7747 30.453 20.7907C30.2313 21.0953 30.0146 21.3865 29.8007 21.6692L29.8012 7.02908L29.8012 7.02904ZM6.95546 27.3817C6.38083 27.9879 5.80968 28.4892 5.245 28.817L5.24524 10.8393C5.79137 10.0884 6.36418 9.35688 6.95571 8.65376L6.95546 27.3817V27.3817Z" fill="#76381E"/>
<path fill-rule="evenodd" clip-rule="evenodd" d="M44.9125 19.5736V19.6665C44.7895 22.4479 44.2644 25.0254 43.4226 26.889L43.4229 9.49902C43.5336 9.81164 43.6439 10.1305 43.7544 10.4661C44.3467 12.2612 44.7039 14.225 44.855 16.1914C44.8877 17.3219 44.9065 18.4518 44.9125 19.5736Z" fill="#B3DDEC"/>
</g>
<defs>
<clipPath id="clip0_131_297">
<rect width="154" height="31" fill="white"/>
</clipPath>
</defs>
</svg>
