<svg width="95" height="34" viewBox="0 0 95 34" fill="none" xmlns="http://www.w3.org/2000/svg">
<g clip-path="url(#clip0_131_249)">
<path fill-rule="evenodd" clip-rule="evenodd" d="M94.7357 33.1872H94.0765L94.0967 30.5687C94.0967 30.4927 94.08 30.4549 94.0471 30.4549C94.0269 30.4549 93.9837 30.5073 93.917 30.6127L92.4792 32.9017C92.4124 33.0067 92.3528 33.0802 92.2994 33.1233C92.206 33.1921 92.0815 33.2265 91.9253 33.2265C91.5822 33.2265 91.4112 33.0294 91.4112 32.636V29.7413H92.07L92.0551 32.3108C92.0551 32.4159 92.0749 32.4686 92.115 32.4686C92.1349 32.4686 92.1665 32.4323 92.2097 32.3601L93.6177 30.0857C93.7071 29.9382 93.7987 29.8365 93.8921 29.781C93.9753 29.7283 94.0787 29.702 94.2017 29.702C94.5578 29.702 94.7357 29.9087 94.7357 30.3222V33.1872ZM91.2612 33.1872L89.9134 30.0268C89.82 29.8101 89.6421 29.702 89.3791 29.702C89.1162 29.702 88.9383 29.8101 88.8451 30.0268L87.4921 33.1872H88.191L89.2941 30.4351C89.3211 30.3697 89.349 30.3368 89.3788 30.3368C89.4055 30.3368 89.4322 30.3697 89.4589 30.4351L90.562 33.1872H91.2609H91.2612ZM87.4924 33.1872H85.221C85.0313 33.1872 84.8984 33.1509 84.8217 33.079C84.7354 32.9968 84.6923 32.862 84.6923 32.6751V30.2336C84.6923 30.0826 84.732 29.9627 84.8118 29.874C84.8916 29.7857 85.0313 29.741 85.2309 29.741H87.4725V30.2581H85.5855C85.5023 30.2581 85.4424 30.2742 85.406 30.3074C85.3694 30.3402 85.3511 30.3957 85.3511 30.4745V31.1685H87.4225V31.6856H85.3511V32.4928C85.3511 32.5554 85.3669 32.6003 85.3986 32.6279C85.4303 32.6561 85.506 32.6698 85.6255 32.6698H87.4927V33.1868L87.4924 33.1872ZM83.5137 32.1679C83.5137 31.9875 83.4786 31.8641 83.4091 31.7987C83.3392 31.733 83.2247 31.7005 83.0648 31.7005H81.7316V32.414C81.7316 32.5191 81.7403 32.583 81.7568 32.6056C81.7869 32.6484 81.8701 32.6698 82.0064 32.6698H83.0648C83.2278 32.6698 83.3436 32.6363 83.4116 32.569C83.4796 32.5018 83.514 32.3682 83.514 32.1679H83.5137ZM84.1927 32.1874C84.1927 32.5619 84.1294 32.8195 84.003 32.9606C83.8698 33.1115 83.6702 33.1872 83.4041 33.1872H81.5171C81.3637 33.1872 81.2473 33.141 81.1675 33.0489C81.1045 32.9767 81.0728 32.8707 81.0728 32.7293V30.2429C81.0728 30.0755 81.1132 29.9506 81.1948 29.8669C81.2765 29.7832 81.3938 29.741 81.5469 29.741H84.0129V30.2581H81.9663C81.8766 30.2581 81.8148 30.2708 81.7816 30.2974C81.7484 30.3235 81.7316 30.3811 81.7316 30.4698V31.1834H83.3942C83.6739 31.1834 83.8804 31.2686 84.0133 31.4394C84.1334 31.5904 84.193 31.8396 84.193 32.1874H84.1927ZM80.6236 33.1872H78.3518C78.1625 33.1872 78.0293 33.1509 77.9526 33.079C77.8659 32.9968 77.8228 32.862 77.8228 32.6751V30.2336C77.8228 30.0826 77.8625 29.9627 77.9426 29.874C78.0224 29.7857 78.1624 29.741 78.3621 29.741H80.6034V30.2581H78.7166C78.6334 30.2581 78.5735 30.2742 78.5369 30.3074C78.5005 30.3402 78.4822 30.3957 78.4822 30.4745V31.1685H80.5537V31.6856H78.4822V32.4928C78.4822 32.5554 78.4981 32.6003 78.5297 32.6279C78.5611 32.6561 78.6372 32.6698 78.757 32.6698H80.6242V33.1868L80.6236 33.1872ZM77.2242 33.1872H76.5654L76.5853 30.5042C76.5853 30.4354 76.5654 30.401 76.5253 30.401C76.4989 30.401 76.4704 30.4388 76.4403 30.5141L75.5467 32.8127C75.4837 32.9736 75.4222 33.0818 75.362 33.1379C75.2925 33.1968 75.1875 33.2262 75.0478 33.2262C74.9143 33.2262 74.8137 33.1983 74.7457 33.1425C74.6777 33.087 74.6119 32.9767 74.5483 32.8124L73.6547 30.5138C73.6252 30.4385 73.5967 30.4007 73.57 30.4007C73.5336 30.4007 73.5153 30.4348 73.5153 30.5039L73.5302 33.1868H72.8714V30.1549C72.8714 29.8526 73.0592 29.7017 73.4352 29.7017C73.5818 29.7017 73.6963 29.7277 73.7798 29.7807C73.8898 29.8464 73.9798 29.9673 74.0496 30.1449L74.9528 32.4435C74.986 32.5287 75.0177 32.5715 75.0478 32.5715C75.0776 32.5715 75.1093 32.529 75.1425 32.4435L76.0457 30.1449C76.1158 29.9673 76.2056 29.8464 76.3155 29.7807C76.3987 29.728 76.5132 29.7017 76.6598 29.7017C77.0358 29.7017 77.2239 29.8526 77.2239 30.1549V33.1868L77.2242 33.1872ZM71.1089 33.1872H70.4501L70.4702 30.5687C70.4702 30.4927 70.4535 30.4549 70.4202 30.4549C70.4001 30.4549 70.3569 30.5073 70.2905 30.6127L68.8524 32.9017C68.7862 33.0067 68.726 33.0802 68.6732 33.1233C68.5798 33.1921 68.455 33.2265 68.2985 33.2265C67.9554 33.2265 67.7843 33.0294 67.7843 32.636V29.7413H68.4432L68.4283 32.3108C68.4283 32.4159 68.4481 32.4686 68.4882 32.4686C68.5081 32.4686 68.5397 32.4323 68.5829 32.3601L69.9909 30.0857C70.0806 29.9382 70.1722 29.8365 70.2653 29.781C70.3485 29.7283 70.4519 29.702 70.5749 29.702C70.9307 29.702 71.1089 29.9087 71.1089 30.3222V33.1872ZM66.6064 31.4639C66.6064 31.0114 66.5335 30.6927 66.3866 30.5092C66.2304 30.3157 65.9327 30.2187 65.4928 30.2187C65.2866 30.2187 65.1286 30.2317 65.019 30.2581C64.8458 30.3005 64.7076 30.3842 64.6045 30.5089C64.4549 30.6924 64.3797 31.011 64.3797 31.4636C64.3797 31.9066 64.4549 32.2234 64.6045 32.4137C64.7045 32.5384 64.8395 32.6224 65.0091 32.6651C65.119 32.6943 65.2801 32.7088 65.4931 32.7088C65.933 32.7088 66.2308 32.6106 66.3869 32.4137C66.5335 32.2299 66.6067 31.9134 66.6067 31.4636L66.6064 31.4639ZM67.2848 31.4639C67.2848 32.14 67.1538 32.6056 66.8908 32.862C66.7275 33.0195 66.4978 33.1261 66.2016 33.1819C66.0355 33.2116 65.8008 33.2262 65.4977 33.2262C65.1916 33.2262 64.9553 33.2113 64.7889 33.1819C64.5027 33.1295 64.2732 33.021 64.0997 32.857C63.9264 32.693 63.81 32.4615 63.7504 32.1633C63.7172 31.9959 63.7004 31.7628 63.7004 31.4639C63.7004 31.1524 63.7203 30.9044 63.7607 30.7206C63.8206 30.4416 63.9351 30.2224 64.105 30.0637C64.2742 29.9047 64.5027 29.7987 64.7889 29.746C64.9519 29.7162 65.1882 29.7017 65.4977 29.7017C65.8039 29.7017 66.0386 29.7162 66.2016 29.746C66.4947 29.7987 66.7244 29.905 66.8908 30.0659C67.1538 30.3185 67.2848 30.7851 67.2848 31.4636V31.4639ZM63.2018 33.1872H62.543V31.6707H60.7261V33.1872H60.067V29.741H60.7261V31.1539H62.543V29.741H63.2018V33.1872ZM58.8884 32.1484C58.8884 31.9416 58.8419 31.804 58.749 31.7349C58.6891 31.6924 58.5777 31.6707 58.4144 31.6707H57.0967V32.4587C57.0967 32.5374 57.1063 32.5898 57.1268 32.6162C57.1535 32.6524 57.2166 32.6701 57.3165 32.6701H58.3799C58.5628 32.6701 58.6935 32.6372 58.7714 32.5715C58.8496 32.5058 58.8888 32.3648 58.8888 32.1484H58.8884ZM59.5674 32.1682C59.5674 32.503 59.514 32.7423 59.4075 32.8868C59.261 33.0873 59.0316 33.1875 58.7189 33.1875H56.8617C56.7322 33.1875 56.6288 33.1431 56.5525 33.0542C56.4758 32.9658 56.4376 32.8359 56.4376 32.6658V29.7413H57.0967V31.1543H58.754C59.0868 31.1543 59.315 31.264 59.438 31.4841C59.5243 31.6385 59.5678 31.8663 59.5678 32.1682H59.5674ZM56.2876 33.1875L54.9396 30.0271C54.8467 29.8105 54.6685 29.7023 54.4056 29.7023C54.1429 29.7023 53.9647 29.8105 53.8715 30.0271L52.5185 33.1875H53.2177L54.3208 30.4354C54.3475 30.37 54.3758 30.3371 54.4056 30.3371C54.4323 30.3371 54.4586 30.37 54.4857 30.4354L55.5888 33.1875H56.2876ZM52.5185 33.1875H50.2471C50.0574 33.1875 49.9245 33.1512 49.8479 33.0793C49.7612 32.9971 49.7181 32.8623 49.7181 32.6754V30.2339C49.7181 30.0829 49.7578 29.963 49.8382 29.8743C49.9177 29.786 50.0574 29.7413 50.2574 29.7413H52.4983V30.2584H50.6119C50.5287 30.2584 50.4688 30.2745 50.4325 30.3077C50.3958 30.3405 50.3772 30.396 50.3772 30.4748V31.1688H52.449V31.6859H50.3772V32.4931C50.3772 32.5557 50.3934 32.6007 50.425 32.6282C50.4567 32.6565 50.5318 32.6701 50.652 32.6701H52.5188V33.1872L52.5185 33.1875ZM49.4685 30.2587H48.1008V33.1875H47.442V30.2587H46.0794V29.7416H49.4685V30.2587ZM45.8297 33.1875H45.1709L45.1908 30.569C45.1908 30.4931 45.174 30.4552 45.1411 30.4552C45.1209 30.4552 45.0778 30.5076 45.011 30.613L43.5732 32.902C43.5068 33.0071 43.4469 33.0805 43.3938 33.1236C43.3007 33.1924 43.1755 33.2268 43.0191 33.2268C42.6763 33.2268 42.5049 33.0297 42.5049 32.6363V29.7416H43.1637L43.1488 32.3111C43.1488 32.4162 43.1687 32.4689 43.2088 32.4689C43.2286 32.4689 43.2603 32.4326 43.3034 32.3604L44.7111 30.086C44.8012 29.9385 44.8924 29.8368 44.9859 29.7813C45.0688 29.7286 45.1722 29.7023 45.2951 29.7023C45.6512 29.7023 45.8291 29.909 45.8291 30.3226V33.1875H45.8297ZM41.327 32.198C41.327 32.0343 41.3022 31.9171 41.2522 31.8486C41.1854 31.7532 41.0674 31.7057 40.8979 31.7057H39.5601V32.4147C39.5601 32.5198 39.575 32.5886 39.6051 32.6214C39.6349 32.6543 39.7051 32.6704 39.8147 32.6704H40.8529C41.0395 32.6704 41.1674 32.6295 41.237 32.5473C41.2972 32.4751 41.327 32.3589 41.327 32.1977V32.198ZM41.2723 30.7166C41.2723 30.5426 41.2342 30.4196 41.1575 30.347C41.0941 30.2885 40.9861 30.2587 40.833 30.2587H39.7545C39.6784 30.2587 39.6265 30.2733 39.5998 30.303C39.5731 30.3325 39.5598 30.3818 39.5598 30.4506V31.189H40.8377C41.014 31.189 41.1342 31.1477 41.1969 31.0659C41.2469 31.0005 41.272 30.8836 41.272 30.7166H41.2723ZM42.006 32.2426C42.006 32.5771 41.9399 32.8186 41.8064 32.9661C41.7166 33.0647 41.6117 33.1286 41.4918 33.158C41.422 33.1779 41.3136 33.1878 41.1674 33.1878H39.4949C39.362 33.1878 39.2788 33.1841 39.2453 33.1779C39.1553 33.1614 39.0807 33.119 39.0208 33.0498C38.9407 32.9615 38.9007 32.8446 38.9007 32.7005V30.2392C38.9007 30.0879 38.9389 29.9673 39.0155 29.8774C39.0922 29.7872 39.2136 29.742 39.38 29.742H41.0972C41.3835 29.742 41.5946 29.8108 41.7312 29.9487C41.8778 30.0963 41.951 30.3427 41.951 30.6871C41.951 30.9332 41.8961 31.1205 41.7862 31.2485C41.6927 31.3564 41.5831 31.4156 41.4565 31.4255V31.445C41.6129 31.4584 41.7412 31.5188 41.8408 31.6273C41.9507 31.7454 42.0057 31.9503 42.0057 32.2426H42.006ZM38.3021 33.1878H37.6433L37.6631 30.5693C37.6631 30.4934 37.6464 30.4555 37.6131 30.4555C37.5933 30.4555 37.5501 30.5079 37.4834 30.6133L36.0456 32.9023C35.9795 33.0074 35.9192 33.0808 35.8661 33.1239C35.7733 33.1927 35.6479 33.2271 35.4917 33.2271C35.1489 33.2271 34.9776 33.03 34.9776 32.6366V29.742H35.6364L35.6215 32.3114C35.6215 32.4165 35.6413 32.4692 35.6814 32.4692C35.7013 32.4692 35.7329 32.433 35.7761 32.3607L37.1841 30.0863C37.2741 29.9388 37.3654 29.8371 37.4585 29.7816C37.5417 29.7289 37.6451 29.7026 37.7681 29.7026C38.1242 29.7026 38.3021 29.9093 38.3021 30.3229V33.1878ZM33.7593 32.6707H31.6375L32.6161 30.436C32.6462 30.3641 32.6742 30.3278 32.7009 30.3278C32.7242 30.3278 32.7509 30.3641 32.781 30.436L33.7593 32.6707ZM34.7279 33.1878V32.6707H34.4333L33.2603 30.0668C33.2038 29.9388 33.134 29.8461 33.0505 29.7888C32.9676 29.7314 32.8508 29.7026 32.7012 29.7026C32.5413 29.7026 32.4149 29.7389 32.3221 29.8108C32.2554 29.8635 32.1954 29.9487 32.1427 30.0668L30.9644 32.6707H30.6698V33.1878H34.7283H34.7279ZM30.8191 29.7416L28.987 33.1878H28.2733L28.6977 32.4249L27.2052 29.742H27.9339L29.037 31.8294L30.1004 29.742H30.8191V29.7416ZM25.0686 31.8536H23.7258L24.2999 30.4506C24.3396 30.3557 24.3728 30.3083 24.3998 30.3083C24.4265 30.3083 24.4598 30.3557 24.4995 30.4506L25.0686 31.8536ZM26.2915 33.1878L24.9736 30.0916C24.9106 29.9472 24.836 29.8461 24.7513 29.7888C24.6665 29.7314 24.5495 29.7026 24.3995 29.7026C24.2427 29.7026 24.1241 29.7302 24.0425 29.7863C23.9608 29.8418 23.8885 29.9438 23.8251 30.0916L22.5072 33.1878H23.2011L23.5554 32.3164H25.2375L25.597 33.1878H26.2909H26.2915ZM20.1215 33.1878H19.4627V29.7416H20.1215V33.1878ZM22.8071 33.1878H21.9735L20.5357 31.8635C20.3758 31.7156 20.296 31.5681 20.296 31.4205C20.296 31.2857 20.3594 31.1561 20.4857 31.0315L21.8086 29.7416H22.6224L21.1147 31.1546C20.9915 31.2693 20.9303 31.3582 20.9303 31.4205C20.9303 31.499 21.0055 31.604 21.1548 31.7355L22.8071 33.1878ZM18.8638 33.1878H18.2047L18.2249 30.5693C18.2249 30.4934 18.2081 30.4555 18.1749 30.4555C18.155 30.4555 18.1119 30.5079 18.0451 30.6133L16.6073 32.9023C16.5406 33.0074 16.481 33.0808 16.4279 33.1239C16.3344 33.1927 16.2096 33.2271 16.0535 33.2271C15.7104 33.2271 15.5393 33.03 15.5393 32.6366V29.742H16.1981L16.1832 32.3114C16.1832 32.4165 16.2031 32.4692 16.2432 32.4692C16.263 32.4692 16.2947 32.433 16.3382 32.3607L17.7455 30.0863C17.8352 29.9388 17.9268 29.8371 18.0203 29.7816C18.1035 29.7289 18.2066 29.7026 18.3295 29.7026C18.6856 29.7026 18.8635 29.9093 18.8635 30.3229V33.1878H18.8638ZM14.3611 30.8492C14.3611 30.6198 14.3213 30.4639 14.2415 30.3818C14.1614 30.2996 14.0233 30.2587 13.8271 30.2587H12.7637C12.6907 30.2587 12.6392 30.2733 12.6088 30.303C12.579 30.3325 12.5641 30.3867 12.5641 30.4658V31.4503H13.8168C14.0264 31.4503 14.1695 31.4075 14.2462 31.3223C14.3226 31.237 14.3611 31.0795 14.3611 30.8495V30.8492ZM15.0404 30.8545C15.0404 31.3204 14.9386 31.6354 14.7355 31.7993C14.5958 31.9109 14.4179 31.967 14.2015 31.967H12.5644V33.1878H11.9056V30.259C11.9056 30.0817 11.9481 29.9512 12.0329 29.8675C12.1176 29.7838 12.2465 29.7416 12.4197 29.7416H14.082C14.4014 29.7416 14.6327 29.8105 14.7759 29.9484C14.9522 30.1158 15.0407 30.4174 15.0407 30.8542L15.0404 30.8545ZM10.727 32.1685C10.727 31.9881 10.6922 31.8647 10.6224 31.7993C10.5525 31.7336 10.4377 31.7011 10.2781 31.7011H8.94523V32.4147C8.94523 32.5198 8.95362 32.5836 8.97038 32.6062C9.0005 32.649 9.08339 32.6704 9.21969 32.6704H10.2781C10.4411 32.6704 10.5566 32.6369 10.6252 32.5697C10.6932 32.5024 10.7273 32.3688 10.7273 32.1685H10.727ZM11.4063 32.1881C11.4063 32.5625 11.343 32.8201 11.2163 32.9612C11.0834 33.1121 10.8835 33.1878 10.6174 33.1878H8.7307C8.57732 33.1878 8.46121 33.1416 8.3808 33.0495C8.31808 32.9773 8.28641 32.8713 8.28641 32.7299V30.2435C8.28641 30.0761 8.32677 29.9512 8.40843 29.8675C8.49008 29.7838 8.60713 29.7416 8.76019 29.7416H11.2263V30.2587H9.17995C9.08991 30.2587 9.02844 30.2714 8.99522 30.2981C8.962 30.3241 8.94523 30.3818 8.94523 30.4704V31.184H10.6075C10.8869 31.184 11.0934 31.2693 11.2266 31.4401C11.3464 31.591 11.4066 31.8403 11.4066 32.1881H11.4063ZM6.91351 31.8536L6.34411 30.4506C6.30437 30.3557 6.27115 30.3083 6.24445 30.3083C6.21806 30.3083 6.18453 30.3557 6.14479 30.4506L5.57042 31.8536H6.91351ZM8.13646 33.1878H7.44255L7.08303 32.3164H5.4009L5.04665 33.1878H4.35244L5.6707 30.0916C5.73404 29.9438 5.80638 29.8421 5.88803 29.7863C5.96937 29.7302 6.08859 29.7026 6.24476 29.7026C6.39441 29.7026 6.51176 29.7314 6.59683 29.7888C6.68159 29.8464 6.75548 29.9472 6.81882 30.0916L8.13708 33.1878H8.13646ZM1.84632 32.3359V30.5392H1.45699C1.12728 30.5392 0.914603 30.6344 0.817736 30.825C0.757815 30.9397 0.72801 31.1381 0.72801 31.4205C0.72801 31.7057 0.753158 31.9044 0.803144 32.016C0.863065 32.1537 0.972661 32.2454 1.13255 32.2913C1.22911 32.3211 1.36913 32.3356 1.552 32.3356H1.84664L1.84632 32.3359ZM3.62346 31.4205C3.62346 31.1446 3.59179 30.9463 3.52876 30.825C3.42879 30.6344 3.21736 30.5392 2.89509 30.5392H2.50545V32.3359H2.80009C2.98296 32.3359 3.12298 32.3211 3.21954 32.2916C3.3757 32.2457 3.48561 32.154 3.54894 32.0163C3.59924 31.9044 3.62377 31.706 3.62377 31.4208L3.62346 31.4205ZM4.30246 31.4205C4.30246 31.8895 4.23602 32.2308 4.10282 32.4441C3.93331 32.7163 3.607 32.853 3.12453 32.853H2.50545V33.1875H1.84664V32.853H1.22756C0.744775 32.853 0.418782 32.7163 0.248954 32.4441C0.115762 32.2308 0.0490112 31.8895 0.0490112 31.4205C0.0490112 30.9577 0.12725 30.6164 0.283727 30.3963C0.387114 30.2488 0.525273 30.1471 0.698205 30.0916C0.847852 30.0451 1.06394 30.0228 1.34709 30.0228H1.84632V29.742H2.50514V30.0228H2.99941C3.28536 30.0228 3.50362 30.0454 3.65326 30.0916C3.82651 30.1471 3.96435 30.2491 4.06774 30.3963C4.22422 30.6164 4.30246 30.9577 4.30246 31.4205ZM71.1638 28.9512C71.0896 29.2032 70.9636 29.3858 70.7854 29.4986C70.6304 29.595 70.4252 29.6431 70.1697 29.6431C69.8937 29.6431 69.6767 29.5857 69.5186 29.471C69.3606 29.3566 69.2482 29.1834 69.1805 28.9512H69.6602C69.6872 29.0373 69.7344 29.1102 69.8015 29.17C69.8822 29.2401 70.0048 29.2745 70.17 29.2745C70.3383 29.2745 70.4625 29.2398 70.5435 29.17C70.6109 29.1102 70.6581 29.0373 70.6848 28.9512H71.1641H71.1638Z" fill="#4C4445"/>
<path fill-rule="evenodd" clip-rule="evenodd" d="M8.99495 2.66452C12.7724 -0.499521 16.0796 0.00079906 19.3671 2.68684C21.135 4.1317 23.3936 6.02851 24.634 8.21113L24.3573 8.26166C23.9736 8.26166 23.5483 8.1293 23.2629 7.87263C14.5226 0.00854874 7.01415 4.78267 4.1336 14.1325C2.90445 18.1233 5.35437 21.7356 9.39856 22.341C12.9969 22.8801 15.3875 22.9712 18.9415 22.341C25.7274 21.1373 25.7191 16.6958 21.7938 14.9593C18.7155 13.5975 13.9432 13.6189 9.67085 13.8179C9.72921 13.7047 9.78851 13.5919 9.84968 13.4797C10.0704 13.0739 10.4694 12.7909 10.9276 12.7308C16.6754 11.9762 23.8879 12.1529 27.0274 15.6335C30.2973 19.2575 28.5785 22.9356 23.2744 24.3224C17.97 25.709 10.8069 25.9028 4.57602 24.3224C0.819953 23.3705 -0.808465 20.4008 0.488681 15.6335C1.90815 10.4142 5.21684 5.82826 8.99433 2.66452H8.99495Z" fill="#D22630"/>
<path fill-rule="evenodd" clip-rule="evenodd" d="M69.7344 19.6537C69.9341 19.0278 70.5109 18.8009 71.0682 18.7634C82.8335 17.9707 72.4914 7.16146 68.9579 14.2977L66.9992 19.1732C66.191 21.0709 66.5754 23.142 68.2321 23.7291C69.7996 24.2898 71.6323 24.2136 77.7439 24.1584C78.3978 24.1528 78.9321 24.6789 78.9321 25.3317L68.4919 25.3314C65.5676 25.3314 63.2108 22.9042 63.3328 19.9571C63.3757 18.9178 63.7361 18.2355 64.1947 17.1239L65.8657 12.7642C67.722 8.11375 73.4626 8.14536 76.1823 10.3081C78.902 12.4709 82.935 20.0675 69.6286 20.0675L69.7344 19.6534V19.6537Z" fill="#D22630"/>
<path fill-rule="evenodd" clip-rule="evenodd" d="M43.5298 20.3842C43.568 22.742 44.7111 23.7414 46.5215 24.0945C47.0387 24.1958 47.4324 24.6186 47.4728 25.1438C47.4796 25.2312 47.4877 25.3267 47.497 25.4364H45.1082C42.2565 25.4364 39.9445 23.1282 39.9445 20.2807C39.9445 16.5298 39.9401 12.6742 39.9401 8.92334H41.1687C42.4698 8.92334 43.5248 9.97513 43.5248 11.2746C43.5251 14.2604 43.5295 17.5267 43.5295 20.3842H43.5298Z" fill="#D22630"/>
<path fill-rule="evenodd" clip-rule="evenodd" d="M41.8582 6.25929C43.0345 6.25929 43.9886 5.30669 43.9886 4.13184C43.9886 2.95699 43.0345 2.00439 41.8582 2.00439C40.6812 2.00439 39.7274 2.95699 39.7274 4.13184C39.7274 5.30669 40.6812 6.25929 41.8582 6.25929Z" fill="#D22630"/>
<path fill-rule="evenodd" clip-rule="evenodd" d="M52.0295 20.1942C52.0295 21.1849 52.6442 22.108 53.594 22.3932C54.3043 22.6068 55.1442 22.3464 55.7707 21.7172C55.997 21.4899 56.1699 21.2153 56.3087 20.9264L61.8348 9.40661C62.0468 9.10406 62.3927 8.92365 62.7625 8.92365H63.3527L58.3827 21.9394C57.2687 24.5709 54.8157 25.6537 52.6312 25.2399C50.1701 24.7736 48.4448 22.5343 48.4448 20.0333V8.92334H49.6588C50.968 8.92334 52.0298 9.98319 52.0298 11.2907V20.1942H52.0295Z" fill="#D22630"/>
<path fill-rule="evenodd" clip-rule="evenodd" d="M35.3042 20.2794C35.343 22.653 36.5014 23.6499 38.3328 23.9968C38.8423 24.0935 39.231 24.5067 39.2822 25.0216C39.2916 25.1121 39.3012 25.2123 39.3114 25.3316H36.8829C34.0316 25.3316 31.7195 23.0234 31.7195 20.1762C31.7195 16.425 31.7192 5.75525 31.7192 2.00439H33.9297C34.6888 2.00439 35.3042 2.61879 35.3042 3.37671V20.2791V20.2794Z" fill="#D22630"/>
<path fill-rule="evenodd" clip-rule="evenodd" d="M85.9978 13.9755C86.0409 9.69769 89.5968 10.2492 94.7357 10.118C94.7372 9.45869 94.2026 8.92334 93.5419 8.92334H87.5765C84.7252 8.92334 82.4131 11.2315 82.4131 14.0791C82.4131 17.8302 82.4128 21.5808 82.4128 25.3319H83.6491C84.9462 25.3319 85.9978 24.282 85.9978 22.9869V13.9758V13.9755Z" fill="#D22630"/>
</g>
<defs>
<clipPath id="clip0_131_249">
<rect width="94.6864" height="32.7487" fill="white" transform="translate(0.0493164 0.477539)"/>
</clipPath>
</defs>
</svg>
