<svg width="142" height="42" viewBox="0 0 142 42" fill="none" xmlns="http://www.w3.org/2000/svg">
<g clip-path="url(#clip0_131_324)">
<path d="M5.48483 34.5565V36.1533H4.73288C4.64361 35.739 4.50442 35.4332 4.31227 35.2374C4.12163 35.04 3.87048 34.9421 3.56031 34.9421C2.9763 34.9421 2.53602 35.2208 2.23796 35.7767C1.93839 36.3341 1.78861 37.1596 1.78861 38.2533C1.78861 39.2702 1.92629 40.04 2.19862 40.5642C2.47248 41.087 2.87342 41.3491 3.39994 41.3491C3.67076 41.3491 3.88863 41.3039 4.0596 41.2135C4.22754 41.1231 4.36371 40.989 4.46508 40.8098C4.56645 40.629 4.6542 40.3774 4.72683 40.0505H5.48483V41.7182C5.08086 41.8146 4.70867 41.8839 4.3743 41.9291C4.03842 41.9728 3.68892 41.9954 3.32883 41.9954C2.56174 41.9954 1.93537 41.8583 1.4497 41.5811C0.964028 41.3069 0.606963 40.8881 0.376989 40.3337C0.147015 39.7763 0.0320282 39.0713 0.0320282 38.2202C0.0320282 37.4233 0.168197 36.7303 0.437509 36.1398C0.709846 35.5507 1.10776 35.0958 1.63579 34.7764C2.16534 34.457 2.79474 34.2974 3.52854 34.2974C3.90225 34.2974 4.23964 34.3185 4.54073 34.3576C4.84484 34.3983 5.16105 34.4646 5.48786 34.5565H5.48483ZM6.35934 41.9065V41.5434C6.5999 41.5027 6.76028 41.4214 6.84349 41.2979C6.92671 41.1758 6.96756 40.9273 6.96756 40.5567V37.7954C6.96756 37.4142 6.92822 37.1596 6.84652 37.0331C6.76482 36.905 6.60293 36.8297 6.35934 36.8041V36.441H9.6516C10.3491 36.441 10.8695 36.5329 11.216 36.7152C11.5595 36.899 11.7335 37.2244 11.7335 37.6914C11.7335 38.0153 11.6139 38.294 11.3764 38.526C11.1389 38.7595 10.7909 38.9146 10.3324 38.996V39.0502C11.3068 39.2114 11.794 39.6619 11.794 40.3955C11.794 41.4018 11.0662 41.905 9.61377 41.905H6.35934V41.9065ZM8.56678 37.0406V38.7535H9.13718C9.75297 38.7535 10.0601 38.4567 10.0601 37.8616C10.0601 37.5152 9.95419 37.2801 9.74086 37.1581C9.52904 37.0361 9.13869 36.9954 8.56527 37.0391L8.56678 37.0406ZM8.56678 39.3877V41.2949C8.73321 41.3099 8.91326 41.3159 9.10995 41.3159C9.77112 41.3159 10.0994 40.9905 10.0994 40.3367C10.0994 39.704 9.78171 39.3892 9.14777 39.3892H8.5683L8.56678 39.3877ZM17.7476 40.9032C17.3709 41.2994 16.9987 41.5796 16.631 41.7453C16.2603 41.911 15.8382 41.9938 15.3586 41.9938C14.4992 41.9938 13.8516 41.7588 13.4189 41.2903C12.9847 40.8218 12.7699 40.1289 12.7699 39.2039C12.7699 38.6103 12.8818 38.0966 13.1042 37.6658C13.3266 37.2334 13.6444 36.9065 14.0529 36.6836C14.4629 36.4621 14.9395 36.3507 15.4811 36.3507C15.817 36.3507 16.112 36.3883 16.3632 36.4652C16.6159 36.542 16.8337 36.6489 17.0153 36.789C17.1938 36.9261 17.3451 37.0918 17.4631 37.2877C17.6023 37.5197 17.7082 37.7833 17.7794 38.0816C17.8535 38.3859 17.8928 38.755 17.8943 39.1888H14.3872C14.3918 39.8532 14.5098 40.3413 14.7443 40.6561C14.9788 40.971 15.3359 41.1276 15.8155 41.1276C16.0954 41.1276 16.3481 41.0749 16.5735 40.9695C16.7989 40.8655 17.0425 40.6817 17.3043 40.4166L17.7521 40.9017L17.7476 40.9032ZM16.2528 38.5938C16.2376 38.0319 16.1635 37.6146 16.0319 37.3374C15.9002 37.0632 15.6854 36.9261 15.3904 36.9261C15.1074 36.9261 14.8805 37.0692 14.7125 37.3555C14.5461 37.6417 14.4447 38.0545 14.4115 38.5953H16.2528V38.5938ZM18.4451 36.4395H24.0174V38.19H23.332C23.3139 37.7969 23.2458 37.5167 23.1293 37.351C23.0128 37.1837 22.807 37.0994 22.512 37.0994H22.0308V40.406C22.0308 40.858 22.0656 41.1532 22.1307 41.2888C22.1973 41.4244 22.3561 41.5088 22.6073 41.5419V41.905H19.8461V41.5419C20.1018 41.5012 20.2622 41.4124 20.3303 41.2768C20.3998 41.1412 20.4346 40.8504 20.4346 40.406V37.0994H19.9475C19.657 37.0994 19.4512 37.1837 19.3332 37.354C19.2137 37.5227 19.1456 37.8014 19.1274 38.19H18.4481V36.4395H18.4451Z" fill="#AB3146"/>
<path d="M38.4813 34.7478C38.2226 34.8171 38.0607 34.9135 37.9941 35.031C37.9276 35.1516 37.8943 35.4001 37.8943 35.7782V40.5236C37.8943 40.8942 37.9291 41.1412 37.9926 41.2648C38.0577 41.3868 38.2196 41.4787 38.4813 41.5434V41.9065H35.593V41.5434C35.8578 41.4802 36.0212 41.3958 36.0848 41.2858C36.1483 41.1789 36.1786 40.9228 36.1786 40.5236V35.0792H33.844V40.5236C33.844 40.8866 33.8788 41.1307 33.9454 41.2587C34.0135 41.3853 34.1799 41.4787 34.4401 41.5419V41.905H31.5352V41.5419C31.7909 41.4787 31.9528 41.3868 32.0224 41.2632C32.092 41.1397 32.1283 40.8927 32.1283 40.5221V35.7722C32.1283 35.3941 32.0935 35.1455 32.0284 35.0295C31.9619 34.9105 31.7985 34.8171 31.5352 34.7478V34.3848H38.4798V34.7478H38.4813ZM42.7192 41.905V41.5419C42.925 41.5269 43.0778 41.4561 43.1761 41.325C43.273 41.197 43.3214 40.9379 43.3214 40.5477V37.0723H42.2426C42.1216 38.2835 41.9355 39.2868 41.6828 40.0792C41.4316 40.8731 41.1638 41.3913 40.8749 41.6323C40.5874 41.8749 40.2485 41.9969 39.8566 41.9969C39.6161 41.9969 39.374 41.9592 39.1274 41.8854V40.617H39.7901C39.8128 40.9363 39.9323 41.096 40.1501 41.096C40.4633 41.096 40.7448 40.6245 40.9959 39.68C41.2471 38.7354 41.3711 38.0274 41.3711 37.5528C41.3711 37.2666 41.3227 37.0753 41.2229 36.9774C41.123 36.881 40.9959 36.8207 40.8416 36.7981V36.429H45.5122V36.7981C45.2761 36.8313 45.1173 36.9141 45.0386 37.0467C44.9599 37.1777 44.9191 37.4233 44.9191 37.7803V40.5447C44.9191 40.9348 44.963 41.1879 45.0507 41.3069C45.14 41.4229 45.2928 41.5013 45.5122 41.5389V41.902H42.7162L42.7192 41.905ZM52.0422 40.5492C52.0422 40.9348 52.0831 41.1849 52.1663 41.2994C52.2495 41.4124 52.3947 41.4937 52.6005 41.5419V41.905H49.9165V41.5419C50.1283 41.5013 50.2675 41.4109 50.3371 41.2693C50.4067 41.1262 50.443 40.8866 50.443 40.5492V38.4221L48.5503 40.852C48.5503 41.2572 48.7182 41.4862 49.0586 41.5419V41.905H46.3912V41.5419C46.6272 41.4862 46.777 41.3883 46.8391 41.2467C46.9011 41.1051 46.9329 40.7993 46.9329 40.3292V38.0259C46.9329 37.5092 46.8966 37.1913 46.8209 37.0708C46.7468 36.9518 46.603 36.8614 46.3897 36.8041V36.4411H49.0571V36.8041C48.8286 36.8584 48.6834 36.9578 48.6229 37.0994C48.5624 37.241 48.5321 37.5513 48.5321 38.0274V39.8743L50.4188 37.4504C50.4188 37.0828 50.2508 36.8674 49.915 36.8056V36.4426H52.5869V36.8056C52.3388 36.8795 52.186 36.9804 52.1285 37.1084C52.0695 37.238 52.0392 37.5468 52.0392 38.0334V40.5522L52.0422 40.5492ZM53.2269 36.4396H58.7992V38.1901H58.1138C58.0957 37.7969 58.0276 37.5167 57.9111 37.351C57.7946 37.1838 57.5888 37.0994 57.2938 37.0994H56.8127V40.4061C56.8127 40.858 56.8475 41.1533 56.9125 41.2889C56.9791 41.4244 57.138 41.5088 57.3891 41.5419V41.905H54.6279V41.5419C54.8836 41.5013 55.044 41.4124 55.1121 41.2768C55.1817 41.1412 55.2165 40.8505 55.2165 40.4061V37.0994H54.7293C54.4388 37.0994 54.233 37.1838 54.115 37.354C53.997 37.5227 53.9274 37.8014 53.9092 38.1901H53.2299V36.4396H53.2269ZM59.9612 37.7562C59.9612 37.4173 59.9219 37.1853 59.8402 37.0572C59.7585 36.9277 59.6026 36.8448 59.3696 36.8026V36.4396H62.0915V36.8026C61.8963 36.8358 61.7586 36.9156 61.6799 37.0437C61.6013 37.1702 61.5604 37.4067 61.5604 37.7562V38.8243H61.6663C61.9841 38.8243 62.2428 38.7475 62.447 38.5908C62.6498 38.4341 62.8359 38.1524 63.0068 37.7442C63.2716 37.1084 63.5258 36.7183 63.7694 36.5706C64.013 36.4245 64.3322 36.3507 64.7271 36.3507C64.9177 36.3507 65.1205 36.3733 65.3293 36.417V37.6342H64.6605C64.5955 37.4368 64.4775 37.3374 64.2989 37.3374C64.0856 37.3374 63.8965 37.5242 63.7346 37.8948C63.5364 38.3498 63.2882 38.6676 62.9947 38.8484V38.8921C63.5908 39.0292 64.0568 39.4133 64.3882 40.0445L64.6757 40.5838C64.8875 40.98 65.0524 41.2361 65.1689 41.3491C65.2884 41.4636 65.417 41.5254 65.5562 41.5374V41.9065H63.3382V41.5977L62.6679 40.1756C62.5121 39.8487 62.3668 39.6333 62.2337 39.5308C62.099 39.4299 61.916 39.3772 61.6845 39.3772H61.5619V40.3142C61.5619 40.7887 61.5937 41.096 61.6557 41.2376C61.7178 41.3777 61.8706 41.4802 62.1142 41.5434V41.9065H59.4014V41.5434C59.6404 41.4832 59.7887 41.3928 59.8417 41.2678C59.8961 41.1442 59.9355 40.8264 59.9612 40.3142V37.7577V37.7562ZM69.4128 41.1834L69.3311 41.1563C69.027 41.45 68.7335 41.6625 68.4475 41.7935C68.1631 41.9276 67.8575 41.9924 67.5367 41.9924C67.219 41.9924 66.9436 41.9336 66.7091 41.8191C66.4746 41.7031 66.2976 41.5419 66.1781 41.3356C66.0585 41.1307 65.998 40.8942 65.998 40.6245C65.998 40.0852 66.2643 39.6604 66.7969 39.35C67.3294 39.0397 68.1404 38.8439 69.2237 38.7625V38.2398C69.2237 37.8978 69.1844 37.6342 69.1072 37.4474C69.03 37.2636 68.9317 37.131 68.8091 37.0557C68.6881 36.9804 68.5413 36.9427 68.3734 36.9427C68.2039 36.9427 68.0557 36.9729 67.9331 37.0316C67.8091 37.0904 67.6971 37.2003 67.5972 37.3645C67.4989 37.5272 67.4263 37.7562 67.3763 38.0455H66.3324V37.0437C66.6698 36.893 66.9542 36.777 67.1781 36.6957C67.4036 36.6143 67.626 36.5495 67.8454 36.4938C68.0648 36.4411 68.2614 36.4034 68.4354 36.3808C68.6094 36.3597 68.7804 36.3492 68.9544 36.3492C69.4022 36.3492 69.7593 36.4079 70.0256 36.5254C70.2934 36.6414 70.4931 36.8343 70.6262 37.0979C70.7579 37.363 70.8244 37.7276 70.8244 38.1946V40.3443C70.8244 40.5868 70.8305 40.7736 70.8411 40.9062C70.8532 41.0373 70.8698 41.1352 70.894 41.2C70.9182 41.2663 70.9485 41.316 70.9848 41.3536C71.0226 41.3928 71.068 41.4244 71.121 41.447C71.1754 41.4711 71.2753 41.5013 71.4236 41.5389V41.902H69.3644L69.4128 41.1804V41.1834ZM69.2313 39.3049C68.6593 39.3199 68.2357 39.4269 67.9604 39.6242C67.6865 39.8231 67.5488 40.1123 67.5488 40.495C67.5488 40.7224 67.6109 40.8957 67.7379 41.0162C67.862 41.1352 68.036 41.1955 68.2569 41.1955C68.4264 41.1955 68.5867 41.1503 68.738 41.0599C68.8893 40.9695 69.0104 40.849 69.0966 40.6983C69.1859 40.5477 69.2313 40.388 69.2313 40.2193V39.3049Z" fill="#AB3146"/>
<path d="M84.3974 34.5565V36.1533H83.6455C83.5562 35.739 83.417 35.4332 83.2249 35.2374C83.0342 35.04 82.7831 34.9421 82.4729 34.9421C81.8889 34.9421 81.4486 35.2208 81.1506 35.7767C80.851 36.3341 80.7012 37.1596 80.7012 38.2533C80.7012 39.2702 80.8389 40.04 81.1112 40.5642C81.3851 41.087 81.786 41.3491 82.3125 41.3491C82.5834 41.3491 82.8012 41.3039 82.9722 41.2135C83.1402 41.1231 83.2763 40.989 83.3777 40.8098C83.4791 40.629 83.5668 40.3774 83.6394 40.0505H84.3974V41.7182C83.9935 41.8146 83.6213 41.8839 83.2869 41.9291C82.951 41.9728 82.6015 41.9954 82.2414 41.9954C81.4744 41.9954 80.848 41.8583 80.3623 41.5811C79.8766 41.3069 79.5196 40.8881 79.2896 40.3337C79.0596 39.7763 78.9446 39.0713 78.9446 38.2202C78.9446 37.4233 79.0808 36.7303 79.3501 36.1398C79.6225 35.5507 80.0204 35.0958 80.5469 34.7764C81.0764 34.457 81.7058 34.2974 82.4396 34.2974C82.8133 34.2974 83.1492 34.3185 83.4518 34.3576C83.7559 34.3983 84.0721 34.4646 84.399 34.5565H84.3974ZM88.6126 41.1834L88.5309 41.1563C88.2268 41.45 87.9333 41.6624 87.6473 41.7935C87.3629 41.9276 87.0588 41.9923 86.7365 41.9923C86.4188 41.9923 86.1434 41.9336 85.9089 41.8191C85.6744 41.7031 85.4974 41.5419 85.3779 41.3355C85.2583 41.1307 85.1978 40.8941 85.1978 40.6245C85.1978 40.0852 85.4641 39.6603 85.9967 39.35C86.5292 39.0397 87.3402 38.8438 88.4235 38.7625V38.2398C88.4235 37.8978 88.3842 37.6342 88.307 37.4474C88.2298 37.2636 88.1315 37.131 88.0089 37.0557C87.8879 36.9804 87.7411 36.9427 87.5732 36.9427C87.4022 36.9427 87.2555 36.9728 87.1329 37.0316C87.0089 37.0903 86.8969 37.2003 86.797 37.3645C86.6987 37.5272 86.6246 37.7562 86.5761 38.0454H85.5322V37.0436C85.8696 36.893 86.154 36.777 86.3779 36.6956C86.6034 36.6143 86.8258 36.5495 87.0452 36.4938C87.2645 36.4411 87.4612 36.4034 87.6352 36.3808C87.8092 36.3597 87.9817 36.3492 88.1542 36.3492C88.602 36.3492 88.9591 36.4079 89.2254 36.5254C89.4932 36.6414 89.6944 36.8342 89.826 37.0979C89.9577 37.363 90.0242 37.7276 90.0242 38.1946V40.3443C90.0242 40.5868 90.0303 40.7736 90.0409 40.9062C90.053 41.0372 90.0696 41.1352 90.0938 41.1999C90.118 41.2662 90.1483 41.3159 90.1846 41.3536C90.2224 41.3928 90.2678 41.4244 90.3208 41.447C90.3752 41.4711 90.4751 41.5012 90.6234 41.5389V41.902H88.5642L88.6141 41.1804L88.6126 41.1834ZM88.4311 39.3048C87.8591 39.3199 87.4355 39.4268 87.1602 39.6242C86.8863 39.823 86.7486 40.1123 86.7486 40.4949C86.7486 40.7224 86.8106 40.8956 86.9377 41.0162C87.0618 41.1352 87.2358 41.1954 87.4567 41.1954C87.6261 41.1954 87.7865 41.1502 87.9378 41.0598C88.0891 40.9695 88.2102 40.8489 88.2964 40.6983C88.3857 40.5477 88.4311 40.388 88.4311 40.2192V39.3048ZM96.9477 40.5898C96.9477 40.9303 96.99 41.1668 97.0717 41.2979C97.1534 41.4289 97.3108 41.5103 97.5438 41.5434V41.9065H94.8159V41.5434C95.0368 41.5103 95.1805 41.4244 95.2471 41.2858C95.3136 41.1487 95.3469 40.9167 95.3469 40.5898V39.4479H93.5268V40.5898C93.5268 40.9604 93.5661 41.2045 93.6433 41.322C93.7205 41.441 93.8612 41.5133 94.0624 41.5434V41.9065H91.3345V41.5434C91.5629 41.5103 91.7203 41.4289 91.8005 41.3009C91.8837 41.1713 91.9245 40.9333 91.9245 40.5898V37.7577C91.9245 37.3615 91.8776 37.1114 91.7854 37.009C91.6915 36.905 91.5402 36.8372 91.3345 36.8041V36.441H94.0563V36.8041C93.843 36.8342 93.7008 36.9111 93.6312 37.0361C93.5616 37.1626 93.5253 37.4007 93.5253 37.7577V38.7369H95.3454V37.7577C95.3454 37.357 95.3046 37.1039 95.2213 36.9984C95.1381 36.8915 95.0005 36.8282 94.8098 36.8041V36.441H97.5423V36.8041C97.3093 36.8372 97.1519 36.9201 97.0702 37.0542C96.987 37.1898 96.9461 37.4233 96.9461 37.7577V40.5898H96.9477ZM98.1157 36.441H103.688V38.1916H103.003C102.983 37.7984 102.916 37.5182 102.8 37.3525C102.683 37.1852 102.478 37.1009 102.183 37.1009H101.701V40.4076C101.701 40.8595 101.736 41.1548 101.801 41.2903C101.868 41.4259 102.027 41.5103 102.278 41.5434V41.9065H99.5167V41.5434C99.7724 41.5027 99.9328 41.4139 100.001 41.2783C100.07 41.1427 100.105 40.852 100.105 40.4076V37.1009H99.6181C99.3276 37.1009 99.1203 37.1852 99.0038 37.3555C98.8843 37.5242 98.8162 37.8029 98.798 38.1916H98.1187V36.441H98.1157ZM109.123 40.9047C108.747 41.3009 108.375 41.5811 108.006 41.7468C107.635 41.9125 107.213 41.9954 106.734 41.9954C105.874 41.9954 105.227 41.7603 104.794 41.2918C104.36 40.8233 104.145 40.1304 104.145 39.2054C104.145 38.6119 104.257 38.0982 104.479 37.6673C104.702 37.235 105.019 36.9081 105.428 36.6851C105.838 36.4636 106.315 36.3522 106.856 36.3522C107.192 36.3522 107.487 36.3898 107.738 36.4667C107.991 36.5435 108.209 36.6504 108.39 36.7905C108.569 36.9276 108.72 37.0933 108.838 37.2892C108.977 37.5212 109.083 37.7848 109.154 38.0831C109.229 38.3874 109.268 38.7565 109.269 39.1903H105.762C105.767 39.8547 105.885 40.3428 106.119 40.6576C106.354 40.9725 106.711 41.1291 107.191 41.1291C107.47 41.1291 107.723 41.0764 107.949 40.971C108.174 40.867 108.418 40.6832 108.679 40.4181L109.127 40.9032L109.123 40.9047ZM107.629 38.5953C107.614 38.0334 107.54 37.6161 107.408 37.3389C107.277 37.0647 107.062 36.9276 106.767 36.9276C106.484 36.9276 106.257 37.0707 106.089 37.357C105.923 37.6432 105.821 38.056 105.788 38.5968H107.629V38.5953ZM113.082 38.889L114.376 40.7179C114.498 40.8911 114.606 41.0342 114.701 41.1442C114.793 41.2572 114.887 41.3431 114.976 41.4063C115.067 41.4711 115.166 41.5148 115.273 41.5449V41.908H112.577V41.5449C112.805 41.5193 112.92 41.4229 112.92 41.2572C112.92 41.2135 112.914 41.1728 112.904 41.1337C112.893 41.096 112.875 41.0568 112.852 41.0192C112.831 40.98 112.786 40.9137 112.721 40.8173L112.096 39.924L111.513 40.635C111.389 40.7857 111.31 40.8971 111.279 40.9664C111.247 41.0357 111.232 41.1156 111.232 41.203C111.232 41.2918 111.267 41.3672 111.332 41.4289C111.398 41.4907 111.504 41.5299 111.646 41.5449V41.908H109.516V41.5449C109.675 41.5118 109.834 41.4304 109.994 41.3024C110.155 41.1728 110.35 40.9785 110.578 40.7179L111.736 39.4133L110.434 37.5829C110.353 37.4669 110.283 37.369 110.224 37.2937C110.165 37.2184 110.103 37.1476 110.041 37.0798C109.979 37.012 109.922 36.9593 109.873 36.9201C109.825 36.8824 109.776 36.8538 109.735 36.8372C109.692 36.8207 109.651 36.8101 109.611 36.8071V36.4441H112.289V36.8071C112.056 36.8538 111.94 36.9578 111.94 37.1159C111.94 37.1777 111.956 37.244 111.988 37.3118C112.023 37.3796 112.074 37.4654 112.149 37.5679L112.719 38.3784L113.283 37.6779C113.373 37.5664 113.435 37.4745 113.468 37.3992C113.504 37.3238 113.521 37.2455 113.521 37.1657C113.521 37.0617 113.483 36.9773 113.407 36.9141C113.332 36.8508 113.23 36.8147 113.1 36.8071V36.4441H115.211V36.8071C115.044 36.8493 114.892 36.9261 114.749 37.0421C114.61 37.1566 114.408 37.3751 114.141 37.6944L113.079 38.8905L113.082 38.889ZM121.399 40.5913C121.399 40.9318 121.441 41.1683 121.523 41.2994C121.605 41.4304 121.764 41.5118 121.995 41.5449V41.908H119.267V41.5449C119.488 41.5118 119.632 41.4259 119.698 41.2873C119.765 41.1502 119.798 40.9182 119.798 40.5913V39.4494H117.978V40.5913C117.978 40.9619 118.018 41.206 118.095 41.3235C118.172 41.4425 118.313 41.5148 118.514 41.5449V41.908H115.786V41.5449C116.014 41.5118 116.172 41.4304 116.252 41.3024C116.335 41.1728 116.376 40.9348 116.376 40.5913V37.7592C116.376 37.363 116.329 37.1129 116.237 37.0105C116.143 36.9065 115.992 36.8388 115.786 36.8056V36.4426H118.508V36.8056C118.294 36.8357 118.152 36.9126 118.083 37.0376C118.013 37.1641 117.977 37.4022 117.977 37.7592V38.7384H119.797V37.7592C119.797 37.3585 119.756 37.1054 119.673 36.9999C119.589 36.893 119.452 36.8297 119.261 36.8056V36.4426H121.994V36.8056C121.761 36.8388 121.603 36.9216 121.522 37.0557C121.438 37.1913 121.398 37.4248 121.398 37.7592V40.5913H121.399ZM128.525 40.5522C128.525 40.9378 128.566 41.1879 128.649 41.3024C128.732 41.4154 128.878 41.4967 129.083 41.5449V41.908H126.399V41.5449C126.611 41.5042 126.75 41.4139 126.82 41.2723C126.89 41.1291 126.926 40.8896 126.926 40.5522V38.4251L125.033 40.855C125.033 41.2602 125.201 41.4892 125.542 41.5449V41.908H122.874V41.5449C123.11 41.4892 123.26 41.3913 123.322 41.2497C123.384 41.1081 123.416 40.8022 123.416 40.3322V38.0289C123.416 37.5121 123.38 37.1943 123.304 37.0738C123.23 36.9548 123.086 36.8644 122.873 36.8071V36.4441H125.54V36.8071C125.312 36.8614 125.166 36.9608 125.106 37.1024C125.045 37.244 125.015 37.5543 125.015 38.0304V39.8773L126.902 37.4534C126.902 37.0858 126.734 36.8704 126.398 36.8086V36.4456H129.07V36.8086C128.822 36.8824 128.669 36.9834 128.611 37.1114C128.552 37.241 128.522 37.5498 128.522 38.0364V40.5552L128.525 40.5522ZM130.539 37.7592C130.539 37.4202 130.5 37.1883 130.418 37.0602C130.336 36.9306 130.18 36.8478 129.947 36.8056V36.4426H132.669V36.8056C132.474 36.8388 132.336 36.9186 132.258 37.0466C132.179 37.1732 132.138 37.4097 132.138 37.7592V38.8273H132.244C132.562 38.8273 132.821 38.7504 133.025 38.5938C133.228 38.4371 133.414 38.1554 133.585 37.7471C133.849 37.1114 134.104 36.7213 134.347 36.5736C134.591 36.4275 134.91 36.3537 135.305 36.3537C135.496 36.3537 135.698 36.3763 135.907 36.42V37.6372H135.238C135.173 37.4398 135.055 37.3404 134.877 37.3404C134.663 37.3404 134.474 37.5272 134.312 37.8978C134.114 38.3527 133.866 38.6706 133.573 38.8514V38.8951C134.169 39.0322 134.635 39.4163 134.966 40.0475L135.253 40.5868C135.465 40.983 135.63 41.2391 135.747 41.3521C135.866 41.4666 135.995 41.5284 136.134 41.5404V41.9095H133.916V41.6007L133.246 40.1786C133.09 39.8517 132.945 39.6362 132.811 39.5338C132.677 39.4329 132.494 39.3801 132.262 39.3801H132.14V40.3172C132.14 40.7917 132.171 41.099 132.234 41.2406C132.296 41.3807 132.448 41.4832 132.692 41.5464V41.9095H129.979V41.5464C130.218 41.4862 130.367 41.3958 130.419 41.2707C130.474 41.1472 130.513 40.8294 130.539 40.3172V37.7607V37.7592ZM139.991 41.1864L139.909 41.1593C139.605 41.453 139.311 41.6654 139.025 41.7965C138.741 41.9306 138.435 41.9954 138.115 41.9954C137.797 41.9954 137.521 41.9366 137.287 41.8221C137.052 41.7061 136.875 41.5449 136.756 41.3385C136.636 41.1337 136.576 40.8971 136.576 40.6275C136.576 40.0882 136.842 39.6634 137.375 39.353C137.907 39.0427 138.718 38.8469 139.801 38.7655V38.2428C139.801 37.9008 139.762 37.6372 139.685 37.4504C139.608 37.2666 139.509 37.134 139.387 37.0587C139.266 36.9834 139.119 36.9457 138.951 36.9457C138.782 36.9457 138.633 36.9758 138.511 37.0346C138.387 37.0933 138.275 37.2033 138.175 37.3675C138.077 37.5302 138.003 37.7592 137.954 38.0484H136.91V37.0466C137.248 36.896 137.532 36.78 137.756 36.6987C137.981 36.6173 138.204 36.5525 138.423 36.4968C138.643 36.4441 138.839 36.4064 139.013 36.3838C139.187 36.3627 139.358 36.3522 139.532 36.3522C139.98 36.3522 140.337 36.4109 140.603 36.5284C140.871 36.6444 141.071 36.8372 141.204 37.1009C141.336 37.366 141.402 37.7306 141.402 38.1976V40.3473C141.402 40.5898 141.408 40.7766 141.419 40.9092C141.431 41.0403 141.448 41.1382 141.472 41.203C141.496 41.2692 141.526 41.319 141.563 41.3566C141.6 41.3958 141.646 41.4274 141.699 41.45C141.753 41.4741 141.853 41.5043 142.001 41.5419V41.905H139.942L139.991 41.1834V41.1864ZM139.809 39.3078C139.237 39.3229 138.813 39.4299 138.538 39.6272C138.264 39.8261 138.127 40.1153 138.127 40.4979C138.127 40.7254 138.189 40.8987 138.316 41.0192C138.44 41.1382 138.614 41.1984 138.835 41.1984C139.004 41.1984 139.165 41.1532 139.316 41.0629C139.467 40.9725 139.588 40.852 139.674 40.7013C139.764 40.5507 139.809 40.391 139.809 40.2223V39.3078Z" fill="#AB3146"/>
<path fill-rule="evenodd" clip-rule="evenodd" d="M26.3593 41.9052V34.147H29.1961V41.9052H26.3593Z" fill="#AB3146"/>
<path fill-rule="evenodd" clip-rule="evenodd" d="M73.7642 41.9052V34.147H76.601V41.9052H73.7642Z" fill="#AB3146"/>
<path fill-rule="evenodd" clip-rule="evenodd" d="M-6.10352e-05 0H142V31.0149H-6.10352e-05V0Z" fill="#AB3146"/>
<path fill-rule="evenodd" clip-rule="evenodd" d="M109.723 17.7656L115.512 17.7159L115.492 14.7663L109.734 14.807L109.725 17.7671L109.723 17.7656ZM74.4284 21.9506L77.4347 21.9265C77.5769 20.6339 77.5602 6.89053 77.3968 6.41449C77.3651 6.39942 77.3212 6.38737 77.297 6.37984L74.386 6.33163L74.4284 21.9491V21.9506ZM61.5392 21.9521L72.2633 21.937L72.2345 19.3037L64.597 19.2706L64.5728 6.43256L61.509 6.44913L61.5392 21.9536V21.9521ZM95.9612 6.33916L95.8402 7.20387C95.7948 10.036 95.7509 20.8268 95.8916 21.9415L107.454 21.934L107.48 19.3504L98.9766 19.2962C98.8903 18.555 98.854 15.6566 99.0114 15.0314C101.028 15.0239 105.039 15.1098 106.607 14.9907L106.601 12.4463C104.777 12.2957 101.739 12.4268 99.7028 12.4343C98.9266 12.4373 98.9463 12.5111 98.9191 11.8106C98.8873 11.0107 98.8994 9.7784 98.9584 8.98299L107.169 8.95437L107.198 6.38134C105.298 6.21865 97.8857 6.23371 95.9597 6.34067L95.9612 6.33916ZM83.3293 12.1014C83.7287 12.2942 83.6379 12.261 83.886 12.6708C84.0116 12.8787 84.1115 13.0625 84.2643 13.3156L89.4977 21.9476L92.5434 21.943C92.7809 19.6909 92.5766 11.4265 92.5812 8.0987C92.5842 6.29849 92.793 6.35121 92.0743 6.28342C91.4253 6.22166 90.3404 6.21563 89.8291 6.38436C89.5446 7.02761 89.8336 15.0736 89.6853 16.5635C89.3812 16.3902 84.1886 7.42682 83.4927 6.30451L80.4395 6.34218L80.4712 21.9476L83.3202 21.9039L83.3293 12.0983V12.1014ZM120.243 10.5783C120.296 10.7064 120.322 10.8209 120.363 10.9775C120.932 13.1047 122.818 21.4188 123.106 21.94L126.026 21.9295C126.511 19.9334 127.018 18.0413 127.496 16.0257C127.616 15.524 128.661 10.5256 129.073 10.2484C129.08 13.9889 128.973 18.317 129.123 21.9506L131.932 21.946L131.919 6.31205L127.292 6.34218L124.585 16.8151C123.992 15.4216 122.21 7.00502 121.699 6.31054L117.296 6.37833C117.281 6.41298 117.267 6.45667 117.26 6.48529L117.184 6.82575C117.169 6.94476 117.172 7.20387 117.172 7.33342C117.182 10.5678 117.043 20.408 117.22 21.946L120.031 21.9295L120.24 10.5798L120.243 10.5783ZM20.212 22.2955H16.7927L15.4385 18.7418H9.15057L7.84789 22.2955H4.49057L10.5773 6.68565H13.9316L20.212 22.2955ZM14.4097 16.104L12.231 10.3268L10.1143 16.104H14.4097ZM21.9898 22.2955V6.81671H25.1655V19.6577H33.0255V22.2955H21.9898ZM37.1786 22.2955V9.32345H32.5368V6.68565H44.9735V9.32345H40.3529V22.2955H37.1786ZM59.527 22.2955H56.1076L54.7535 18.7418H48.4655L47.1628 22.2955H43.8055L49.8923 6.68565H53.245L59.5255 22.2955H59.527ZM53.7247 16.104L51.546 10.3268L49.4293 16.104H53.7247Z" fill="#FEFEFE"/>
<path fill-rule="evenodd" clip-rule="evenodd" d="M136.08 5.59946C137.659 5.4925 138.932 6.7052 139.03 8.16496C139.137 9.75427 137.924 11.0091 136.452 11.1146C134.871 11.2276 133.579 10.0013 133.491 8.5476C133.421 7.41022 134.001 6.42651 134.986 5.90075C135.299 5.73354 135.68 5.62809 136.08 5.60097V5.59946ZM136.046 5.12041C135.355 5.17163 134.656 5.43827 134.161 5.87364L133.952 6.06948C133.309 6.72027 132.945 7.58949 133.01 8.57019C133.123 10.286 134.607 11.7202 136.487 11.5937C138.205 11.4761 139.64 9.99832 139.514 8.13634C139.469 7.475 139.224 6.86489 138.847 6.3768C138.665 6.14179 138.464 5.94745 138.229 5.76668C138.009 5.59494 137.717 5.43526 137.449 5.33282C137.028 5.17163 136.547 5.08275 136.048 5.12041H136.046Z" fill="#FEFEFE"/>
<path fill-rule="evenodd" clip-rule="evenodd" d="M136.434 8.33244C136.487 8.30683 136.68 8.28574 136.906 8.17878C137.363 7.96034 137.606 7.40296 137.34 6.96156C137.172 6.68438 136.884 6.60453 136.464 6.58947C135.983 6.5729 135.465 6.6211 134.924 6.60152C134.88 6.60001 134.653 6.5744 134.626 6.60604C134.609 6.62713 134.61 6.72053 134.629 6.73861C134.653 6.76572 134.727 6.75518 134.762 6.75669C135.148 6.77928 135.102 6.8064 135.11 7.35475C135.116 7.73438 135.135 9.62347 135.089 9.81479C135.037 10.0242 134.789 9.90518 134.626 9.97146C134.609 10.0076 134.61 10.0784 134.627 10.1146C134.686 10.1402 135.24 10.1055 135.353 10.1055C135.461 10.1055 136.036 10.1507 136.075 10.1101C136.098 10.086 136.096 10.0106 136.081 9.97297C135.993 9.9323 135.788 9.97749 135.676 9.91121C135.586 9.85999 135.598 9.66264 135.597 9.54514C135.591 9.24535 135.592 8.94255 135.592 8.64126C135.592 8.31888 135.558 7.07907 135.627 6.85912C135.671 6.80188 136.851 6.55783 136.931 7.36379C136.963 7.68918 136.821 7.92268 136.642 8.04923C136.382 8.23151 136.167 8.2074 135.813 8.21192L135.791 8.28574L137.199 10.1176C137.314 10.1206 137.443 10.107 137.561 10.1055C137.668 10.104 137.866 10.1296 137.892 10.0995C137.894 10.098 137.951 9.97448 137.847 9.95791C137.812 9.95188 137.782 9.96092 137.723 9.94133C137.611 9.90518 137.494 9.747 137.426 9.65511C137.316 9.50295 137.205 9.36888 137.092 9.21522L136.434 8.33244Z" fill="#FEFEFE"/>
</g>
<defs>
<clipPath id="clip0_131_324">
<rect width="142" height="42" fill="white"/>
</clipPath>
</defs>
</svg>
