<svg width="95" height="88" viewBox="0 0 95 88" fill="none" xmlns="http://www.w3.org/2000/svg">
<g clip-path="url(#clip0_173_2)">
<path d="M48.1054 -9.54746e-06L32.1309 6.87354L32.3263 7.32822L48.3008 0.454676L48.1054 -9.54746e-06Z" fill="#A79C5D"/>
<path d="M48.3925 5.5049L51.6507 6.84486H56.8523L48.1036 2.88525L39.1122 6.84486H45.5684L48.3925 5.5049Z" fill="#A79C5D"/>
<path d="M47.7776 0.772757L63.8152 7.67811L63.8754 7.54674L63.4892 6.61634L48.1144 0L47.7776 0.772757Z" fill="#A79C5D"/>
<path d="M57.8781 49.3668C57.8781 49.3313 57.8781 49.2942 57.8781 49.2587C57.8781 47.6281 57.8781 47.6281 57.8781 47.6281V46.1924H56.2004C54.5226 46.1924 54.4624 43.8741 54.4624 43.8741V34.1064H52.6765V43.8741C52.6765 43.8741 52.6162 46.1924 50.9508 46.1924H50.8303C50.8303 46.1924 50.8179 46.1924 50.7577 46.1924V47.6281H56.0922V49.3668C56.0567 49.8985 55.7539 50.2478 55.38 50.4781H58.578C58.2165 50.2493 57.9137 49.8985 57.8781 49.3668Z" fill="#A79C5D"/>
<path d="M55.3553 23.0114C54.4269 23.6512 54.4747 24.8459 54.4747 24.8459V28.8302H52.6888V24.8954C52.6888 24.8954 52.6409 22.71 51.096 22.5771H44.9056C43.3607 22.6976 43.3128 24.8954 43.3128 24.8954V28.8302H41.5269V24.8459C41.5269 24.8459 41.5748 23.6512 40.6463 23.0114C39.7179 22.3715 43.2047 24.1952 43.3128 20.8384H52.678C52.7985 24.1952 56.2869 22.3715 55.3569 23.0114H55.3553Z" fill="#A79C5D"/>
<path d="M39.9094 49.3668C39.9449 49.8985 40.2354 50.2478 40.6093 50.4781H37.4113C37.7852 50.2493 38.0864 49.8861 38.1235 49.3668C38.1235 49.3313 38.1235 49.2942 38.1235 49.2587C38.1235 47.6281 38.1235 47.6281 38.1235 47.6281V46.1924H39.8013C41.479 46.1924 41.5269 43.8741 41.5269 43.8741V34.1064H43.3252V43.8741C43.3252 43.8741 43.3854 46.1924 45.0632 46.1924C45.1605 46.1924 45.1837 46.1924 45.1837 46.1924H45.2563V47.6281H39.9218V49.3668H39.9094Z" fill="#A79C5D"/>
<path d="M54.4392 30.1099V32.9954C54.1982 32.6214 53.8243 31.9089 53.2682 31.8486H48.9116V46.4816C48.9718 47.0364 49.7195 47.3996 50.095 47.6283H48.9116V47.5681H47.1257V47.6283H45.9423C46.3285 47.3872 47.0654 47.024 47.1257 46.4816V46.5295C47.1257 46.5048 47.1257 46.4816 47.1257 46.4445C47.1257 46.4568 47.1257 46.4692 47.1257 46.48V31.8471H42.7211C42.1665 31.9074 41.7927 32.6322 41.5501 32.9939V30.1084H54.4392V30.1099Z" fill="#A79C5D"/>
<path d="M48.9115 47.5679H47.1256V47.6281H48.9115V47.5679Z" fill="#A79C5D"/>
<path d="M48.9115 47.5679H47.1256V47.6281H48.9115V47.5679Z" fill="#A79C5D"/>
<path d="M48.1267 0.990723L32.8245 7.58234L32.9821 7.93162L48.1267 1.32919V0.990723Z" fill="#A79C5D"/>
<path d="M33.476 8.30826L32.1355 6.86816L31.8794 7.10671L33.22 8.54681L33.476 8.30826Z" fill="#A79C5D"/>
<path d="M63.2837 8.52344H33.2107V9.00564H63.2837V8.52344Z" fill="#A79C5D"/>
<path d="M48.1267 0.689453L32.6808 7.35371L32.4877 7.14816L32.619 7.60717L33.03 7.72772L35.4199 6.88233L48.1267 1.15929V0.689453Z" fill="#A79C5D"/>
<path d="M47.2214 0.544149L48.1267 0.785249V0.27832L47.2214 0.544149Z" fill="#A79C5D"/>
<path d="M48.1267 0.95371V0.27832L44.3371 1.93202L36.3361 5.30124L32.6808 7.17131L32.3301 7.32895L32.4027 7.4495L32.8245 7.67824L36.8073 5.9519L45.3027 2.53632L48.1267 0.95371Z" fill="#A79C5D"/>
<path d="M60.1955 16.3595C60.1955 16.3595 61.4268 17.9173 61.45 15.358C61.45 15.358 61.3047 14.8866 61.8964 13.7645C62.5005 12.6425 62.1498 11.6997 61.9814 11.1928C61.813 10.6859 61.8362 10.9393 61.8362 10.9393H60.1955V16.3595Z" fill="#A79C5D"/>
<path d="M63.5865 6.84521L62.2224 6.94258L61.4499 8.2099L61.2692 8.47573V9.56223H60.9077V11.457H62.2224H62.5963V10.0568H62.8852V9.65805H63.3085C63.3085 9.65805 63.4413 8.98266 63.8399 9.01821C64.0809 9.04293 64.4069 8.98266 64.4069 8.98266V8.8142L63.5865 6.84676V6.84521Z" fill="#A79C5D"/>
<path d="M36.8073 16.8538C36.8073 16.8538 37.9057 17.1429 37.9304 15.8153C37.9304 15.8153 37.7975 15.3207 38.329 14.1616C38.8604 13.0024 38.0154 12.0009 37.8578 11.4693C37.7002 10.9376 37.4716 11.2158 37.4716 11.2158L36.8073 11.2405V16.8538Z" fill="#A79C5D"/>
<path d="M37.7357 10.8774H36.8073V12.0721H37.7357V10.8774Z" fill="#A79C5D"/>
<path d="M57.9152 10.8774H37.7249V12.7614H57.9152V10.8774Z" fill="#A79C5D"/>
<path d="M34.6104 11.1431H34.1037V16.3592H34.6104V11.1431Z" fill="#A79C5D"/>
<path d="M58.8437 18.8213V42.6423L58.9998 42.8339H59.3381V18.8213H58.8437Z" fill="#A79C5D"/>
<path d="M33.459 10.848V11.1499H34.6055V10.848H33.459Z" fill="#A79C5D"/>
<path d="M34.0357 8.30713H33.4564V10.8912H34.0357V8.30713Z" fill="#A79C5D"/>
<path d="M33.4517 11.1431L34.5023 12.3269L34.4775 11.1431H33.4517Z" fill="#A79C5D"/>
<path d="M60.9077 16.8305C60.9077 16.8305 58.0836 17.036 57.9755 16.3591C57.855 15.6466 57.9755 15.2603 57.9755 15.2603H60.3654L60.9092 16.8305H60.9077Z" fill="#A79C5D"/>
<path d="M37.2414 16.866C37.2414 16.866 34.1284 17.0948 34.1037 16.4797C34.0682 15.7919 34.2968 15.2603 34.2968 15.2603H37.2059L37.2414 16.866Z" fill="#A79C5D"/>
<path d="M58.1671 10.8774H57.9137V15.5974H58.1671V10.8774Z" fill="#A79C5D"/>
<path d="M36.4581 17.5059H35.939V42.9187H36.4581V17.5059Z" fill="#A79C5D"/>
<path d="M39.2451 42.2913L38.0015 42.8338V17.4209H39.2451V42.2913Z" fill="#A79C5D"/>
<path d="M38.2795 18.8211V17.4209H57.2138L55.9115 18.8211H38.2795Z" fill="#A79C5D"/>
<path d="M34.0311 8.29491V6.84521L32.8245 7.67825L33.2107 8.56073L34.0311 8.29491Z" fill="#A79C5D"/>
<path d="M34.9364 52.5288L36.3855 53.9893H41.924V52.5288H34.9364Z" fill="#A79C5D"/>
<path d="M60.4241 52.5288H53.883V53.0126L54.8733 53.9893H60.4241V52.5288Z" fill="#A79C5D"/>
<path d="M54.5226 50.6572H41.3323V52.5288H54.5226V50.6572Z" fill="#A79C5D"/>
<path d="M60.7501 44.7549H60.1105V53.9909H60.7501V44.7549Z" fill="#A79C5D"/>
<path d="M35.372 44.2837H34.9008V50.7548H35.372V44.2837Z" fill="#A79C5D"/>
<path d="M34.9008 44.296L35.2871 44.5618L36.4457 42.9189H35.8788L34.9008 44.296Z" fill="#A79C5D"/>
<path d="M60.7378 44.888L59.1573 42.46L58.8437 42.6779V43.3177L60.1584 45.3223L60.7378 44.888Z" fill="#A79C5D"/>
<path d="M54.8733 53.9895L53.0627 52.1797L54.0885 52.2879L54.8733 53.9895Z" fill="#A79C5D"/>
<path d="M35.3226 14.4878V13.9082C35.3226 13.8603 35.3582 13.8232 35.4076 13.8232H35.8294C35.8773 13.8232 35.9143 13.8588 35.9143 13.9082V14.4878C35.9143 14.5357 35.8773 14.5728 35.8294 14.5728H35.4076C35.3597 14.5852 35.3226 14.5481 35.3226 14.4878Z" fill="#A79C5D"/>
<path d="M35.1774 12.9668L35.3226 13.993H35.9267L36.0719 12.9668H35.1774Z" fill="#A79C5D"/>
<path d="M58.8792 14.4878V13.9082C58.8792 13.8603 58.9148 13.8232 58.9642 13.8232H59.386C59.4339 13.8232 59.4709 13.8588 59.4709 13.9082V14.4878C59.4709 14.5357 59.4339 14.5728 59.386 14.5728H58.9642C58.9163 14.5852 58.8792 14.5481 58.8792 14.4878Z" fill="#A79C5D"/>
<path d="M58.7356 12.9668L58.8792 13.993H59.4833L59.6285 12.9668H58.7356Z" fill="#A79C5D"/>
<path d="M57.22 17.4287H56.8214V43.602H57.22V17.4287Z" fill="#A79C5D"/>
<path d="M60.7378 53.9894L61.7512 52.9756V45.5509L60.2789 43.2095V18.8213H59.3381V21.1998V43.0163L60.5446 45.4057L60.7378 53.9894Z" fill="#A79C5D"/>
<path d="M61.7512 52.9756V53.9894H60.4241L61.7512 52.9756Z" fill="#A79C5D"/>
<path d="M6.45614 79.1491H4.95913V77.3146H1.50782V79.1491H0V75.8046H0.217831C0.350692 75.6717 0.458835 75.5264 0.568523 75.358C0.664307 75.2019 0.761636 75.0195 0.834246 74.8031C0.919215 74.5976 0.954748 74.3565 0.979466 74.0783L1.63141 62.2227H5.72231V75.8046H6.47004V79.1491H6.45768H6.45614ZM1.8338 75.8046H4.19904V63.7311H3.01564L2.47338 74.0767C2.46103 74.3549 2.41313 74.5837 2.34052 74.7892C2.26791 74.9948 2.1953 75.1509 2.12424 75.2838C2.03927 75.4399 1.94348 75.5728 1.82298 75.6949V75.8031H1.83534L1.8338 75.8046Z" fill="black"/>
<path d="M12.0564 62.5733C12.4905 63.0199 12.7083 63.6242 12.7083 64.3846V75.1537C12.7083 75.9141 12.4905 76.5184 12.0564 76.9651C11.6223 77.4117 11.0429 77.6297 10.3431 77.6297C9.64325 77.6297 9.06391 77.4133 8.62979 76.9651C8.19568 76.5184 7.97784 75.9141 7.97784 75.1537V64.3846C7.97784 63.6242 8.19568 63.0199 8.62979 62.5733C9.06391 62.1266 9.64325 61.9087 10.3431 61.9087C11.0429 61.9087 11.6099 62.1266 12.0564 62.5733ZM11.199 75.1537V64.3846C11.199 63.7324 10.9101 63.4187 10.3415 63.4187C9.7622 63.4187 9.48412 63.7448 9.48412 64.3846V75.1537C9.48412 75.8059 9.77302 76.1197 10.3415 76.1197C10.9085 76.1321 11.199 75.8059 11.199 75.1537Z" fill="black"/>
<path d="M16.3759 67.403H16.2678L15.9418 77.3144H14.434L15.0844 62.2363H17.0155L18.1989 70.4214H18.3071L19.4904 62.2363H21.4324L22.0843 77.3144H20.5765L20.2505 67.403H20.1408L18.959 74.5139H17.5593L16.3759 67.403Z" fill="black"/>
<path d="M26.3931 62.2363H30.9181V63.7448H29.4103V77.3267H27.9009V63.7324H26.3931V62.2363Z" fill="black"/>
<path d="M37.1579 70.3117C37.1579 71.0721 36.9401 71.6764 36.506 72.1231C36.0719 72.5697 35.4925 72.7876 34.7927 72.7876H33.9353V77.3144H32.4275V62.2349H34.7927C35.4925 62.2349 36.0719 62.4528 36.506 62.8994C36.9401 63.3461 37.1579 63.9504 37.1579 64.7108V70.3117ZM35.6501 64.7108C35.6501 64.0586 35.3612 63.7448 34.7927 63.7448H33.9353V71.29H34.7927C35.372 71.29 35.6501 70.9639 35.6501 70.3241V64.7108Z" fill="black"/>
<path d="M40.4996 69.0211H42.443V70.5296H40.4996V75.8059H43.0826V77.3144H38.9917V62.2363H43.0826V63.7448H40.4996V69.0211Z" fill="black"/>
<path d="M44.0482 62.2363H48.5732V63.7448H47.0654V77.3267H45.556V63.7324H44.0482V62.2363Z" fill="black"/>
<path d="M54.7157 74.84C54.7157 75.6004 54.4979 76.2047 54.0638 76.6513C53.6297 77.098 53.0503 77.3159 52.3505 77.3159H50.081V62.2363H51.5888V67.6209H52.3366C53.0364 67.6209 53.6158 67.8388 54.0499 68.2855C54.484 68.7321 54.7018 69.3364 54.7018 70.0968V74.8415H54.7142L54.7157 74.84ZM53.2079 70.0953C53.2079 69.4431 52.919 69.1293 52.3505 69.1293H51.6027V75.8059H52.3505C52.9298 75.8059 53.2079 75.4798 53.2079 74.84V70.0953Z" fill="black"/>
<path d="M57.2015 62.8994C57.6356 62.4528 58.2149 62.2349 58.9148 62.2349H61.1719V77.3144H59.664V70.8557H58.9163C58.337 70.8557 58.0589 71.1818 58.0589 71.8217V74.9483C58.0589 75.7087 57.8411 76.3129 57.4069 76.7596C56.9728 77.2063 56.4414 77.4242 55.7894 77.4242V75.9158C56.0073 75.9158 56.188 75.8308 56.3332 75.6747C56.4785 75.5186 56.5495 75.2759 56.5495 74.939V71.8124C56.5495 71.4863 56.6098 71.2081 56.7303 71.0041C56.8508 70.7986 56.996 70.6301 57.152 70.5204C57.3204 70.3751 57.5135 70.2669 57.7314 70.1943V70.0861C57.5135 70.0134 57.3204 69.9052 57.152 69.76C56.9836 69.6271 56.8384 69.471 56.7179 69.2654C56.5974 69.0599 56.5495 68.794 56.5495 68.4695V64.7154C56.5495 63.955 56.7674 63.3507 57.2015 62.9041V62.8994ZM59.664 69.4431V63.7325H58.9163C58.337 63.7325 58.0589 64.0586 58.0589 64.6984V68.4648C58.0589 69.117 58.3478 69.4308 58.9163 69.4308H59.664V69.4431Z" fill="black"/>
<path d="M64.7329 77.3143H63.225V62.2347H64.7329V68.9114H65.2767C65.856 68.9114 66.1341 68.5852 66.1341 67.9454V64.6009C66.1341 63.8405 66.3519 63.2362 66.786 62.7896C67.2201 62.3429 67.7516 62.125 68.4035 62.125V63.6334C68.1857 63.6334 68.005 63.7184 67.8597 63.8745C67.7145 64.0322 67.6419 64.2733 67.6419 64.6117V67.9562C67.6419 68.2823 67.5817 68.5605 67.4735 68.7645C67.3654 68.9701 67.2325 69.1385 67.112 69.2467C66.956 69.392 66.7737 69.5002 66.5697 69.5728V69.681C66.8107 69.7537 67.0286 69.8618 67.2217 70.0071C67.3901 70.14 67.5477 70.2961 67.6682 70.5017C67.7887 70.7072 67.8613 70.9731 67.8613 71.2992V74.9574C67.8613 75.2835 67.9339 75.537 68.0791 75.6946C68.2243 75.8507 68.4051 75.9357 68.6214 75.9357V77.4441C67.9694 77.4441 67.4395 77.2262 67.0039 76.7796C66.5697 76.3329 66.3519 75.7286 66.3519 74.9682V71.31C66.3519 70.6578 66.063 70.344 65.4945 70.344H64.7468V77.3097H64.7344L64.7329 77.3143Z" fill="black"/>
<path d="M74.1938 62.5733C74.6279 63.0199 74.8458 63.6242 74.8458 64.3846V75.1537C74.8458 75.9141 74.6279 76.5184 74.1938 76.9651C73.7597 77.4117 73.1804 77.6297 72.4805 77.6297C71.7807 77.6297 71.2014 77.4133 70.7672 76.9651C70.3331 76.5184 70.1153 75.9141 70.1153 75.1537V64.3846C70.1153 63.6242 70.3316 63.0199 70.7672 62.5733C71.2014 62.1266 71.7807 61.9087 72.4805 61.9087C73.1927 61.9087 73.7597 62.1266 74.1938 62.5733ZM73.3488 75.1537V64.3846C73.3488 63.7324 73.0599 63.4187 72.4914 63.4187C71.912 63.4187 71.6339 63.7448 71.6339 64.3846V75.1537C71.6339 75.8059 71.9228 76.1197 72.4914 76.1197C73.0583 76.1321 73.3488 75.8059 73.3488 75.1537Z" fill="black"/>
<path d="M81.4224 68.0428C81.4224 68.3689 81.3745 68.6471 81.2772 68.8511C81.1814 69.0567 81.0717 69.2251 80.9512 69.3333C80.806 69.4786 80.6376 69.5868 80.4568 69.6594V69.7676C80.6747 69.8403 80.8802 69.9484 81.0609 70.1184C81.2185 70.2514 81.3498 70.4198 81.4718 70.6377C81.5924 70.8557 81.6402 71.1447 81.6402 71.4955V74.84C81.6402 75.6004 81.4224 76.2047 80.9883 76.6513C80.5542 77.098 79.9748 77.3159 79.275 77.3159H76.9098V62.2363H79.0572C79.757 62.2363 80.3364 62.4542 80.7705 62.9009C81.2046 63.3476 81.4224 63.9518 81.4224 64.7122V68.0444V68.0428ZM79.9146 64.7107C79.9146 64.0585 79.6257 63.7448 79.0572 63.7448H78.4052V69.0211H79.0572C79.6365 69.0211 79.9146 68.695 79.9146 68.0552V64.7107ZM78.4068 70.5296V75.8059H79.2642C79.8435 75.8059 80.1216 75.4798 80.1216 74.84V71.4955C80.1216 70.8433 79.8327 70.5296 79.2642 70.5296H78.4068Z" fill="black"/>
<path d="M87.5526 62.5733C87.9867 63.0199 88.2045 63.6242 88.2045 64.3846V75.1537C88.2045 75.9141 87.9867 76.5184 87.5526 76.9651C87.1184 77.4117 86.5391 77.6297 85.8393 77.6297C85.1394 77.6297 84.5601 77.4133 84.126 76.9651C83.6919 76.5184 83.474 75.9141 83.474 75.1537V64.3846C83.474 63.6242 83.6903 63.0199 84.126 62.5733C84.5601 62.1266 85.1394 61.9087 85.8393 61.9087C86.5391 61.9087 87.1184 62.1266 87.5526 62.5733ZM86.6951 75.1537V64.3846C86.6951 63.7324 86.4062 63.4187 85.8377 63.4187C85.2584 63.4187 84.9803 63.7448 84.9803 64.3846V75.1537C84.9803 75.8059 85.2692 76.1197 85.8377 76.1197C86.4171 76.1321 86.6951 75.8059 86.6951 75.1537Z" fill="black"/>
<path d="M91.8737 70.4214L93.4912 62.2364H94.999V77.3159H93.4912V69.1309H93.383L91.7655 77.3159H90.2577V62.2364H91.7655V70.4214H91.8737ZM90.8 58.7837H91.8737V59.0016C91.8737 59.2798 91.9463 59.4838 92.0915 59.6414C92.2367 59.7867 92.4175 59.8702 92.6353 59.8702C92.8516 59.8702 93.0339 59.7975 93.1776 59.6414C93.3228 59.4962 93.3954 59.2798 93.3954 59.0016V58.7837H94.4691V59.0016C94.4691 59.6059 94.3007 60.0757 93.9624 60.4266C93.624 60.7774 93.1776 60.9459 92.6353 60.9459C92.093 60.9459 91.645 60.7774 91.3082 60.4266C90.9699 60.0757 90.8015 59.6059 90.8015 59.0016V58.7837H90.8Z" fill="black"/>
<path d="M31.3167 84.7266H32.6561C32.9821 84.7266 33.2478 84.8225 33.4641 85.028C33.6819 85.2336 33.7901 85.487 33.7901 85.7884C33.7901 86.0898 33.6819 86.3432 33.4641 86.5488C33.2463 86.7544 32.9805 86.8502 32.6561 86.8502H32.0042V87.8888H31.329V84.7251H31.3167V84.7266ZM32.6314 85.3418H32.0042V86.2474H32.6314C32.7643 86.2474 32.8848 86.1995 32.9697 86.1145C33.0671 86.0295 33.1026 85.9213 33.1026 85.7884C33.1026 85.6555 33.0547 85.5597 32.9697 85.4623C32.8739 85.3897 32.7643 85.3418 32.6314 85.3418Z" fill="#12100B"/>
<path d="M36.2047 87.2875H37.8933V87.9026H35.5157V84.7266H37.8454V85.3432H36.2047V85.9831H37.4947V86.5982H36.2047V87.2875Z" fill="#12100B"/>
<path d="M41.1036 84.6665C41.272 84.6665 41.4296 84.6912 41.5748 84.7268C41.72 84.7747 41.8529 84.8226 41.9487 84.8829C42.0445 84.9431 42.1295 85.0034 42.2021 85.0637C42.2747 85.124 42.3349 85.1719 42.3596 85.2198L42.4075 85.2801L41.9734 85.7144C41.9611 85.702 41.9487 85.6896 41.9379 85.6664C41.9255 85.6417 41.89 85.6062 41.8297 85.5583C41.7818 85.5104 41.7216 85.4609 41.649 85.4253C41.5887 85.3898 41.5038 85.3527 41.3956 85.3172C41.2875 85.2816 41.1902 85.2692 41.082 85.2692C40.7808 85.2692 40.5382 85.3651 40.3343 85.5706C40.1412 85.7638 40.033 86.0173 40.033 86.3187C40.033 86.62 40.1288 86.8627 40.3343 87.0667C40.5397 87.2722 40.7808 87.3681 41.082 87.3681C41.2025 87.3681 41.3107 87.3557 41.408 87.3201C41.5161 87.2846 41.6011 87.2475 41.6737 87.212C41.7463 87.1764 41.8066 87.127 41.8545 87.079C41.9024 87.0311 41.9518 86.9941 41.975 86.9585L42.0105 86.9106L42.4214 87.3449C42.4091 87.3572 42.3967 87.3804 42.3735 87.4175C42.3488 87.4422 42.3009 87.5025 42.2175 87.5752C42.1325 87.6478 42.0491 87.7081 41.9518 87.7684C41.8545 87.8286 41.734 87.8765 41.5779 87.926C41.4203 87.9739 41.2643 87.9986 41.0944 87.9986C40.6124 87.9986 40.2014 87.841 39.8754 87.5164C39.5371 87.1903 39.3811 86.8039 39.3811 86.3449C39.3811 85.8859 39.5495 85.4995 39.8754 85.1734C40.2261 84.8226 40.6232 84.6665 41.1067 84.6665H41.1036Z" fill="#12100B"/>
<path d="M43.7948 84.7266H46.2806V85.3432H45.3753V87.9026H44.7001V85.3432H43.7948V84.7266Z" fill="#12100B"/>
<path d="M48.0541 87.4791C47.7158 87.153 47.5598 86.7666 47.5598 86.3076C47.5598 85.8486 47.7281 85.4622 48.0541 85.1361C48.3925 84.81 48.7895 84.6523 49.273 84.6523C49.7551 84.6523 50.166 84.81 50.492 85.1361C50.8303 85.4622 50.9863 85.8486 50.9863 86.3076C50.9863 86.7666 50.8179 87.153 50.492 87.4791C50.1536 87.8052 49.7566 87.9628 49.273 87.9628C48.7895 87.9628 48.3801 87.8052 48.0541 87.4791ZM48.5485 85.5719C48.3554 85.7775 48.2472 86.0186 48.2472 86.3091C48.2472 86.5982 48.3446 86.8516 48.5485 87.0448C48.7416 87.2504 48.9826 87.3462 49.273 87.3462C49.5619 87.3462 49.7921 87.2504 49.9976 87.0448C50.1907 86.8393 50.2989 86.5982 50.2989 86.3091C50.2989 86.0201 50.2031 85.7651 49.9976 85.5719C49.7921 85.3787 49.5635 85.2705 49.273 85.2705C48.9842 85.2705 48.754 85.3787 48.5485 85.5719Z" fill="#12100B"/>
<path d="M52.7614 84.7266H54.1009C54.4268 84.7266 54.6926 84.8225 54.9089 85.028C55.1267 85.2336 55.2348 85.487 55.2348 85.7884C55.2348 86.0898 55.1267 86.3432 54.9089 86.5488C54.691 86.7544 54.4268 86.8502 54.1009 86.8502H53.4489V87.8888H52.7738V84.7251H52.7614V84.7266ZM54.0653 85.3418H53.4381V86.2474H54.0653C54.1982 86.2474 54.3187 86.1995 54.4037 86.1145C54.4995 86.0295 54.5365 85.9213 54.5365 85.7884C54.5365 85.6555 54.4886 85.5597 54.4037 85.4623C54.3187 85.3897 54.2106 85.3418 54.0653 85.3418Z" fill="#12100B"/>
<path d="M58.5533 87.153H57.322L57.0439 87.901H56.3193L57.5614 84.7266H58.286L59.5296 87.901H58.8051L58.5517 87.153H58.5533ZM58.3246 86.5611L57.9384 85.5225L57.5522 86.5611H58.3246Z" fill="#12100B"/>
<path d="M63.8399 84.7266V87.9026H63.1633V86.6105H61.813V87.9026H61.1364V84.7266H61.813V85.9954H63.1633V84.7266H63.8399Z" fill="#12100B"/>
</g>
<defs>
<clipPath id="clip0_173_2">
<rect width="95" height="88" fill="white"/>
</clipPath>
</defs>
</svg>
