<svg width="119" height="49" viewBox="0 0 119 49" fill="none" xmlns="http://www.w3.org/2000/svg">
<g clip-path="url(#clip0_173_102)">
<path d="M52.1302 29.445C52.0321 29.615 51.983 29.8053 51.983 30.0166C51.983 30.2271 52.0321 30.4174 52.1302 30.5875C52.2276 30.7575 52.3635 30.8911 52.5364 30.9882C52.7093 31.0846 52.9032 31.1332 53.118 31.1332C53.4397 31.1332 53.7099 31.0166 53.9303 30.7842L54.1974 31.0457C54.0654 31.1955 53.9062 31.3089 53.7164 31.3866C53.5282 31.4643 53.3214 31.5032 53.0962 31.5032C52.8067 31.5032 52.5469 31.4376 52.3136 31.3097C52.082 31.1801 51.8994 31.0036 51.7675 30.7777C51.6356 30.5526 51.5688 30.2984 51.5688 30.0166C51.5688 29.7341 51.6356 29.4798 51.7675 29.2547C51.8994 29.0288 52.082 28.8523 52.316 28.7228C52.5493 28.5949 52.8107 28.5309 53.1003 28.5309C53.3255 28.5309 53.5314 28.569 53.7188 28.6443C53.9054 28.7212 54.0654 28.8337 54.1974 28.9827L53.9303 29.2442C53.7132 29.0143 53.4413 28.8993 53.118 28.8993C52.9032 28.8993 52.7093 28.9479 52.5364 29.0442C52.3627 29.1422 52.2267 29.2758 52.1302 29.445ZM60.1389 28.5633L61.4508 31.47H61.0173L60.6995 30.7437H59.1641L58.8472 31.47H58.4217L59.7287 28.5633H60.1381H60.1389ZM60.5548 30.4109L59.9322 28.9867L59.3097 30.4109H60.5548ZM66.366 29.7875C66.3556 30.1008 66.3322 30.3535 66.2961 30.5437C66.2607 30.7348 66.206 30.8781 66.1352 30.9737C66.0628 31.0692 65.9687 31.117 65.8497 31.117C65.8054 31.117 65.762 31.1113 65.7177 31.1L65.6888 31.47C65.7773 31.4918 65.8641 31.504 65.9486 31.504C66.1352 31.504 66.284 31.4408 66.3942 31.3145C66.5036 31.1882 66.584 31.0012 66.6355 30.7518C66.687 30.5024 66.7183 30.1761 66.7328 29.7745L66.761 28.9244H68.0398V31.4692H68.4436V28.5625H66.4103L66.3644 29.7867L66.366 29.7875ZM76.1 29.2547C76.2327 29.4798 76.2987 29.7341 76.2987 30.0166C76.2987 30.2984 76.2327 30.5526 76.1 30.7777C75.9681 31.0036 75.7855 31.1801 75.5523 31.3097C75.3182 31.4376 75.0568 31.5032 74.7688 31.5032C74.4777 31.5032 74.2139 31.4376 73.9806 31.3097C73.7465 31.1801 73.564 31.0028 73.4304 30.7753C73.2969 30.5494 73.2302 30.296 73.2302 30.0158C73.2302 29.7365 73.2969 29.4831 73.4304 29.2556C73.564 29.0288 73.7465 28.8507 73.9806 28.7212C74.2147 28.5933 74.4777 28.5293 74.7688 28.5293C75.0576 28.5293 75.3182 28.5933 75.5523 28.7212C75.7863 28.8507 75.9689 29.0272 76.1 29.2531V29.2547ZM75.8861 30.0166C75.8861 29.8053 75.837 29.615 75.7397 29.445C75.6415 29.2758 75.5088 29.1422 75.3399 29.0442C75.1702 28.9479 74.9796 28.8993 74.768 28.8993C74.5557 28.8993 74.3643 28.9479 74.1929 29.0442C74.0208 29.1422 73.8857 29.2758 73.7884 29.445C73.6902 29.615 73.6412 29.8053 73.6412 30.0166C73.6412 30.2271 73.6902 30.4174 73.7884 30.5875C73.8857 30.7575 74.02 30.8911 74.1929 30.9882C74.3643 31.0846 74.5565 31.1332 74.768 31.1332C74.9788 31.1332 75.1702 31.0846 75.3399 30.9882C75.5088 30.8911 75.6415 30.7575 75.7397 30.5875C75.837 30.4174 75.8861 30.2271 75.8861 30.0166ZM83.162 29.8126H81.5051V28.5633H81.0925V31.47H81.5051V30.1745H83.162V31.47H83.5746V28.5633H83.162V29.8126ZM97.0463 31.1081H95.8463V28.5633H95.4417V31.1081H94.2416V28.5633H93.833V31.47H97.4493V28.5633H97.0455V31.1081H97.0463ZM102.079 28.9244H103.065V31.4692H103.47V28.9244H104.46V28.5633H102.08V28.9244H102.079ZM111.677 29.2547C111.81 29.4798 111.875 29.7341 111.875 30.0166C111.875 30.2984 111.81 30.5526 111.677 30.7777C111.545 31.0036 111.363 31.1801 111.128 31.3097C110.894 31.4376 110.633 31.5032 110.345 31.5032C110.054 31.5032 109.79 31.4376 109.557 31.3097C109.323 31.1801 109.14 31.0028 109.007 30.7753C108.873 30.5494 108.806 30.296 108.806 30.0158C108.806 29.7365 108.872 29.4831 109.007 29.2556C109.14 29.0288 109.323 28.8507 109.557 28.7212C109.791 28.5933 110.054 28.5293 110.345 28.5293C110.633 28.5293 110.894 28.5933 111.128 28.7212C111.363 28.8507 111.545 29.0272 111.677 29.2531V29.2547ZM111.463 30.0166C111.463 29.8053 111.414 29.615 111.317 29.445C111.219 29.2758 111.086 29.1422 110.917 29.0442C110.748 28.9479 110.557 28.8993 110.346 28.8993C110.134 28.8993 109.941 28.9479 109.77 29.0442C109.598 29.1422 109.463 29.2758 109.366 29.445C109.268 29.615 109.219 29.8053 109.219 30.0166C109.219 30.2271 109.268 30.4174 109.366 30.5875C109.464 30.7575 109.598 30.8911 109.77 30.9882C109.941 31.0846 110.134 31.1332 110.346 31.1332C110.557 31.1332 110.748 31.0846 110.917 30.9882C111.087 30.8911 111.219 30.7575 111.317 30.5875C111.414 30.4174 111.463 30.2271 111.463 30.0166ZM118.677 28.8329C118.891 29.0127 118.999 29.2604 118.999 29.5762C118.999 29.8911 118.891 30.1397 118.677 30.3195C118.463 30.4992 118.169 30.5899 117.795 30.5899H117.081V31.47H116.669V28.5633H117.795C118.169 28.5633 118.463 28.6532 118.677 28.8329ZM118.586 29.5762C118.586 29.3657 118.517 29.2037 118.38 29.0928C118.242 28.9803 118.043 28.9244 117.782 28.9244H117.081V30.228H117.782C118.043 30.228 118.242 30.1721 118.38 30.0595C118.517 29.947 118.586 29.7859 118.586 29.5762ZM19.5775 36.8818V11.9563H13.8804V11.9644C15.4778 12.2024 17.228 13.5594 17.228 15.8532V35.3054C17.228 39.9868 19.8686 44.0432 23.7294 46.0609L23.7423 46.0423C21.1934 43.8206 19.5767 40.5423 19.5767 36.8818H19.5775ZM43.8159 36.8178C43.8159 40.8184 41.4335 44.2546 38.0207 45.7783L38.0271 45.7937C42.9126 44.2505 46.4597 39.6638 46.4597 34.2374V15.8532C46.4597 13.5635 48.2035 12.2073 49.7985 11.966V11.9563H43.8167V36.8178H43.8159ZM35.9053 47.4633C30.5276 47.4633 26.1681 43.0749 26.1681 37.6615V15.3723C26.1681 13.9222 26.9483 12.6607 28.1066 11.9757V11.9571H21.2746V36.8826C21.2746 43.5753 26.6644 49 33.3122 49C36.6139 49 39.6028 47.6584 41.7769 45.4917L41.7624 45.4747C40.1313 46.7167 38.1076 47.4641 35.9045 47.4641L35.9053 47.4633ZM-0.000671387 14.4954C0.317842 14.3343 0.68542 14.2015 1.10367 14.097C1.52031 13.9918 1.93776 13.9392 2.35521 13.9392H5.02396V22.184C5.02396 22.6042 4.97168 23.0236 4.86712 23.4438C4.76336 23.864 4.63145 24.234 4.47139 24.5555H7.63723C7.47716 24.2348 7.34526 23.8648 7.2415 23.4438C7.13774 23.0236 7.08465 22.6042 7.08465 22.184V13.9392H9.75422C10.1709 13.9392 10.5883 13.9918 11.0049 14.097C11.4224 14.2015 11.79 14.3343 12.1101 14.4954V11.9563H-0.000671387V14.4954ZM60.4035 22.5175H54.1829V14.3286C54.1829 13.9092 54.236 13.489 54.3397 13.0688C54.4435 12.6494 54.5754 12.2785 54.7355 11.9571H51.5696C51.7297 12.2777 51.8616 12.6494 51.9653 13.0688C52.0699 13.489 52.1222 13.9092 52.1222 14.3286V22.1848C52.1222 22.605 52.0699 23.0244 51.9653 23.4446C51.8616 23.8648 51.7297 24.2348 51.5696 24.5563H62.7594V21.9621C62.4409 22.1232 62.0733 22.2552 61.6551 22.3605C61.2384 22.4657 60.821 22.5183 60.4035 22.5183V22.5175ZM75.0037 22.5175H68.7822V14.3286C68.7822 13.9092 68.8353 13.489 68.9391 13.0688C69.0428 12.6494 69.1747 12.2785 69.3348 11.9571H66.1682C66.3282 12.2777 66.4601 12.6494 66.5639 13.0688C66.6685 13.489 66.7207 13.9092 66.7207 14.3286V22.1848C66.7207 22.605 66.6685 23.0244 66.5639 23.4446C66.4601 23.8648 66.3282 24.2348 66.1682 24.5563H77.3588V21.9621C77.0403 22.1232 76.6719 22.2552 76.2544 22.3605C75.8378 22.4657 75.4203 22.5183 75.0029 22.5183L75.0037 22.5175ZM83.7387 13.068C83.8433 12.6486 83.9752 12.2777 84.1344 11.9563H80.9686C81.1287 12.2769 81.2606 12.6486 81.3643 13.068C81.4697 13.4882 81.5212 13.9084 81.5212 14.3278V22.184C81.5212 22.6042 81.4697 23.0236 81.3643 23.4438C81.2606 23.864 81.1287 24.234 80.9686 24.5555H84.1344C83.9752 24.2348 83.8433 23.8648 83.7387 23.4438C83.6349 23.0236 83.5835 22.6042 83.5835 22.184V14.3278C83.5835 13.9084 83.6349 13.4882 83.7387 13.068ZM101.167 13.068C101.272 12.6486 101.404 12.2777 101.563 11.9563H98.4153C98.5753 12.2769 98.7073 12.6486 98.811 13.068C98.9156 13.4882 98.9678 13.9084 98.9678 14.3278V21.0909H98.9132L92.3611 13.9578C92.0297 13.5991 91.7812 13.2445 91.6155 12.8923C91.4506 12.5401 91.3549 12.2283 91.3308 11.9563H87.9437C88.1038 12.2769 88.2357 12.6486 88.3395 13.068C88.444 13.4882 88.4963 13.9084 88.4963 14.3278V22.184C88.4963 22.6042 88.444 23.0236 88.3395 23.4438C88.2357 23.864 88.1038 24.234 87.9437 24.5555H91.0911C90.9318 24.2348 90.7999 23.8648 90.6953 23.4438C90.5916 23.0236 90.5401 22.6042 90.5401 22.184V15.4395H90.5763L97.1469 22.554C97.4782 22.8997 97.7268 23.2527 97.8917 23.6106C98.0574 23.9693 98.1523 24.2842 98.1772 24.5555H101.563C101.405 24.2348 101.273 23.8648 101.168 23.4438C101.064 23.0236 101.012 22.6042 101.012 22.184V14.3278C101.012 13.9084 101.065 13.4882 101.168 13.068H101.167ZM114.766 17.2183C114.348 17.2183 113.932 17.1665 113.514 17.062C113.097 16.9568 112.729 16.824 112.41 16.6637V19.6643C112.728 19.504 113.097 19.3712 113.514 19.2659C113.932 19.1615 114.348 19.1097 114.766 19.1097H116.937V20.3873C116.937 20.8075 116.753 21.2091 116.385 21.5921C116.017 21.9751 115.505 22.2844 114.849 22.5183C114.192 22.7523 113.465 22.8706 112.667 22.8706C108.827 22.8706 106.907 21.3322 106.907 18.2571C106.907 16.7374 107.382 15.5884 108.333 14.8104C109.284 14.0323 110.71 13.6436 112.612 13.6436C113.655 13.6436 114.53 13.8193 115.235 14.1715C115.941 14.5229 116.404 15.0079 116.625 15.6257L118.264 13.5319C117.736 13.051 117.021 12.6178 116.119 12.2348C115.217 11.8518 114.048 11.6608 112.612 11.6608C107.373 11.6608 104.753 13.8525 104.753 18.2377C104.753 20.5606 105.446 22.2423 106.833 23.2859C108.22 24.3296 110.134 24.851 112.576 24.851C113.766 24.851 114.852 24.6688 115.834 24.3053C116.816 23.9409 117.588 23.4308 118.153 22.7766C118.717 22.1216 118.999 21.3678 118.999 20.5161V17.2183H114.766ZM36.8649 5.69517C37.033 5.86439 37.2429 5.9494 37.4955 5.9494C37.7271 5.9494 37.9371 5.86439 38.1261 5.69517L40.1876 3.59895C40.3774 3.42973 40.461 3.21841 40.461 2.96418C40.461 2.73099 40.3774 2.51967 40.1876 2.35045L38.1261 0.254234C37.9371 0.0850146 37.7271 0 37.4955 0C37.2429 0 37.033 0.0850146 36.8649 0.254234L34.7825 2.35045C34.6144 2.51967 34.5299 2.73099 34.5299 2.96418C34.5299 3.21841 34.6136 3.42973 34.7825 3.59895L36.8649 5.69517ZM25.6341 5.69517C25.8022 5.86439 26.0121 5.9494 26.2647 5.9494C26.4963 5.9494 26.7062 5.86439 26.8961 5.69517L28.9567 3.59895C29.1458 3.42973 29.2302 3.21841 29.2302 2.96418C29.2302 2.73099 29.1458 2.51967 28.9567 2.35045L26.8961 0.254234C26.7062 0.0850146 26.4963 0 26.2647 0C26.0121 0 25.8022 0.0850146 25.6341 0.254234L23.5517 2.35045C23.3836 2.51967 23.2991 2.73099 23.2991 2.96418C23.2991 3.21841 23.3827 3.42973 23.5517 3.59895L25.6341 5.69517Z" fill="black"/>
</g>
<defs>
<clipPath id="clip0_173_102">
<rect width="119" height="49" fill="white"/>
</clipPath>
</defs>
</svg>
