<svg width="173" height="40" viewBox="0 0 173 40" fill="none" xmlns="http://www.w3.org/2000/svg">
<g clip-path="url(#clip0_173_106)">
<path fill-rule="evenodd" clip-rule="evenodd" d="M163.864 12.7093V8.37923C163.864 7.44979 163.695 6.75223 163.355 6.28751C163.893 5.80937 164.537 5.56982 165.288 5.56982C166.024 5.56982 166.527 5.73847 166.796 6.07671C167.066 6.41399 167.2 6.92854 167.2 7.61843V12.1171C167.2 12.5962 167.264 12.9479 167.391 13.1731C167.518 13.3982 167.767 13.5103 168.135 13.5103C168.348 13.5103 168.588 13.4538 168.858 13.3417C169.127 13.2286 169.402 13.0466 169.687 12.7927V5.73751C169.928 5.69535 170.19 5.66373 170.473 5.64265C170.756 5.62157 171.046 5.61103 171.344 5.61103C171.641 5.61103 171.932 5.62157 172.215 5.64265C172.499 5.66373 172.761 5.69535 173.002 5.73751V16.2776L172.854 16.4251H171.601C170.737 16.4251 170.156 16.0026 169.858 15.1575C168.866 16.0304 167.882 16.4673 166.905 16.4673C165.913 16.4673 165.16 16.1262 164.643 15.443C164.126 14.7598 163.867 13.8486 163.867 12.7074L163.864 12.7093Z" fill="#CE1F42"/>
<path fill-rule="evenodd" clip-rule="evenodd" d="M158.086 8.20962L159.934 16.2143C160.33 16.2987 160.777 16.3408 161.273 16.3408C161.882 16.3408 162.662 16.2565 163.116 16.0869L163.222 15.9393C161.777 10.7009 161.097 7.28688 160.573 5.69533C159.85 5.61101 158.536 5.56885 157.736 5.56885C156.936 5.56885 156.365 5.67808 156.026 5.89655C155.686 6.11502 155.424 6.53374 155.24 7.15369L152.691 15.9824C153.384 16.2776 154 16.4261 154.539 16.4261C155.078 16.4261 155.495 16.3101 155.793 16.0773C156.09 15.8445 156.327 15.4507 156.451 14.8834L157.875 8.37826C157.899 8.26711 157.959 8.20866 158.088 8.20866L158.086 8.20962Z" fill="#CE1F42"/>
<path fill-rule="evenodd" clip-rule="evenodd" d="M151.614 12.097H146.069C146.097 12.7304 146.26 13.2238 146.558 13.5755C146.855 13.9271 147.344 14.1035 148.024 14.1035C148.363 14.1035 148.756 14.0546 149.204 13.9559C149.65 13.8572 150.164 13.6953 150.744 13.4701C151.211 13.9482 151.501 14.596 151.615 15.4133C150.483 16.2163 149.094 16.6168 147.452 16.6168C146.559 16.6168 145.812 16.4759 145.21 16.1942C144.608 15.9125 144.12 15.5177 143.744 15.0109C143.369 14.504 143.103 13.9051 142.948 13.2162C142.792 12.5263 142.715 11.7722 142.715 10.9558C142.715 10.1672 142.81 9.43803 143.001 8.76922C143.192 8.1004 143.483 7.51974 143.872 7.02627C144.261 6.53376 144.758 6.14665 145.359 5.86494C145.962 5.58324 146.666 5.44238 147.473 5.44238C148.153 5.44238 148.765 5.55545 149.311 5.78062C149.855 6.0058 150.32 6.31529 150.702 6.71007C151.085 7.10484 151.379 7.57627 151.584 8.12531C151.789 8.67436 151.893 9.27322 151.893 9.92096C151.893 10.7795 151.801 11.5058 151.616 12.097H151.614ZM146.048 9.81556H148.853V9.58272C148.853 9.06146 148.736 8.63219 148.502 8.29395C148.269 7.95667 147.918 7.78707 147.451 7.78707C146.998 7.78707 146.661 7.94613 146.441 8.26233C146.222 8.57949 146.091 9.09692 146.049 9.8146L146.048 9.81556Z" fill="#CE1F42"/>
<path fill-rule="evenodd" clip-rule="evenodd" d="M130.352 12.097H124.807C124.836 12.7304 124.998 13.2238 125.296 13.5755C125.592 13.9271 126.081 14.1035 126.761 14.1035C127.102 14.1035 127.495 14.0546 127.941 13.9559C128.387 13.8572 128.901 13.6953 129.481 13.4701C129.949 13.9482 130.239 14.596 130.352 15.4133C129.219 16.2163 127.831 16.6168 126.188 16.6168C125.295 16.6168 124.549 16.4759 123.946 16.1942C123.344 15.9125 122.855 15.5177 122.48 15.0109C122.105 14.504 121.839 13.9051 121.683 13.2162C121.527 12.5263 121.45 11.7722 121.45 10.9558C121.45 10.1672 121.545 9.43803 121.736 8.76922C121.928 8.1004 122.218 7.51974 122.608 7.02627C122.997 6.53376 123.492 6.14665 124.095 5.86494C124.696 5.58324 125.401 5.44238 126.208 5.44238C126.889 5.44238 127.501 5.55545 128.046 5.78062C128.592 6.0058 129.055 6.31529 129.438 6.71007C129.82 7.10484 130.114 7.57627 130.319 8.12531C130.524 8.67436 130.627 9.27322 130.627 9.92096C130.627 10.7795 130.535 11.5058 130.35 12.097H130.352ZM124.787 9.81556H127.591V9.58272C127.591 9.06146 127.475 8.63219 127.24 8.29395C127.006 7.95667 126.656 7.78707 126.189 7.78707C125.736 7.78707 125.4 7.94613 125.18 8.26233C124.96 8.57949 124.829 9.09692 124.787 9.8146V9.81556Z" fill="#CE1F42"/>
<path fill-rule="evenodd" clip-rule="evenodd" d="M82.3578 6.68899C83.3774 7.70275 83.8873 9.15345 83.8873 11.0401C83.8873 11.8852 83.7774 12.6528 83.5577 13.3427C83.3379 14.0325 83.0199 14.6199 82.6016 15.1057C82.1843 15.5915 81.6706 15.9643 81.0615 16.2258C80.4524 16.4865 79.7517 16.6168 78.9586 16.6168C78.1654 16.6168 77.4676 16.4836 76.8662 16.2153C76.2648 15.948 75.754 15.5714 75.3367 15.0856C74.9185 14.5998 74.6033 14.0115 74.3913 13.3216C74.1783 12.6317 74.0723 11.8709 74.0723 11.0401C74.0723 10.195 74.1783 9.43132 74.3913 8.74814C74.6043 8.06495 74.9156 7.47662 75.3261 6.98411C75.7367 6.4916 76.2465 6.1112 76.8556 5.84386C77.4647 5.57653 78.1654 5.44238 78.9586 5.44238C80.3608 5.44238 81.4942 5.85824 82.3578 6.68899ZM78.9798 7.91355C78.6685 7.91355 78.4169 7.98829 78.2251 8.13585C78.0343 8.28341 77.882 8.48463 77.7683 8.7376C77.6546 8.99152 77.5775 9.2828 77.5341 9.61434C77.4917 9.94491 77.4705 10.3004 77.4705 10.6808C77.4705 11.272 77.4879 11.7827 77.5235 12.212C77.5592 12.6413 77.6295 13.0006 77.7365 13.289C77.8425 13.5774 77.9919 13.792 78.1827 13.9329C78.3736 14.0738 78.6251 14.1447 78.9374 14.1447C79.56 14.1447 79.9705 13.8735 80.1691 13.3312C80.3676 12.7898 80.4669 12.0184 80.4669 11.0181C80.4669 10.0043 80.3676 9.23298 80.1691 8.70502C79.9705 8.17705 79.5744 7.91259 78.9798 7.91259V7.91355Z" fill="#CE1F42"/>
<path fill-rule="evenodd" clip-rule="evenodd" d="M137.684 4.25993C136.907 4.21873 136.575 4.12675 135.782 4.41133C135.136 4.64321 134.804 5.20662 134.651 5.88885L134.748 5.84478C135.357 5.57744 136.059 5.4433 136.852 5.4433C138.254 5.4433 139.388 5.85915 140.251 6.6899C141.271 7.70367 141.781 9.15436 141.781 11.041C141.781 11.8862 141.671 12.6537 141.451 13.3436C141.231 14.0335 140.913 14.6208 140.495 15.1066C140.077 15.5924 139.564 15.9652 138.955 16.2268C138.346 16.4874 137.645 16.6177 136.852 16.6177C136.059 16.6177 135.361 16.4845 134.76 16.2162C134.157 15.9489 133.648 15.5723 133.23 15.0865C132.812 14.6007 132.497 14.0124 132.285 13.3225C131.352 10.2908 131.474 3.8757 134.792 2.42117C136.35 1.73894 136.885 2.12317 138.302 1.71019C138.923 1.52909 139.038 1.31446 139.581 0.841115L139.769 0.678223C140.037 0.866986 140.297 1.10462 140.549 1.39112C140.852 1.73511 140.982 1.99861 141.025 2.37518C141.129 3.29791 140.218 3.93702 139.424 4.15932C138.736 4.35288 138.337 4.32796 137.684 4.25993ZM136.873 7.91447C136.562 7.91447 136.31 7.98921 136.12 8.13677C135.929 8.28433 135.776 8.48555 135.663 8.73851C135.55 8.99243 135.472 9.28372 135.43 9.61525C135.387 9.94583 135.366 10.3013 135.366 10.6817C135.366 11.2729 135.383 11.7836 135.419 12.2129C135.455 12.6422 135.525 13.0015 135.632 13.2899C135.738 13.5783 135.887 13.793 136.078 13.9338C136.269 14.0747 136.52 14.1456 136.832 14.1456C137.455 14.1456 137.866 13.8744 138.064 13.3321C138.263 12.7907 138.361 12.0193 138.361 11.019C138.361 10.0052 138.262 9.23389 138.064 8.70593C137.866 8.17797 137.47 7.91351 136.874 7.91351L136.873 7.91447Z" fill="#CE1F42"/>
<path fill-rule="evenodd" clip-rule="evenodd" d="M86.1771 7.11155L84.3383 16.0467C85.0322 16.3006 85.6345 16.4271 86.1444 16.4271C86.6677 16.4271 87.0435 16.314 87.27 16.0888C87.4965 15.8637 87.7625 15.2322 87.8415 14.7368L88.7475 9.05859C88.7677 8.93403 88.8188 8.86887 88.9171 8.86887L89.9753 16.1607C90.4707 16.2594 91.1222 16.3083 91.9298 16.3083C92.7375 16.3083 93.3813 16.2594 93.8632 16.1607L95.1903 9.08638C95.2134 8.96181 95.2616 8.89666 95.3609 8.89666L96.4701 16.176C96.8094 16.2747 97.2701 16.3236 97.8512 16.3236C98.5741 16.3236 99.2294 16.2326 99.5976 16.0486L99.7036 15.8368L97.8551 5.65319C97.3308 5.56887 96.2678 5.56982 95.3753 5.56982C94.4829 5.56982 93.9644 5.64073 93.6521 5.83812C93.3408 6.0355 93.0758 6.46669 92.9746 7.06939L91.9857 12.8971H91.8585C91.8441 12.784 91.8094 11.8833 91.4027 9.37192L90.808 5.69631C90.1286 5.61198 89.3778 5.56982 88.5557 5.56982C87.7346 5.56982 87.164 5.67523 86.846 5.88699C86.527 6.09874 86.3043 6.50693 86.1762 7.11251L86.1771 7.11155Z" fill="#CE1F42"/>
<path fill-rule="evenodd" clip-rule="evenodd" d="M98.3129 23.1862C97.5371 23.145 97.2046 23.053 96.4114 23.3376C95.7637 23.5704 95.4332 24.1329 95.2799 24.8151L95.3782 24.771C95.9873 24.5028 96.688 24.3696 97.4812 24.3696C98.8835 24.3696 100.017 24.7845 100.88 25.6152C101.9 26.629 102.41 28.0797 102.41 29.9663C102.41 30.8115 102.3 31.579 102.081 32.2689C101.861 32.9588 101.542 33.5471 101.125 34.0329C100.707 34.5187 100.194 34.8914 99.5841 35.153C98.975 35.4137 98.2744 35.543 97.4812 35.543C96.688 35.543 95.9902 35.4098 95.3888 35.1415C94.7875 34.8742 94.2767 34.4976 93.8593 34.0118C93.4411 33.526 93.1259 32.9377 92.9139 32.2478C91.981 29.2161 92.1034 22.801 95.4216 21.3465C96.9791 20.6642 97.5139 21.0485 98.9307 20.6365C99.5523 20.4554 99.667 20.2407 100.211 19.7674L100.398 19.6045C100.665 19.7933 100.926 20.0309 101.177 20.3174C101.48 20.6614 101.611 20.9249 101.653 21.3014C101.696 21.6771 101.557 22.137 101.153 22.4886C100.317 23.2169 99.3759 23.2974 98.3119 23.1862H98.3129ZM97.5024 26.8407C97.1911 26.8407 96.9395 26.9145 96.7478 27.0621C96.5569 27.2096 96.4047 27.4109 96.2909 27.6638C96.1772 27.9177 96.1001 28.209 96.0577 28.5406C96.0153 28.8711 95.9941 29.2276 95.9941 29.607C95.9941 30.1982 96.0114 30.7089 96.0471 31.1382C96.0828 31.5675 96.1531 31.9268 96.2601 32.2152C96.3661 32.5036 96.5155 32.7183 96.7063 32.8591C96.8971 33 97.1487 33.0709 97.4609 33.0709C98.0835 33.0709 98.4951 32.7997 98.6926 32.2574C98.8912 31.715 98.9904 30.9447 98.9904 29.9443C98.9904 28.9305 98.8912 28.1592 98.6926 27.6312C98.4941 27.1033 98.098 26.8398 97.5033 26.8398L97.5024 26.8407Z" fill="#CE1F42"/>
<path fill-rule="evenodd" clip-rule="evenodd" d="M146.265 24.8343C146.633 24.75 147.087 24.7078 147.625 24.7078C148.164 24.7078 148.687 24.7855 149.197 24.9397L149.282 25.1515L146.286 29.7565L149.643 34.8254C148.907 35.3179 148.177 35.5641 147.454 35.5641C146.676 35.5641 146.073 35.2335 145.648 34.5714L144.267 32.4807L142.568 35.3744C142.299 35.4587 141.836 35.5009 141.176 35.5009C140.518 35.5009 139.969 35.4166 139.53 35.247L139.424 35.0572L142.675 30.0095L139.659 25.3412C140.338 24.8621 141.089 24.6226 141.91 24.6226C142.307 24.6226 142.625 24.703 142.866 24.865C143.107 25.0269 143.348 25.2914 143.589 25.6574L144.714 27.3898L146.265 24.8343Z" fill="#CE1F42"/>
<path fill-rule="evenodd" clip-rule="evenodd" d="M103.607 31.783V27.453C103.607 26.5235 103.437 25.8269 103.097 25.3622C103.636 24.8831 104.28 24.6445 105.03 24.6445C105.767 24.6445 106.27 24.8132 106.539 25.1514C106.808 25.4887 106.942 26.0032 106.942 26.6931V31.1918C106.942 31.6709 107.006 32.0226 107.133 32.2478C107.261 32.4729 107.509 32.585 107.877 32.585C108.09 32.585 108.33 32.5285 108.6 32.4164C108.869 32.3043 109.145 32.1213 109.429 31.8674V24.8122C109.67 24.7701 109.932 24.7384 110.215 24.7174C110.499 24.6963 110.789 24.6857 111.087 24.6857C111.384 24.6857 111.675 24.6963 111.958 24.7174C112.241 24.7384 112.503 24.7701 112.744 24.8122V35.3523L112.596 35.4999H111.343C110.48 35.4999 109.898 35.0773 109.601 34.2322C108.609 35.1051 107.625 35.542 106.648 35.542C105.656 35.542 104.902 35.2009 104.386 34.5177C103.868 33.8345 103.61 32.9233 103.61 31.7821L103.607 31.783Z" fill="#CE1F42"/>
<path fill-rule="evenodd" clip-rule="evenodd" d="M86.9443 35.5851C86.2928 35.5851 85.6413 35.4376 84.9898 35.1415V37.9509C84.9898 38.683 84.8549 39.1975 84.586 39.4926C84.3171 39.7878 83.8429 39.9363 83.1625 39.9363H81.8874L81.739 39.7887V24.8343L81.8874 24.6867H82.7587C83.5663 24.6867 84.1677 25.0316 84.5648 25.7215C85.3724 24.9186 86.3564 24.5171 87.5178 24.5171C88.1124 24.5171 88.6367 24.6474 89.0897 24.908C89.5426 25.1687 89.9291 25.5376 90.2472 26.0167C90.5662 26.4957 90.8071 27.0726 90.97 27.7491C91.1329 28.4255 91.2138 29.1854 91.2138 30.0305C91.2138 30.8756 91.1039 31.6431 90.8842 32.333C90.6645 33.0229 90.3638 33.6074 89.9811 34.0856C89.5985 34.5647 89.1494 34.9336 88.6319 35.1942C88.1143 35.4548 87.5515 35.5851 86.9424 35.5851H86.9443ZM86.5405 27.1579C85.9459 27.1579 85.4283 27.4386 84.9898 28.002V32.6492C85.5276 32.9731 85.9883 33.135 86.3709 33.135C87.3337 33.135 87.8156 32.0724 87.8156 29.9462C87.8156 28.0873 87.3905 27.1579 86.5405 27.1579Z" fill="#CE1F42"/>
<path fill-rule="evenodd" clip-rule="evenodd" d="M80.5796 25.1725L77.9659 35.1003C77.5553 36.621 77.0098 37.7899 76.3304 38.6073C75.5516 39.5367 74.3546 40.0014 72.7403 40.0014C71.8768 40.0014 71.02 39.8606 70.17 39.5789C70.1275 39.1985 70.17 38.7731 70.2972 38.3007C70.4244 37.8292 70.6017 37.467 70.8282 37.2131C71.4653 37.4249 72.1033 37.5303 72.7403 37.5303C73.7879 37.5303 74.4828 36.9592 74.8221 35.819L74.9069 35.5238C73.6742 35.5238 72.9379 35.0802 72.6979 34.1929L70.2336 25.0891C70.8851 24.7931 71.4942 24.6455 72.0609 24.6455C72.6276 24.6455 73.041 24.7509 73.3032 24.9627C73.5653 25.1735 73.76 25.5395 73.8872 26.0608L74.8645 30.1158C74.9637 30.4962 75.1266 31.4257 75.3531 32.9041C75.3675 33.0028 75.4244 33.0517 75.5227 33.0517L77.3712 24.8563C77.7105 24.7576 78.1711 24.7087 78.7523 24.7087C79.4038 24.7087 79.9705 24.7864 80.4524 24.9406L80.5796 25.1725Z" fill="#CE1F42"/>
<path fill-rule="evenodd" clip-rule="evenodd" d="M67.8473 23.7361L67.8685 25.2989V35.3743C67.3866 35.4586 66.8132 35.5007 66.1482 35.5007C65.4822 35.5007 64.9232 35.4586 64.4693 35.3743V23.7361L63.1094 23.7572H60.8214C60.7366 23.349 60.6942 22.8804 60.6942 22.3525C60.6942 21.8245 60.7366 21.3559 60.8214 20.9478H71.5366C71.6503 21.3138 71.7072 21.7574 71.7072 22.2787C71.7072 22.7999 71.5655 23.1765 71.2822 23.4093C70.9988 23.6412 70.5458 23.7581 69.9223 23.7581H69.3064L67.8685 23.737H67.8473V23.7361Z" fill="#CE1F42"/>
<path fill-rule="evenodd" clip-rule="evenodd" d="M114.287 24.812C114.755 24.7277 115.293 24.6855 115.902 24.6855C116.511 24.6855 117.049 24.7277 117.516 24.812V25.7961V25.9456V26.095V26.2445V28.7732H120.001V24.8149C120.48 24.7287 121.033 24.6855 121.658 24.6855C122.283 24.6855 122.835 24.7287 123.314 24.8149V29.3979H123.325V32.7334C123.325 33.6762 123.502 34.3738 123.856 34.8241C123.318 35.3032 122.665 35.5418 121.901 35.5418C121.165 35.5418 120.663 35.3732 120.393 35.0349C120.124 34.6977 119.989 34.1831 119.989 33.4932V31.412H117.516V34.4169H117.503V35.3732C117.036 35.4575 116.498 35.4997 115.889 35.4997C115.28 35.4997 114.742 35.4575 114.275 35.3732V34.3891V34.2396V34.0902V33.9407V25.7673H114.287V24.8111V24.812Z" fill="#CE1F42"/>
<path fill-rule="evenodd" clip-rule="evenodd" d="M133.156 34.081C132.709 34.5649 132.151 34.929 131.499 35.1897C130.848 35.4503 130.133 35.5797 129.354 35.5797C127.74 35.5797 126.337 35.3401 125.147 34.861V24.8316L125.296 24.6841H126.549C127.201 24.6841 127.668 24.8316 127.952 25.1277C128.195 25.3816 128.333 25.7956 128.368 26.3695V27.9362C129.038 27.5606 129.774 27.3718 130.578 27.3718C131.824 27.3718 132.758 27.8749 133.393 28.8714C134.208 30.1506 134.499 32.6256 133.156 34.0791V34.081ZM128.355 33.1104C128.496 33.1382 128.67 33.1803 128.833 33.1947C128.995 33.2081 129.169 33.2158 129.353 33.2158C130.5 33.2158 130.947 32.4981 130.802 31.2965C130.699 30.4495 130.192 30.0193 129.578 30.0145C129.134 30.0107 128.729 30.1659 128.367 30.4677V32.1819L128.355 33.1114V33.1104Z" fill="#CE1F42"/>
<path fill-rule="evenodd" clip-rule="evenodd" d="M138.263 32.7334C138.263 33.6762 138.44 34.3738 138.794 34.8241C138.255 35.3032 137.604 35.5418 136.839 35.5418C136.103 35.5418 135.6 35.3732 135.331 35.0349C135.062 34.6976 134.927 34.1831 134.927 33.4932C134.927 30.5908 134.94 27.7182 134.94 24.8139C135.419 24.7277 135.971 24.6846 136.597 24.6846C137.221 24.6846 137.773 24.7277 138.253 24.8139C138.253 27.4633 138.264 30.0868 138.264 32.7324L138.263 32.7334Z" fill="#CE1F42"/>
<path d="M152.55 28.2359C152.089 27.7779 151.859 27.2183 151.859 26.5552C151.859 26.2294 151.918 25.9228 152.036 25.6334C152.155 25.3441 152.323 25.093 152.545 24.8793C152.766 24.6657 153.02 24.497 153.308 24.3734C153.596 24.2498 153.907 24.1885 154.239 24.1885C154.567 24.1885 154.878 24.2498 155.175 24.3734C155.472 24.497 155.728 24.6657 155.943 24.8793C156.158 25.093 156.325 25.3441 156.443 25.6334C156.561 25.9228 156.62 26.2294 156.62 26.5552C156.62 26.8867 156.558 27.1953 156.434 27.4818C156.31 27.7673 156.14 28.0174 155.925 28.2311C155.71 28.4448 155.458 28.6134 155.167 28.737C154.875 28.8606 154.567 28.9219 154.239 28.9219C153.573 28.9219 153.01 28.6929 152.55 28.2349V28.2359ZM152.986 25.2818C152.653 25.6315 152.486 26.055 152.486 26.5552C152.486 26.8024 152.53 27.0343 152.618 27.2508C152.707 27.4674 152.828 27.6571 152.986 27.82C153.144 27.9829 153.329 28.1123 153.541 28.2081C153.753 28.3049 153.986 28.3528 154.24 28.3528C154.489 28.3528 154.72 28.3049 154.935 28.2081C155.15 28.1123 155.336 27.9829 155.494 27.82C155.651 27.6571 155.776 27.4674 155.866 27.2508C155.957 27.0343 156.003 26.8024 156.003 26.5552C156.003 26.3147 155.958 26.0838 155.866 25.8643C155.776 25.6449 155.656 25.4523 155.508 25.2866C155.359 25.1208 155.173 24.9895 154.95 24.8937C154.725 24.7979 154.489 24.749 154.24 24.749C153.744 24.749 153.326 24.9272 152.986 25.2818ZM155.167 26.0589C155.167 26.354 155.016 26.5533 154.714 26.6549C154.81 26.6913 154.91 26.8082 155.013 27.0075L155.132 27.2422C155.193 27.3562 155.259 27.4415 155.331 27.4952C155.247 27.6341 155.132 27.7031 154.986 27.7031C154.841 27.7098 154.716 27.6159 154.614 27.4233L154.387 27.0075C154.32 26.8867 154.23 26.8273 154.114 26.8273H153.915V27.6581C153.811 27.6878 153.721 27.7031 153.642 27.7031C153.557 27.7031 153.463 27.6887 153.36 27.6581V25.4265L153.387 25.3996C153.581 25.3939 153.758 25.3891 153.919 25.3862C154.08 25.3833 154.224 25.3814 154.351 25.3814C154.606 25.3814 154.805 25.4427 154.951 25.5664C155.096 25.69 155.168 25.8538 155.168 26.0589H155.167ZM153.914 25.8059V26.4019C154.01 26.3894 154.102 26.3837 154.186 26.3837C154.271 26.3837 154.343 26.376 154.404 26.3607C154.465 26.3454 154.512 26.3204 154.545 26.284C154.578 26.2476 154.595 26.1873 154.595 26.1039C154.595 25.9046 154.483 25.8059 154.259 25.8059H153.914Z" fill="#CE1F42"/>
<path d="M105.062 16.2114L106.195 1.76284C106.822 1.64882 107.562 1.59229 108.417 1.59229C109.272 1.59229 110.021 1.64882 110.662 1.76284L111.922 6.96869C112.421 9.32008 112.685 10.6021 112.713 10.8149H112.863C112.92 10.4603 113.184 9.17827 113.654 6.96869L114.936 1.76284C115.562 1.64882 116.304 1.59229 117.158 1.59229C118.013 1.59229 118.761 1.64882 119.402 1.76284L120.534 16.2114C120.092 16.3244 119.548 16.381 118.9 16.381C118.251 16.381 117.721 16.3455 117.308 16.2756L116.966 10.3683C116.866 8.01694 116.809 6.38132 116.795 5.4605H116.667L114.551 14.1082C114.039 14.1934 113.451 14.2356 112.788 14.2356C112.126 14.2356 111.538 14.1934 111.025 14.1082L108.931 5.4605H108.781C108.781 6.72147 108.724 8.3571 108.611 10.3683L108.29 16.2756C107.876 16.3465 107.346 16.381 106.698 16.381C106.049 16.381 105.505 16.3244 105.063 16.2114H105.062Z" fill="#CE1F42"/>
<path fill-rule="evenodd" clip-rule="evenodd" d="M69.2775 13.9673H69.0289L69.0298 13.9759H65.6403L65.6422 13.9673H64.904L66.9896 5.27744C67.1177 5.27744 67.1958 5.36176 67.2247 5.53232C67.51 7.16124 67.7798 8.45096 68.0372 9.39957L69.2785 13.9673H69.2775ZM61.7399 13.9759H60.6952C60.6952 15.3672 60.6952 16.7585 60.6952 18.1488L60.8504 18.3031H61.7216C62.3991 18.3031 62.8781 18.1488 63.1586 17.8412C63.3359 17.6467 63.4573 17.3593 63.5229 16.9808H71.0364C71.101 17.3593 71.2224 17.6467 71.3997 17.8412C71.6802 18.1488 72.1582 18.3031 72.8367 18.3031H73.708L73.8622 18.1488C73.8622 16.7575 73.8622 15.3672 73.8622 13.9759H72.8338L70.2982 4.81943H70.3001L70.17 4.35471L70.0254 3.83345L70.0061 3.77308L69.6293 2.43066C69.0327 2.36838 68.4342 2.32909 67.8338 2.31185H67.83H67.8242C67.6989 2.3061 67.5659 2.30322 67.4281 2.30322L67.4184 2.30418L67.1823 2.30322C66.3631 2.30322 65.7723 2.40575 65.408 2.61176C65.0447 2.81681 64.771 3.22404 64.5859 3.83345L64.4279 4.40453L61.7409 13.9759H61.7399Z" fill="#CE1F42"/>
<path fill-rule="evenodd" clip-rule="evenodd" d="M21.0044 0C19.6966 0 18.6287 1.06167 18.6287 2.36194C18.6287 3.6622 19.6966 4.72387 21.0044 4.72387C22.3123 4.72387 23.3801 3.6622 23.3801 2.36194C23.3801 1.06167 22.3123 0 21.0044 0ZM3.87732 28.2465H8.85422L6.40239 19.1456C6.26554 18.6387 6.17012 18.1299 6.1123 17.624C5.14757 18.3493 4.36981 19.2002 3.80793 20.1181C2.87019 21.6484 2.54636 23.3654 2.98198 24.9647L3.87732 28.2465ZM5.56488 34.4325H36.443L37.4039 30.9112H4.604L5.56488 34.4325ZM35.965 37.2161H6.04387L6.04098 39.9996H3.25858L3.26148 37.1385C3.25762 36.5616 3.19016 36.3489 3.088 35.9446L0.288254 25.6795C-0.352651 23.33 0.0974285 20.8502 1.43032 18.6751C2.50685 16.9159 4.17031 15.3569 6.29927 14.2416C6.52768 13.2326 6.90644 12.2687 7.4182 11.3814C8.72893 9.10376 10.9109 7.32631 13.6393 6.58755L13.7434 6.56551C14.8585 6.35279 16.043 6.1899 17.2852 6.07779C18.5314 5.96569 19.7766 5.90819 21.0054 5.90819C22.2342 5.90819 23.4794 5.96569 24.7265 6.07779C25.9678 6.1899 27.1523 6.35279 28.2674 6.56551L28.3715 6.58755C31.1008 7.32631 33.2819 9.10376 34.5935 11.3814C35.1043 12.2696 35.4841 13.2336 35.7115 14.2416C37.8405 15.3569 39.5039 16.9159 40.5805 18.6751C41.9133 20.8512 42.3634 23.3309 41.7225 25.6795L38.9228 35.9446C38.8197 36.3489 38.7522 36.5616 38.7493 37.1385L38.7522 39.9996H35.9698L35.9669 37.2161H35.965ZM11.7426 28.2465H30.2653L32.9108 18.4298C33.4486 16.4368 33.1238 14.416 32.1697 12.7592C31.2175 11.1073 29.6388 9.81569 27.6641 9.27431C26.6261 9.0798 25.5582 8.93128 24.474 8.8345C23.3878 8.73677 22.2265 8.68694 21.0044 8.68694C19.7824 8.68694 18.621 8.73773 17.5349 8.8345C16.4506 8.93224 15.3828 9.0798 14.3448 9.27431C12.37 9.81569 10.7914 11.1073 9.84015 12.7592C8.88602 14.416 8.56123 16.4358 9.09901 18.4298L11.7426 28.2465ZM33.1537 28.2465H38.1315L39.0269 24.9647C39.4625 23.3645 39.1387 21.6484 38.2009 20.1181C37.639 19.2002 36.8613 18.3493 35.8965 17.624C35.8397 18.1299 35.7433 18.6387 35.6065 19.1456L33.1546 28.2465H33.1537Z" fill="#CE1F42"/>
</g>
<defs>
<clipPath id="clip0_173_106">
<rect width="173" height="40" fill="white"/>
</clipPath>
</defs>
</svg>
