<svg width="160" height="55" viewBox="0 0 160 55" fill="none" xmlns="http://www.w3.org/2000/svg">
<g clip-path="url(#clip0_173_134)">
<path d="M8.37068 34.3531H7.39128V27.4744L3.34959 34.3531H2.35437V26.02H3.33377V32.7275L7.2757 26.02H8.37068V34.3531Z" fill="#5B5B5B"/>
<path d="M19.8862 34.3531V26.9148H17.0563V26.02H23.7016V26.9148H20.8705V34.3531H19.8862Z" fill="#5B5B5B"/>
<path d="M37.5762 34.3531H32.386V26.02H37.5762V26.9148H33.3703V29.3428H37.4716V30.2387H33.3703V33.4583H37.5762V34.3531Z" fill="#5B5B5B"/>
<path d="M52.5531 34.353H51.5676V26.8977H48.5954L48.4676 30.155C48.4007 31.2415 48.2754 32.0707 48.088 32.6425C47.8909 33.2446 47.6014 33.7048 47.2193 34.0204C46.9444 34.2523 46.6122 34.3688 46.2241 34.3688C46.1706 34.3688 46.0854 34.3652 45.9638 34.3591L45.7472 34.353V33.3855H45.8214C45.8749 33.3928 45.9698 33.3952 46.1073 33.3952C46.2764 33.3952 46.4334 33.3575 46.5782 33.2799C46.7229 33.2022 46.8616 33.031 46.9967 32.7651C47.1305 32.4992 47.2473 32.0707 47.3459 31.4819C47.4444 30.8919 47.5101 30.2752 47.5417 29.6341C47.5734 28.9919 47.6147 27.7876 47.6683 26.0176H52.5519V34.3518L52.5531 34.353Z" fill="#5B5B5B"/>
<path d="M62.0941 34.3533V26.019H63.0795V29.303H64.9301C66.0591 29.303 66.8511 29.5203 67.3062 29.9537C67.7612 30.3871 67.9887 30.9941 67.9887 31.7759C67.9887 32.5723 67.7186 33.2012 67.1772 33.6613C66.6358 34.1226 65.8754 34.3533 64.8984 34.3533H62.0928H62.0941ZM63.0795 30.1783V33.4792H64.5602C65.5019 33.4792 66.137 33.3311 66.4679 33.0337C66.7964 32.7374 66.9618 32.3259 66.9618 31.7978C66.9618 31.3619 66.867 31.0196 66.6759 30.7695C66.4849 30.5182 66.2513 30.3567 65.9739 30.2863C65.6978 30.2135 65.2366 30.1783 64.5906 30.1783H63.0783H63.0795Z" fill="#5B5B5B"/>
<path d="M84.804 36.2409H83.8769V34.3324H78.1745V36.2409H77.2474V33.4583H77.8727C78.3484 32.6207 78.7219 31.5462 78.9896 30.2363C79.2573 28.9264 79.3911 27.5205 79.3911 26.02H84.0582V33.4595H84.804V36.2421V36.2409ZM83.0739 33.4583V26.8917H80.317C80.2221 29.6803 79.7257 31.8692 78.8302 33.4583H83.0739Z" fill="#5B5B5B"/>
<path d="M99.7784 34.3531H98.8002V27.4744L94.7585 34.3531H93.7633V26.02H94.7427V32.7275L98.6834 26.02H99.7784V34.3531Z" fill="#5B5B5B"/>
<path d="M108.692 34.0278V32.8332H108.772C109.58 33.3516 110.403 33.6126 111.244 33.6126C111.924 33.6126 112.447 33.4524 112.814 33.1331C113.181 32.8138 113.365 32.378 113.365 31.8244C113.365 30.7888 112.655 30.2704 111.237 30.2704H110.142V29.4182H111.12C111.766 29.4182 112.271 29.2919 112.633 29.0394C112.997 28.7869 113.179 28.4288 113.179 27.965C113.179 27.5705 113.022 27.2706 112.711 27.0666C112.4 26.8615 111.963 26.7583 111.401 26.7583C110.615 26.7583 109.827 27.0193 109.036 27.5389H108.965V26.3504C109.689 26.0287 110.481 25.8672 111.343 25.8672C112.234 25.8672 112.929 26.0456 113.427 26.3989C113.924 26.7522 114.173 27.2439 114.173 27.8703C114.173 28.3304 114.035 28.7274 113.76 29.0564C113.485 29.3866 113.114 29.6039 112.648 29.712V29.8006C113.806 30.0252 114.384 30.7148 114.384 31.8681C114.384 32.588 114.107 33.2072 113.554 33.7243C113.001 34.2427 112.212 34.5013 111.188 34.5013C110.272 34.5013 109.44 34.3435 108.69 34.0266L108.692 34.0278Z" fill="#5B5B5B"/>
<path d="M128.637 34.3533L127.816 31.975H124.356L123.537 34.3533H122.536L125.487 26.019H126.74L129.688 34.3533H128.636H128.637ZM127.52 31.1179L126.085 27.0085L124.658 31.1179H127.519H127.52Z" fill="#5B5B5B"/>
<path d="M144.364 34.3531H143.385V27.4733L139.342 34.3531H138.348V26.0189H139.327V32.7276L143.269 26.0189H144.364V34.3531ZM143.406 23.5508C143.388 24.1457 143.207 24.6021 142.865 24.9263C142.52 25.2492 142.04 25.4094 141.422 25.4094C140.807 25.4094 140.33 25.2468 139.988 24.9226C139.645 24.5985 139.468 24.1408 139.448 23.5508H140.347C140.373 24.3593 140.731 24.7624 141.422 24.7624C142.12 24.7624 142.481 24.3593 142.506 23.5508H143.405H143.406Z" fill="#5B5B5B"/>
<path d="M160 34.3531H159.018V30.2327H154.891V34.3531H153.906V26.02H154.891V29.3428H159.018V26.02H160V34.3531Z" fill="#5B5B5B"/>
<path d="M159.162 40.8663H0.245884C0.10962 40.8663 0.00012207 40.751 0.00012207 40.6089C0.00012207 40.4669 0.10962 40.3516 0.245884 40.3516H159.162C159.297 40.3516 159.407 40.4669 159.407 40.6089C159.407 40.751 159.295 40.8663 159.162 40.8663Z" fill="#CFA60E"/>
<path d="M13.5013 51.8159C13.3711 51.913 13.208 52.0114 13.0024 52.0866C12.7968 52.1619 12.5571 52.2056 12.2968 52.2056C11.9926 52.2056 11.7432 52.1522 11.5364 52.032C11.3308 51.913 11.1568 51.7613 11.0376 51.5658C10.9074 51.3813 10.821 51.1543 10.7662 50.9054C10.7115 50.6565 10.6799 50.3967 10.6799 50.126C10.6799 48.7396 11.1896 48.0464 12.2213 48.0464C12.4489 48.0464 12.6666 48.0682 12.8723 48.1228C13.0779 48.1775 13.2628 48.2527 13.4258 48.3499L13.6752 47.6032C13.4806 47.5061 13.2628 47.4187 13.0243 47.3653C12.7749 47.3107 12.4817 47.29 12.135 47.29C11.3746 47.29 10.7894 47.528 10.3879 48.016C9.98637 48.5028 9.77954 49.207 9.77954 50.1272C9.77954 50.5497 9.82334 50.9394 9.90972 51.2866C9.98637 51.6435 10.1275 51.9361 10.3112 52.185C10.4961 52.4338 10.7237 52.6293 11.0169 52.7592C11.3101 52.9 11.658 52.9644 12.0802 52.9644C12.4063 52.9644 12.7202 52.9207 13.0134 52.8345C13.3066 52.7592 13.567 52.639 13.7847 52.4775L13.5025 51.8171L13.5013 51.8159ZM15.9759 48.4798C16.0732 48.4263 16.1925 48.3717 16.3336 48.3183C16.4638 48.2746 16.6049 48.2309 16.757 48.1993C16.8981 48.1665 17.0502 48.1338 17.1913 48.1228C17.3325 48.101 17.4627 48.0901 17.5819 48.0901C18.0053 48.0901 18.2875 48.1665 18.4506 48.328C18.6136 48.4907 18.689 48.7614 18.689 49.162C18.689 49.3357 18.6781 49.5299 18.6562 49.7472C18.5589 49.7363 18.4603 49.7266 18.363 49.7266C18.2656 49.7266 18.1574 49.7266 18.0588 49.7266C17.6573 49.7266 17.2996 49.7472 16.9736 49.8018C16.6366 49.8565 16.3543 49.9536 16.1268 50.0726C15.8883 50.2025 15.7034 50.3749 15.5732 50.5812C15.443 50.7985 15.3773 51.0681 15.3773 51.3825C15.3773 51.6204 15.4211 51.8377 15.5075 52.0223C15.5842 52.2056 15.7034 52.3683 15.8445 52.4982C15.9856 52.639 16.1584 52.7361 16.3652 52.8126C16.5599 52.8891 16.7777 52.9207 17.0052 52.9207C17.2327 52.9207 17.4395 52.9 17.6233 52.8454C17.8082 52.7908 17.9603 52.7264 18.1014 52.6499C18.2425 52.5747 18.3618 52.4872 18.4591 52.3901C18.5564 52.293 18.6331 52.1959 18.6975 52.0975H18.7523L18.9798 52.8563H19.621C19.5662 52.6499 19.5224 52.4338 19.5005 52.1959C19.4786 51.9579 19.4677 51.7091 19.4677 51.4383C19.4677 51.0705 19.4786 50.6808 19.5005 50.2692C19.5224 49.8577 19.5334 49.4352 19.5334 49.0018C19.5334 48.8076 19.5115 48.6121 19.4786 48.4166C19.4348 48.2224 19.3594 48.0379 19.2402 47.8752C19.1209 47.7125 18.947 47.5826 18.7194 47.4855C18.4919 47.3884 18.1878 47.3337 17.8082 47.3337C17.4067 47.3337 17.0259 47.3774 16.6694 47.4527C16.2995 47.5292 15.9747 47.6579 15.7034 47.8218L15.9747 48.4822L15.9759 48.4798ZM16.5502 51.913C16.3665 51.7515 16.2789 51.5452 16.2789 51.2963C16.2789 51.1118 16.3324 50.9612 16.4309 50.841C16.5283 50.7221 16.6585 50.6359 16.8215 50.5594C16.9833 50.495 17.1682 50.4513 17.386 50.4186C17.5916 50.3967 17.8094 50.3858 18.0369 50.3858C18.1342 50.3858 18.2425 50.3858 18.352 50.3858C18.4494 50.3967 18.5576 50.3967 18.6562 50.4076V51.306C18.6233 51.4031 18.5698 51.5003 18.4944 51.5974C18.4177 51.6957 18.3204 51.7928 18.2012 51.8681C18.0819 51.9543 17.9517 52.0198 17.7887 52.0733C17.6257 52.1279 17.4529 52.1595 17.2461 52.1595C16.9638 52.1595 16.7363 52.0733 16.5514 51.9106L16.5502 51.913ZM24.9073 52.8332H25.776V47.4187H22.5421C22.5215 48.3936 22.4777 49.1839 22.4229 49.7909C22.3682 50.3967 22.2927 50.8738 22.2051 51.2089C22.1188 51.5549 22.0202 51.794 21.9022 51.913C21.7817 52.032 21.6528 52.0975 21.5116 52.0975C21.4143 52.0975 21.3158 52.0866 21.2294 52.0538L21.0992 52.7798C21.1759 52.8126 21.2732 52.8442 21.3705 52.8563C21.4678 52.8672 21.5883 52.8769 21.7294 52.8769C21.9569 52.8769 22.1528 52.8017 22.3159 52.6499C22.4789 52.5091 22.6091 52.3149 22.7283 52.0648C22.8366 51.8159 22.9242 51.5342 22.9996 51.2089C23.075 50.8945 23.1298 50.5594 23.1736 50.2012C23.2174 49.8553 23.2502 49.508 23.2709 49.1499C23.2928 48.8039 23.3135 48.4786 23.3354 48.175H24.9097V52.832L24.9073 52.8332ZM28.0973 51.2854C28.1947 51.6423 28.3358 51.9349 28.5317 52.1837C28.7276 52.4326 28.977 52.6281 29.2799 52.758C29.5731 52.8988 29.9308 52.9631 30.3323 52.9631C31.1037 52.9631 31.6889 52.7143 32.1013 52.2262C32.5028 51.7394 32.7096 51.0462 32.7096 50.1248C32.7096 49.7023 32.6658 49.3126 32.5685 48.9557C32.4712 48.6097 32.3301 48.3062 32.1342 48.0573C31.9383 47.8084 31.6889 47.6239 31.3957 47.4831C31.0915 47.3532 30.7338 47.2888 30.3311 47.2888C29.561 47.2888 28.9745 47.5268 28.5731 48.0148C28.1606 48.5016 27.955 49.2058 27.955 50.126C27.955 50.5485 27.9988 50.9382 28.0961 51.2854H28.0973ZM30.3323 48.0464C30.6036 48.0464 30.8324 48.101 31.0161 48.209C31.201 48.328 31.3531 48.4798 31.4723 48.6643C31.5916 48.8488 31.6779 49.0759 31.7327 49.3247C31.7874 49.5736 31.8081 49.8443 31.8081 50.126C31.8081 51.5233 31.3202 52.2165 30.3323 52.2056C30.061 52.2056 29.8335 52.1522 29.6486 52.032C29.4636 51.913 29.3128 51.7613 29.1923 51.5767C29.0731 51.3922 28.9977 51.1652 28.9429 50.9163C28.8882 50.6674 28.8565 50.3967 28.8565 50.126C28.8565 48.7286 29.3444 48.0354 30.3323 48.0464ZM38.2113 52.8332H39.08V47.4187H38.2113V49.6829H35.7586V47.4187H34.8899V52.8332H35.7586V50.4404H38.2113V52.8332ZM45.7545 50.4623H48.0552C47.9895 51.6314 47.4578 52.2165 46.4492 52.2056C46.2108 52.2056 45.9723 52.1728 45.7326 52.1194C45.4942 52.066 45.2873 52.0004 45.1255 51.9021L44.8761 52.639C45.072 52.747 45.3104 52.8235 45.6036 52.8769C45.8859 52.9316 46.201 52.9644 46.5368 52.9644C47.296 52.9644 47.8934 52.7264 48.3168 52.2384C48.7402 51.7516 48.9567 51.0462 48.9567 50.126C48.9567 49.2276 48.7718 48.5344 48.4031 48.0354C48.0333 47.5365 47.4481 47.2888 46.6439 47.2888C46.2643 47.2888 45.9285 47.3325 45.6353 47.4078C45.3421 47.494 45.0927 47.613 44.8639 47.7659L45.1669 48.4263C45.308 48.3292 45.482 48.2418 45.6985 48.1665C45.9151 48.0901 46.1755 48.0476 46.4796 48.0476C46.9566 48.0476 47.3264 48.1993 47.5977 48.5138C47.8581 48.827 48.0102 49.2397 48.043 49.7472H45.7533V50.4623H45.7545ZM54.3185 52.8332H55.3928L53.58 50.3858L53.0155 49.9524L53.4717 49.5954L55.1531 47.4187H54.209L52.4728 49.7144L52.0056 49.8662V47.4187H51.137V52.8332H52.0056V50.3967H52.5045L54.3173 52.8332H54.3185ZM60.4394 51.8147C60.3092 51.9118 60.1474 52.0101 59.9406 52.0854C59.735 52.1607 59.4953 52.2044 59.2349 52.2044C58.9308 52.2044 58.6814 52.151 58.4745 52.0308C58.2689 51.9118 58.0949 51.76 57.9757 51.5646C57.8455 51.3801 57.7579 51.153 57.7044 50.9042C57.6497 50.6553 57.618 50.3955 57.618 50.1248C57.618 48.7384 58.1278 48.0451 59.1595 48.0451C59.387 48.0451 59.6048 48.067 59.8104 48.1216C60.016 48.1763 60.201 48.2515 60.364 48.3487L60.6134 47.602C60.4187 47.5049 60.201 47.4175 59.9625 47.3641C59.7131 47.3095 59.4199 47.2888 59.0731 47.2888C58.3139 47.2888 57.7275 47.5268 57.326 48.0148C56.9245 48.5016 56.7177 49.2058 56.7177 50.126C56.7177 50.5485 56.7615 50.9382 56.8479 51.2854C56.9233 51.6423 57.0644 51.9349 57.2494 52.1837C57.4331 52.4326 57.6618 52.6281 57.955 52.758C58.2482 52.8988 58.5962 52.9631 59.0184 52.9631C59.3444 52.9631 59.6583 52.9194 59.9515 52.8332C60.2448 52.758 60.5051 52.6378 60.7229 52.4763L60.4406 51.8159L60.4394 51.8147ZM65.9095 52.8332H66.9838L65.1709 50.3858L64.6064 49.9524L65.0615 49.5954L66.7441 47.4187H65.8L64.0638 49.7144L63.5966 49.8662V47.4187H62.7279V52.8332H63.5966V50.3967H64.0954L65.9082 52.8332H65.9095ZM71.9769 52.8332H72.8455V47.4187H69.6105C69.5898 48.3936 69.546 49.1839 69.4913 49.7909C69.4365 50.3967 69.3611 50.8738 69.2747 51.2089C69.1871 51.5549 69.0898 51.794 68.9705 51.913C68.8513 52.032 68.7211 52.0975 68.58 52.0975C68.4827 52.0975 68.3853 52.0866 68.2977 52.0538L68.1675 52.7798C68.2442 52.8126 68.3415 52.8442 68.4389 52.8563C68.5362 52.8672 68.6566 52.8769 68.7978 52.8769C69.0265 52.8769 69.2212 52.8017 69.3842 52.6499C69.5472 52.5091 69.6774 52.3149 69.7966 52.0648C69.9049 51.8159 69.9913 51.5342 70.0679 51.2089C70.1446 50.8945 70.1981 50.5594 70.2419 50.2012C70.2857 49.8553 70.3186 49.508 70.3393 49.1499C70.3612 48.8039 70.3831 48.4786 70.4037 48.175H71.9781V52.832L71.9769 52.8332ZM81.2234 52.2274C81.5823 51.7406 81.766 51.0474 81.766 50.126C81.766 49.7035 81.7222 49.3138 81.6455 48.9569C81.5701 48.6109 81.4399 48.3074 81.2659 48.0585C81.081 47.8096 80.8535 47.6251 80.5822 47.4843C80.2999 47.3544 79.9641 47.29 79.5614 47.29C78.8339 47.29 78.2925 47.4952 77.9336 47.9067C77.5649 48.3183 77.3471 48.9144 77.2936 49.6829H76.1974V47.4187H75.3287V52.8332H76.1974V50.4404H77.2827C77.3046 50.8192 77.3593 51.1555 77.4566 51.4687C77.543 51.7831 77.6732 52.0538 77.8581 52.2699C78.0321 52.497 78.2596 52.6596 78.5419 52.7786C78.8132 52.8976 79.149 52.9631 79.5395 52.9631C80.289 52.9631 80.8523 52.7143 81.2222 52.2262L81.2234 52.2274ZM78.4664 48.5453C78.6842 48.2103 79.0419 48.0464 79.5517 48.0464C79.8121 48.0464 80.0189 48.101 80.1917 48.209C80.3547 48.3171 80.4958 48.4688 80.5931 48.6534C80.6905 48.8488 80.7671 49.0759 80.7988 49.3247C80.8426 49.5736 80.8632 49.8443 80.8632 50.126C80.8632 50.841 80.7659 51.3606 80.5603 51.6969C80.3547 52.032 80.0177 52.2056 79.5614 52.2056C79.2792 52.2056 79.0517 52.1522 78.8667 52.0441C78.683 51.9361 78.5309 51.7843 78.4214 51.5889C78.3131 51.4043 78.2365 51.1773 78.1939 50.9284C78.1501 50.6796 78.1282 50.4088 78.1282 50.1272C78.1282 49.4121 78.2365 48.8816 78.4652 48.5465L78.4664 48.5453ZM85.0972 50.4186C85.5972 50.4186 85.9549 50.495 86.1715 50.6359C86.3892 50.7876 86.4975 50.9928 86.4975 51.2526C86.4975 51.567 86.3783 51.794 86.1508 51.9458C85.922 52.0975 85.5863 52.1728 85.141 52.1728C84.8697 52.1728 84.6093 52.151 84.3818 52.0963C84.1433 52.0429 83.9365 51.9774 83.7735 51.8802L83.524 52.5941C83.7187 52.6912 83.9365 52.7677 84.1859 52.832C84.4244 52.8976 84.7285 52.9292 85.0972 52.9292C85.478 52.9292 85.8028 52.8854 86.096 52.7993C86.3783 52.7228 86.6168 52.6038 86.8017 52.463C86.9866 52.3221 87.1277 52.1485 87.2251 51.9543C87.3224 51.7601 87.3662 51.5427 87.3662 51.3157C87.3662 50.9479 87.2798 50.6553 87.1168 50.4283C86.9428 50.2012 86.6399 50.0495 86.2165 49.973V49.9293C86.5206 49.8322 86.7591 49.6586 86.9221 49.4097C87.0852 49.1718 87.1606 48.9229 87.1606 48.6728C87.1606 47.7853 86.5632 47.341 85.3587 47.341C84.9573 47.341 84.6105 47.3847 84.3173 47.4818C84.0241 47.579 83.7637 47.687 83.5472 47.8072L83.7966 48.4676C83.9268 48.3911 84.1117 48.3049 84.3501 48.2297C84.5777 48.1435 84.838 48.0998 85.1203 48.0998C85.5108 48.0998 85.804 48.1544 85.9999 48.2734C86.1946 48.3924 86.2931 48.5878 86.2931 48.8695C86.2931 48.9897 86.2603 49.0977 86.2067 49.1948C86.141 49.3029 86.0547 49.3891 85.9573 49.4656C85.86 49.542 85.7408 49.6064 85.6215 49.6501C85.4914 49.6938 85.3612 49.7144 85.231 49.7144H84.4718V50.4186H85.1008H85.0972ZM92.9336 52.8332H93.8023V47.4187H93.2925L90.8507 50.6893L90.4273 51.3606H90.3835L90.4163 50.7221V47.4187H89.5477V52.8332H90.0465L92.4883 49.6501L92.9336 48.9569H92.9664L92.9336 49.6282V52.8332ZM96.2879 52.8223C96.5373 52.8442 96.7976 52.866 97.0592 52.8757C97.3196 52.8976 97.6018 52.9085 97.906 52.9085C98.7199 52.9085 99.327 52.7786 99.7298 52.5297C100.131 52.2809 100.338 51.8693 100.338 51.306C100.338 50.9479 100.25 50.6565 100.078 50.4392C99.9037 50.2231 99.6008 50.0713 99.1774 49.9949V49.9512C99.5132 49.8322 99.7638 49.6586 99.9147 49.4097C100.056 49.1718 100.132 48.9229 100.132 48.6728C100.132 48.2285 99.9804 47.8934 99.6665 47.6652C99.3514 47.4478 98.8416 47.3398 98.125 47.3398C97.7126 47.3398 97.3646 47.3507 97.0933 47.3726C96.811 47.3932 96.5397 47.4163 96.2903 47.426V52.8199L96.2879 52.8223ZM97.1565 50.3639H98.1116C98.6214 50.3639 98.9694 50.4392 99.175 50.6019C99.3696 50.7646 99.4682 50.9806 99.4682 51.2417C99.4682 51.5767 99.3489 51.805 99.1214 51.9458C98.883 52.0866 98.5241 52.151 98.0362 52.151C97.8512 52.151 97.6992 52.151 97.569 52.14C97.4279 52.1291 97.2977 52.1182 97.1565 52.1073V50.3639ZM97.1565 49.7035V48.1326C97.2758 48.1216 97.406 48.1216 97.5471 48.1119C97.6773 48.101 97.8622 48.101 98.0897 48.101C98.5241 48.101 98.827 48.1556 99.001 48.2637C99.175 48.3826 99.2613 48.5781 99.2613 48.8695C99.2613 48.9897 99.2285 49.0977 99.175 49.1948C99.1105 49.2919 99.0338 49.3794 98.9365 49.4546C98.8392 49.5311 98.7199 49.5955 98.6007 49.6392C98.4815 49.6829 98.3513 49.7035 98.2211 49.7035H97.1578H97.1565ZM105.839 52.8332H106.707V47.4187H105.839V49.6829H103.386V47.4187H102.517V52.8332H103.386V50.4404H105.839V52.8332ZM110.06 50.2012C110.18 50.1685 110.321 50.1466 110.462 50.1357C110.603 50.1248 110.744 50.1248 110.863 50.1248C111.309 50.1248 111.612 50.2219 111.796 50.4064C111.97 50.5909 112.057 50.8289 112.057 51.1203C112.057 51.4456 111.97 51.6945 111.785 51.8681C111.601 52.0526 111.285 52.1388 110.83 52.1388C110.581 52.1388 110.332 52.117 110.06 52.0745V50.2012ZM110.06 47.4175H109.192V52.832C109.69 52.8757 110.169 52.8976 110.635 52.8976C111.448 52.8976 112.045 52.7458 112.414 52.4533C112.772 52.1607 112.957 51.6836 112.957 51.0231C112.957 50.7961 112.924 50.5897 112.871 50.3834C112.806 50.1891 112.697 50.0155 112.545 49.8747C112.393 49.7338 112.198 49.6149 111.947 49.5287C111.698 49.4522 111.383 49.4097 111.014 49.4097C110.873 49.4097 110.722 49.4097 110.558 49.4206C110.395 49.4316 110.232 49.4534 110.059 49.485V47.4163L110.06 47.4175ZM113.815 52.832H114.684V47.4175H113.815V52.832ZM116.637 52.832H117.603L118.775 51.1858L119.112 50.5363L119.438 51.1858L120.588 52.832H121.62L119.677 50.0167L121.511 47.4175H120.534L119.482 48.912L119.167 49.5287L118.863 48.912L117.832 47.4175H116.768L118.591 50.0604L116.637 52.8332V52.832ZM133.308 52.832V47.4175H132.439V52.0745H130.584V47.4175H129.715V52.0745H127.86V47.4175H126.991V52.832H133.308ZM139.255 47.4175H134.978V48.175H136.683V52.832H137.552V48.175H139.256V47.4175H139.255ZM140.591 51.2842C140.688 51.6411 140.829 51.9337 141.025 52.1825C141.22 52.4314 141.47 52.6269 141.773 52.7568C142.067 52.8976 142.424 52.9619 142.827 52.9619C143.597 52.9619 144.184 52.7131 144.596 52.225C144.997 51.7382 145.203 51.045 145.203 50.1235C145.203 49.7011 145.159 49.3114 145.062 48.9544C144.965 48.6085 144.823 48.3049 144.628 48.0561C144.432 47.8072 144.182 47.6227 143.889 47.4818C143.585 47.3519 143.227 47.2876 142.826 47.2876C142.054 47.2876 141.469 47.5255 141.068 48.0136C140.655 48.5004 140.45 49.2045 140.45 50.1248C140.45 50.5472 140.493 50.9369 140.591 51.2842ZM142.827 48.0451C143.098 48.0451 143.326 48.0998 143.511 48.2078C143.696 48.3268 143.848 48.4786 143.967 48.6631C144.086 48.8476 144.173 49.0746 144.227 49.3235C144.282 49.5724 144.304 49.8431 144.304 50.1248C144.304 51.5221 143.816 52.2153 142.828 52.2044C142.557 52.2044 142.329 52.151 142.144 52.0308C141.959 51.9118 141.807 51.76 141.688 51.5755C141.569 51.391 141.494 51.164 141.439 50.9151C141.384 50.6662 141.352 50.3955 141.352 50.1248C141.352 48.7274 141.84 48.0342 142.828 48.0451H142.827ZM147.386 54.9978H148.254V52.7458C148.439 52.8223 148.601 52.8757 148.764 52.9085C148.916 52.9413 149.123 52.9631 149.394 52.9631C149.774 52.9631 150.11 52.8988 150.425 52.758C150.728 52.6171 150.989 52.4217 151.206 52.1728C151.424 51.9239 151.597 51.6095 151.716 51.2417C151.835 50.8835 151.89 50.472 151.89 50.0179C151.89 49.054 151.716 48.3499 151.358 47.9274C151 47.5049 150.469 47.2888 149.741 47.2888C149.404 47.2888 149.1 47.3532 148.84 47.4831C148.568 47.6239 148.352 47.8193 148.189 48.0682H148.146L147.983 47.4187H147.386V54.9991V54.9978ZM150.24 48.186C150.414 48.2831 150.555 48.413 150.674 48.5757C150.783 48.7493 150.859 48.9544 150.913 49.1936C150.966 49.4425 150.988 49.7132 150.988 50.0058C150.988 50.7318 150.847 51.2732 150.554 51.6411C150.261 52.0198 149.859 52.2044 149.359 52.2044C149.088 52.2044 148.86 52.1716 148.697 52.1182C148.534 52.0648 148.382 51.9883 148.252 51.8912V49.2057C148.338 48.816 148.49 48.5235 148.708 48.328C148.915 48.1435 149.207 48.0464 149.577 48.0464C149.837 48.0464 150.054 48.0901 150.239 48.1872L150.24 48.186Z" fill="#CFA60E"/>
<path d="M86.15 3.16093C86.1369 3.15376 86.1225 3.14898 86.1082 3.14062C86.1082 3.14062 86.1237 3.14898 86.15 3.16093Z" fill="#CFA60E"/>
<path d="M79.8522 8.66338C79.8522 8.66338 74.7702 12.5798 73.7251 12.961C73.5134 13.0387 74.8651 7.76986 79.3022 3.47101C81.1649 1.66577 81.6638 1.3222 81.6638 1.3222C81.6638 1.3222 77.7474 2.79602 75.252 6.40652C74.7398 7.14707 74.331 7.87791 74.0025 8.57476C73.5621 8.94989 70.0047 12.0032 67.8086 12.9598C67.5032 13.0933 67.2015 13.1419 67.0494 13.0144C66.6382 12.6684 67.3755 9.08829 69.1469 6.06659C69.7881 4.97154 70.2893 4.10109 70.8149 3.38603C71.1568 3.43459 74.5233 4.31597 76.139 2.96355C77.0746 2.1793 76.841 0.533084 75.6 0.108177C74.0828 -0.412638 71.8917 0.99684 70.0655 3.09224C68.6189 2.71225 67.9789 2.31405 64.9373 1.63056C62.7948 1.14981 60.1754 0.726113 57.9501 2.6819C56.8673 3.63369 55.7955 5.5045 56.8101 7.87305C57.7676 10.1081 60.3421 9.28496 61.33 8.38416C62.0904 7.68852 62.1244 6.4053 61.1244 6.44537C60.1218 6.48786 60.774 7.33403 60.0415 8.22755C59.3091 9.12228 57.5146 9.14778 56.9987 7.38623C56.8722 6.95647 56.3429 5.1925 58.5828 3.4261C60.819 1.66091 66.7574 2.73289 69.9292 3.24885C69.5265 3.72232 69.1445 4.22249 68.7965 4.73481C66.8523 7.60111 65.2938 12.513 66.8864 13.2135C68.1152 13.7526 72.8638 9.67345 73.8809 8.83941C72.7567 11.35 72.7251 13.4588 73.1168 13.4053C74.5208 13.2135 79.8534 8.66095 79.8534 8.66095L79.8522 8.66338ZM71.6131 2.45245C73.2677 0.835375 74.9126 0.450531 75.5367 0.512446C76.5246 0.613209 76.8763 1.894 76.0879 2.68312C74.7033 4.06588 71.1349 3.29984 70.9147 3.2537C71.1446 2.94899 71.3563 2.70133 71.6143 2.45124L71.6131 2.45245Z" fill="#CFA60E"/>
<path d="M98.4973 3.37768C96.8609 3.46752 94.4909 4.40717 92.1683 5.25213C91.7486 3.55007 90.8057 1.83102 88.5026 1.0237C84.8599 -0.253452 81.8341 2.15759 82.2672 4.44238C82.3901 5.08824 82.9461 5.73288 82.9461 5.73288C82.9461 5.73288 81.9509 4.44966 82.5446 3.11303C83.1822 1.67805 85.7031 0.732333 87.8516 1.27864C90.0635 1.84195 91.0234 3.80623 91.2437 5.58356C90.6195 5.8033 90.0051 6.00604 89.4187 6.17357C86.0194 7.14115 84.265 6.505 84.046 6.39695C85.6544 7.33782 88.1132 6.85707 91.2777 5.89799C91.5174 9.56433 88.0743 13.6058 83.1907 12.1526C82.2295 11.8661 81.5154 11.525 80.8608 11.264C81.7599 9.63353 83.4279 6.91777 85.1714 4.65483C86.8005 2.54122 88.0755 1.8468 88.0755 1.8468C88.0755 1.8468 85.1641 2.98191 83.0556 5.98904C81.3791 8.37824 80.817 9.91276 80.3328 11.0709C79.8254 10.9046 79.3254 10.8136 78.739 10.8682C77.9336 10.9447 77.1598 11.7775 77.5819 12.8082C77.8922 13.567 79.6089 13.6434 80.5858 11.7787C80.6333 11.6889 80.6832 11.593 80.7379 11.491C82.0896 12.1174 83.8781 13.2064 85.3892 13.3047C89.864 13.5937 92.9214 9.3446 92.2389 5.60056C93.2231 5.28734 94.2731 4.93406 95.4034 4.55771C100.758 2.77067 102.622 5.45245 102.46 7.36696C102.302 9.22319 100.445 9.58133 99.7736 8.79465C99.102 8.00675 99.6069 6.27312 98.3683 6.7648C97.3646 7.16179 98.473 8.76794 99.9828 9.32274C101.102 9.7343 102.596 9.34338 103.246 8.04924C104.563 5.42938 101.998 3.1883 98.4973 3.3789V3.37768ZM79.5359 12.5775C79.0079 13.2865 77.8569 13.3035 77.7073 12.5715C77.4798 11.4534 78.4409 10.7565 79.7975 11.1231C79.9362 11.1608 80.087 11.2166 80.244 11.2773C80.0347 11.7641 79.8267 12.1854 79.5359 12.5775Z" fill="#CFA60E"/>
</g>
<defs>
<clipPath id="clip0_173_134">
<rect width="160" height="55" fill="white"/>
</clipPath>
</defs>
</svg>
