<svg width="114" height="28" viewBox="0 0 114 28" fill="none" xmlns="http://www.w3.org/2000/svg">
<g clip-path="url(#clip0_131_174)">
<path d="M35.702 26.1442C35.4422 26.0023 35.2396 25.8068 35.0919 25.5561C34.9441 25.3054 34.8705 25.025 34.8705 24.7141C34.8705 24.4037 34.9441 24.1233 35.0919 23.8722C35.2396 23.6214 35.4435 23.426 35.7046 23.2845C35.9648 23.1425 36.2572 23.0718 36.5798 23.0718C36.8217 23.0718 37.0458 23.112 37.2502 23.1921C37.4551 23.2721 37.6291 23.3888 37.7715 23.5427L37.5532 23.759C37.2984 23.5043 36.9775 23.3765 36.5892 23.3765C36.3313 23.3765 36.0974 23.4348 35.8854 23.552C35.6747 23.6696 35.5096 23.8288 35.3895 24.0318C35.2704 24.2348 35.211 24.4625 35.211 24.7146C35.211 24.9666 35.2704 25.1944 35.3895 25.3973C35.5096 25.6008 35.6747 25.7604 35.8854 25.8776C36.0974 25.9943 36.3313 26.0522 36.5892 26.0522C36.9806 26.0522 37.3011 25.9236 37.5532 25.6658L37.7715 25.8824C37.6291 26.0359 37.4546 26.1535 37.248 26.2349C37.0413 26.3167 36.8173 26.3569 36.5749 26.3569C36.2523 26.3569 35.9613 26.2871 35.702 26.1451V26.1442Z" fill="black"/>
<path d="M41.7012 25.434C41.7012 25.0276 41.4205 24.8251 40.8586 24.8251H39.7548V26.0566H40.8586C41.4205 26.0566 41.7012 25.8492 41.7012 25.4345V25.434ZM39.7553 24.5615H40.7519C41.0036 24.5615 41.1964 24.5111 41.3312 24.4094C41.4673 24.3086 41.5343 24.1605 41.5343 23.9672C41.5343 23.7735 41.4673 23.6249 41.3312 23.5241C41.1964 23.4229 41.0032 23.372 40.7519 23.372H39.7553V24.562V24.5615ZM41.8645 24.933C41.9824 25.067 42.0422 25.2417 42.0422 25.457C42.0422 25.7365 41.9413 25.9518 41.7414 26.1031C41.5414 26.2534 41.2469 26.329 40.859 26.329H39.4156V23.0996H40.7711C41.1183 23.0996 41.3897 23.1704 41.5856 23.3123C41.7815 23.4534 41.8797 23.6581 41.8797 23.9252C41.8797 24.1074 41.8329 24.26 41.74 24.3838C41.6463 24.5094 41.516 24.6018 41.3486 24.6632C41.5753 24.7092 41.7476 24.799 41.8654 24.933H41.8645Z" fill="black"/>
<path d="M46.1393 26.0336V26.329H43.8346V23.0996H46.0697V23.395H44.1787V24.5434H45.8644V24.8344H44.1787V26.0336H46.1393Z" fill="black"/>
<path d="M49.9664 23.395H48.8207V26.3291H48.4815V23.395H47.335V23.1001H49.9664V23.395Z" fill="black"/>
<path d="M53.7614 23.0996H54.1019V25.775L56.1875 23.0996H56.4995V26.329H56.1594V23.6581L54.0733 26.329H53.7614V23.0996Z" fill="black"/>
<path d="M61.2505 25.3951C61.1902 25.7126 61.0889 25.9262 60.9456 26.0336H62.9522V23.395H61.3928L61.3652 24.179C61.3491 24.6712 61.3116 25.0767 61.2505 25.3955V25.3951ZM63.781 26.0336V27.0529H63.4606V26.329H60.6154L60.6109 27.0529H60.2896L60.294 26.0336H60.4569C60.6711 26.0213 60.8207 25.8532 60.9041 25.5282C60.988 25.2036 61.0393 24.7437 61.0581 24.1468L61.0951 23.0996H63.2928V26.0336H63.7815H63.781Z" fill="black"/>
<path d="M67.7206 26.0336V26.329H65.4158V23.0996H67.6509V23.395H65.7604V24.5434H67.4456V24.8344H65.7604V26.0336H67.7206Z" fill="black"/>
<path d="M70.4962 24.8481H69.7508V26.329H69.4156V23.0996H69.7508V24.5483H70.4962L71.5999 23.0996H71.973L70.7608 24.6681L72.0422 26.329H71.6459L70.4962 24.8481Z" fill="black"/>
<path d="M75.6265 25.8789C75.8345 25.7635 75.9982 25.6039 76.1152 25.3996C76.233 25.1949 76.2928 24.9658 76.2928 24.7146C76.2928 24.4626 76.233 24.2335 76.1152 24.0292C75.9978 23.8245 75.834 23.6648 75.6265 23.5498C75.4189 23.434 75.186 23.3765 74.928 23.3765C74.6709 23.3765 74.4371 23.4344 74.2277 23.5498C74.018 23.6653 73.8528 23.8249 73.7341 24.0292C73.6145 24.2335 73.5547 24.4626 73.5547 24.7146C73.5547 24.9658 73.6145 25.1953 73.7341 25.3996C73.8528 25.6039 74.018 25.7635 74.2277 25.8789C74.4371 25.9948 74.6709 26.0523 74.928 26.0523C75.186 26.0523 75.4189 25.9948 75.6265 25.8789ZM74.0501 26.1421C73.7886 25.9992 73.5833 25.8033 73.4355 25.5539C73.2883 25.3045 73.2142 25.025 73.2142 24.7146C73.2142 24.4033 73.2883 24.1238 73.4355 23.8744C73.5833 23.625 73.7886 23.43 74.0501 23.2863C74.313 23.1435 74.6053 23.0723 74.928 23.0723C75.2511 23.0723 75.5421 23.1421 75.801 23.2841C76.0598 23.426 76.2638 23.6215 76.4133 23.8718C76.5624 24.1234 76.6365 24.4033 76.6365 24.7146C76.6365 25.025 76.5624 25.3054 76.4133 25.5561C76.2642 25.8077 76.0603 26.0023 75.801 26.1443C75.5421 26.2862 75.2511 26.357 74.928 26.357C74.6053 26.357 74.3134 26.2853 74.0501 26.1421Z" fill="black"/>
<path d="M80.3435 24.7994C80.5145 24.6597 80.6001 24.462 80.6001 24.2069C80.6001 23.9447 80.5145 23.7448 80.3435 23.605C80.1726 23.4653 79.9262 23.395 79.6035 23.395H78.7368V25.0095H79.6035C79.9262 25.0095 80.1726 24.9396 80.3435 24.7994ZM80.5903 23.395C80.8269 23.5918 80.9438 23.8624 80.9438 24.2069C80.9438 24.5514 80.8264 24.8211 80.5903 25.0161C80.3551 25.212 80.0284 25.3089 79.6125 25.3089H78.7372V26.329H78.3927V23.0996H79.6125C80.0284 23.0996 80.3551 23.1987 80.5903 23.395Z" fill="black"/>
<path d="M14.8441 6.25846C15.1824 6.15499 15.6144 6.08865 16.1331 6.06168L17.0904 5.99668L16.952 4.28711L16.0974 4.32027C15.3449 4.3499 14.6665 4.44321 14.08 4.5971C13.4592 4.76115 12.9361 5.05124 12.53 5.45453C12.1689 5.79591 11.8869 6.2054 11.6901 6.67192C11.4919 7.14243 11.3959 7.72658 11.3959 8.45932V19.1107H13.5195V10.0004H16.7856V8.1312H13.5306C13.5744 7.48204 13.7533 7.00446 14.0658 6.70686C14.2706 6.50521 14.5326 6.35442 14.8441 6.25846Z" fill="black"/>
<path d="M28.5623 13.6418C28.5623 14.6417 28.2749 15.4363 27.6826 16.0731L27.68 16.0766C27.339 16.4525 26.915 16.7625 26.42 16.9973C25.9291 17.2294 25.3087 17.3475 24.575 17.3475C23.9595 17.3475 23.4025 17.2546 22.921 17.0725C22.4425 16.8907 22.0368 16.64 21.7133 16.3251C21.391 16.0147 21.1433 15.6309 20.976 15.1834C20.8046 14.7261 20.7171 14.2149 20.7171 13.6626C20.7171 13.1249 20.8073 12.6181 20.9853 12.1556C21.1616 11.6988 21.4187 11.2973 21.7499 10.9629C22.0806 10.6304 22.493 10.3664 22.9777 10.1794C23.4668 9.98966 24.0403 9.8937 24.6834 9.8937C25.8898 9.8937 26.8592 10.2475 27.5648 10.9439C27.8862 11.2623 28.1352 11.6541 28.3039 12.1096C28.4753 12.573 28.5628 13.0891 28.5628 13.6418H28.5623ZM29.1778 9.61997C28.1138 8.49014 26.6093 7.91748 24.704 7.91748C23.7632 7.91748 22.9027 8.06518 22.1462 8.35615C21.383 8.64845 20.7265 9.06058 20.1963 9.58017C19.6634 10.1006 19.2514 10.7197 18.9711 11.4197C18.6926 12.1162 18.5507 12.8711 18.5507 13.6631C18.5507 14.4086 18.6766 15.1321 18.9252 15.8122C19.1764 16.4994 19.5585 17.1118 20.0606 17.6336C20.5631 18.155 21.1902 18.5715 21.9248 18.8731C22.6563 19.1725 23.5119 19.3242 24.4679 19.3242C25.5774 19.3242 26.5446 19.111 27.3417 18.6896C27.8272 18.4336 28.2428 18.1368 28.5837 17.8021V19.1115H30.6859V13.6432C30.6859 12.7813 30.5502 12.0079 30.2811 11.345C30.0124 10.6835 29.641 10.1029 29.1782 9.62041L29.1778 9.61997Z" fill="black"/>
<path d="M43.7529 9.0569L43.7493 9.05424C43.2593 8.67483 42.6876 8.38651 42.0493 8.19902C40.7894 7.82624 39.168 7.82624 37.9076 8.19902C37.2685 8.38784 36.6963 8.67483 36.2045 9.0569C35.6653 9.48584 35.2472 10.0138 34.9624 10.6254C34.6781 11.2348 34.5335 12.013 34.5335 12.9395V19.1113H36.657V12.9514C36.657 11.8658 36.9623 11.0849 37.5912 10.5635C38.1281 10.1195 38.9305 9.89443 39.978 9.89443C41.0246 9.89443 41.8284 10.1195 42.3649 10.5626C42.9937 11.084 43.299 11.8649 43.299 12.951V19.1109H45.423V12.939C45.423 12.0126 45.2788 11.2343 44.9941 10.625C44.7089 10.0134 44.2907 9.48495 43.752 9.05645L43.7529 9.0569Z" fill="black"/>
<path d="M57.8754 11.1951C58.1508 11.5321 58.3592 11.9049 58.4962 12.3046C58.6346 12.7066 58.7042 13.1214 58.7042 13.5366C58.7042 14.0518 58.6301 14.5431 58.4829 14.9972C58.3414 15.439 58.1178 15.8308 57.821 16.1624C57.4987 16.5206 57.0788 16.8112 56.5744 17.0243C56.067 17.2396 55.4413 17.3484 54.7169 17.3484C54.047 17.3484 53.4632 17.2494 52.9839 17.0544C52.509 16.8616 52.1109 16.5962 51.8021 16.2655C51.4905 15.932 51.254 15.538 51.0982 15.0954C50.9393 14.6439 50.8586 14.1553 50.8586 13.6427C50.8586 13.1307 50.9425 12.6389 51.1076 12.1826C51.2701 11.7337 51.5164 11.3375 51.8396 11.005C52.1654 10.6702 52.5702 10.3983 53.0424 10.1975C53.5141 9.99677 54.0778 9.89506 54.7165 9.89506C55.4658 9.89506 56.1049 10.0167 56.6155 10.2555C57.1279 10.4965 57.5523 10.8135 57.875 11.196L57.8754 11.1951ZM58.7497 9.39227C58.3833 9.05221 57.9464 8.75549 57.443 8.50609C56.6543 8.11651 55.7372 7.91796 54.7169 7.91796C53.7743 7.91796 52.921 8.07406 52.1828 8.3805C51.4423 8.68784 50.8054 9.11147 50.2895 9.63902C49.7749 10.1648 49.3755 10.7826 49.1019 11.4755C48.8301 12.1662 48.6926 12.8945 48.6926 13.6423C48.6926 14.402 48.8185 15.1321 49.0671 15.8127C49.3183 16.4998 49.7004 17.1123 50.2025 17.6341C50.7055 18.1559 51.3397 18.5738 52.0904 18.874C52.8366 19.173 53.7127 19.3242 54.6959 19.3242C55.6318 19.3242 56.4941 19.1849 57.2577 18.9112C57.8335 18.7042 58.3472 18.4292 58.7935 18.0882V19.1115H60.8711L60.8934 4.27197H58.7707L58.7502 9.39271L58.7497 9.39227Z" fill="black"/>
<path d="M73.5217 12.5588H66.4214C66.508 12.213 66.6347 11.8964 66.799 11.6142C67.0203 11.2326 67.297 10.9098 67.6211 10.6529C67.9464 10.3951 68.32 10.1947 68.7328 10.0585C69.1465 9.92146 69.5924 9.85204 70.057 9.85204C70.6658 9.85204 71.1964 9.94711 71.6325 10.1342C72.0663 10.3199 72.4354 10.5821 72.7326 10.9147C73.1383 11.3604 73.4025 11.9123 73.5217 12.5588ZM74.3175 9.58804L74.317 9.5876C73.8274 9.06491 73.216 8.65455 72.5014 8.36844C71.7918 8.08454 70.9764 7.93994 70.0784 7.93994C69.0292 7.93994 68.116 8.12699 67.364 8.49491C66.616 8.86194 65.9952 9.33377 65.5176 9.89759C65.0414 10.4596 64.6884 11.08 64.4683 11.7407C64.2501 12.3965 64.1394 13.0253 64.1394 13.6108C64.1394 14.3086 64.2528 15.0276 64.4768 15.7497C64.7071 16.4966 65.149 17.182 65.7912 17.7874C66.2786 18.2407 66.8842 18.613 67.5912 18.8956C68.3012 19.1799 69.1818 19.3245 70.2074 19.3245C71.1732 19.3245 72.0837 19.1675 72.9129 18.8598C73.74 18.5524 74.4996 18.1093 75.1699 17.5424L75.4096 17.3403L74.2992 15.9076L74.0341 16.1256C73.5672 16.5094 73.0035 16.8115 72.3582 17.0251C71.7075 17.2395 70.9978 17.3483 70.2507 17.3483C69.0783 17.3483 68.1254 17.0339 67.4166 16.413C67.0935 16.1336 66.8378 15.8139 66.6561 15.4641C66.5178 15.1961 66.4187 14.8636 66.3634 14.4709H75.8242V13.8394C75.8081 12.9842 75.676 12.1878 75.4301 11.4727C75.1797 10.744 74.8053 10.1098 74.3179 9.58804H74.3175Z" fill="black"/>
<path d="M88.4824 16.1811C88.0263 16.5264 87.4724 16.8108 86.8368 17.0252C85.6305 17.4316 84.25 17.4528 83.195 17.0898C82.704 16.9222 82.276 16.6768 81.923 16.361C81.574 16.0488 81.2982 15.6588 81.1031 15.2025C80.9072 14.743 80.8077 14.2106 80.8077 13.6211C80.8077 13.033 80.9099 12.5068 81.1125 12.0553C81.3151 11.6034 81.5954 11.2111 81.9471 10.8896C82.2983 10.5686 82.7228 10.3201 83.2079 10.1512C83.698 9.98046 84.2402 9.89379 84.8164 9.89379C85.547 9.89379 86.2312 10.0088 86.8493 10.2352C87.4746 10.4642 88.0298 10.7636 88.5029 11.124L88.7587 11.3199L89.8932 9.93138L89.6535 9.7231C88.9836 9.14292 88.2423 8.69187 87.451 8.3841C86.6579 8.075 85.7782 7.91846 84.8374 7.91846C83.9278 7.91846 83.0865 8.05819 82.3381 8.33325C81.5847 8.60962 80.9259 9.00142 80.381 9.49801C79.8325 9.99682 79.4013 10.6044 79.0987 11.3049C78.7953 12.004 78.6417 12.7832 78.6417 13.6211C78.6417 14.426 78.7756 15.183 79.0389 15.8698C79.3045 16.5649 79.7066 17.1787 80.2328 17.693C80.759 18.2081 81.42 18.6141 82.1993 18.8989C82.9705 19.1805 83.8653 19.3243 84.8597 19.3243C85.7987 19.3243 86.6797 19.1713 87.48 18.8701C88.2811 18.5685 89.0055 18.1352 89.6343 17.5806L89.8709 17.3728L88.7395 15.9865L88.4833 16.1806L88.4824 16.1811Z" fill="black"/>
<path d="M102.252 13.5999C102.252 14.07 102.175 14.5387 102.022 14.9929C101.873 15.4368 101.638 15.8375 101.326 16.1842C101.017 16.5278 100.611 16.8117 100.12 17.0252C99.6267 17.2393 99.0242 17.3476 98.3289 17.3476C97.6335 17.3476 97.0319 17.2393 96.5396 17.0252C96.0474 16.8112 95.6412 16.5278 95.3324 16.1842C95.0195 15.8361 94.7852 15.4351 94.637 14.9929C94.4839 14.5405 94.4063 14.0722 94.4063 13.5999C94.4063 13.1418 94.4835 12.6845 94.6361 12.2401C94.7852 11.8046 95.0191 11.4066 95.3324 11.0581C95.6425 10.7136 96.0491 10.4297 96.5396 10.217C97.0319 10.003 97.6335 9.89423 98.3289 9.89423C99.0238 9.89423 99.6267 10.0035 100.119 10.217C100.61 10.4297 101.016 10.7132 101.327 11.0581C101.638 11.4052 101.873 11.8032 102.023 12.2401C102.176 12.6863 102.252 13.144 102.252 13.5999ZM104.044 11.503C103.793 10.8255 103.408 10.21 102.9 9.67401C102.389 9.13718 101.743 8.70514 100.981 8.39162C100.221 8.07721 99.3286 7.91846 98.3293 7.91846C97.33 7.91846 96.4388 8.07721 95.6778 8.39162C94.9151 8.70602 94.2693 9.13718 93.76 9.67401C93.2517 10.2086 92.867 10.8242 92.6152 11.5034C92.3666 12.1769 92.2408 12.8827 92.2408 13.5999C92.2408 14.3167 92.3666 15.0256 92.6152 15.7057C92.8665 16.3933 93.2508 17.0124 93.76 17.5475C94.2679 18.0826 94.9124 18.5168 95.6751 18.8392C96.4383 19.1606 97.3305 19.3243 98.3298 19.3243C99.3291 19.3243 100.222 19.1606 100.984 18.8392C101.746 18.5172 102.391 18.0821 102.901 17.5466C103.41 17.0102 103.794 16.3907 104.044 15.7053C104.292 15.0274 104.419 14.3185 104.419 13.5995C104.419 12.88 104.292 12.1747 104.044 11.5025L104.044 11.503Z" fill="#F9B700"/>
<path d="M0.835144 26.3479H6.60056V24.266H2.93637V2.0819H6.60056V0H0.835144V26.3479Z" fill="black"/>
<path d="M107.554 0V2.08235H111.218V24.266H107.554V26.3479H113.319V0H107.554Z" fill="black"/>
</g>
<defs>
<clipPath id="clip0_131_174">
<rect width="112.485" height="27.0532" fill="white" transform="translate(0.834717)"/>
</clipPath>
</defs>
</svg>
