<svg width="104" height="35" viewBox="0 0 104 35" fill="none" xmlns="http://www.w3.org/2000/svg">
<g clip-path="url(#clip0_131_196)">
<path d="M64.188 12.9067H61.6406C61.4394 12.9067 61.2454 12.9865 61.1021 13.1301L57.8469 16.3886V13.671C57.8469 13.2504 57.5068 12.9082 57.0856 12.9082C56.6658 12.9082 56.3242 13.2504 56.3242 13.671V22.9347C56.3242 23.3552 56.6658 23.6975 57.0856 23.6975C57.5068 23.6975 57.8469 23.3552 57.8469 22.9347V18.545L61.9561 14.4323H64.188C64.6078 14.4323 64.9494 14.0901 64.9494 13.6695C64.9494 13.249 64.6078 12.9067 64.188 12.9067Z" fill="#323030"/>
<path d="M51.9472 22.1719H45.6061V19.0656H50.963C51.3842 19.0656 51.7243 18.7234 51.7243 18.3028C51.7243 17.8823 51.3842 17.54 50.963 17.54H45.6061V14.4338H51.9472C52.367 14.4338 52.7086 14.0915 52.7086 13.671C52.7086 13.2504 52.367 12.9082 51.9472 12.9082H44.8448C44.425 12.9082 44.0834 13.2504 44.0834 13.671V22.9347C44.0834 23.3552 44.425 23.6975 44.8448 23.6975C44.8462 23.6975 44.8477 23.6975 44.8491 23.6975H51.9487C52.3684 23.6975 52.71 23.3552 52.71 22.9347C52.71 22.5141 52.3684 22.1719 51.9487 22.1719H51.9472Z" fill="#323030"/>
<path d="M35.9114 23.6975C35.6146 23.6975 35.3454 23.5249 35.2209 23.2566L30.9207 13.9915C30.7426 13.6086 30.9091 13.1562 31.2898 12.9778C31.6719 12.7995 32.1235 12.9662 32.3015 13.3476L35.9114 21.1249L39.5212 13.3476C39.6978 12.9662 40.1508 12.7995 40.5329 12.9778C40.9136 13.1562 41.0801 13.6086 40.902 13.9915L36.6018 23.2566C36.4773 23.5264 36.2081 23.6975 35.9114 23.6975Z" fill="#323030"/>
<path d="M89.5366 12.9067H86.9891C86.7865 12.9067 86.594 12.9865 86.4507 13.1301L83.1954 16.3886V13.671C83.1954 13.2504 82.8539 12.9082 82.4341 12.9082C82.0129 12.9082 81.6728 13.2504 81.6728 13.671V22.9347C81.6728 23.3552 82.0144 23.6975 82.4341 23.6975C82.8539 23.6975 83.1954 23.3552 83.1954 22.9347V18.545L87.3032 14.4323H89.5351C89.9549 14.4323 90.2964 14.0901 90.2964 13.6695C90.2964 13.249 89.9549 12.9067 89.5351 12.9067H89.5366Z" fill="#323030"/>
<path d="M76.355 23.6978C75.9352 23.6978 75.5936 23.3555 75.5936 22.935V20.8424C75.5936 20.4218 75.9352 20.0796 76.355 20.0796C76.7747 20.0796 77.1163 20.4218 77.1163 20.8424V22.935C77.1163 23.3555 76.7747 23.6978 76.355 23.6978Z" fill="#323030"/>
<path d="M11.7034 17.0004L15.8299 14.3089C16.1817 14.0783 16.2815 13.607 16.0528 13.2532C15.8227 12.9008 15.3523 12.8007 14.9991 13.0299L9.07486 16.8946V9.07236C9.07486 8.65036 8.73472 8.30957 8.31352 8.30957C7.89233 8.30957 7.55219 8.65036 7.55219 9.07236V18.2882C7.55219 18.2882 7.55219 18.2882 7.55219 18.2896V22.9331C7.55219 23.3536 7.89233 23.6959 8.31352 23.6959C8.73472 23.6959 9.07486 23.3536 9.07486 22.9331V18.7145L10.4224 17.8357L14.8182 23.4073C14.9687 23.5973 15.1916 23.6973 15.416 23.6973C15.581 23.6973 15.7474 23.6437 15.8878 23.5335C16.2178 23.2724 16.2743 22.7924 16.0123 22.4618L11.7034 17.0004Z" fill="#323030"/>
<path d="M23.6966 14.4323C21.5675 14.4323 19.8349 16.1682 19.8349 18.3014C19.8349 20.4346 21.5675 22.1704 23.6966 22.1704C25.8258 22.1704 27.5583 20.4346 27.5583 18.3014C27.5583 16.1682 25.8258 14.4323 23.6966 14.4323ZM23.6966 23.6974C20.728 23.6974 18.3123 21.2771 18.3123 18.3014C18.3123 15.3256 20.728 12.9053 23.6966 12.9053C26.6667 12.9053 29.0825 15.3256 29.0825 18.3014C29.0825 21.2757 26.6667 23.6974 23.6966 23.6974Z" fill="#323030"/>
<path d="M2.16202 33.3588H69.5145V1.52607H2.16202V33.3588ZM70.2758 34.8843H1.40068C0.979485 34.8843 0.639343 34.5421 0.639343 34.1215V0.763278C0.639343 0.342728 0.979485 0.000488281 1.40068 0.000488281H70.2758C70.6956 0.000488281 71.0372 0.342728 71.0372 0.763278V34.1215C71.0372 34.5421 70.6956 34.8843 70.2758 34.8843Z" fill="#323030"/>
<path d="M103.108 12.9067C102.688 12.9067 102.346 13.249 102.346 13.6695V18.3014C102.346 20.4346 100.614 22.1704 98.4845 22.1704C96.3553 22.1704 94.6228 20.4346 94.6228 18.3014V13.6695C94.6228 13.249 94.2812 12.9067 93.8614 12.9067C93.4417 12.9067 93.1001 13.249 93.1001 13.6695V18.3014C93.1001 21.2757 95.5158 23.6975 98.4859 23.6975C101.456 23.6975 103.87 21.2771 103.87 18.3014V13.6695C103.87 13.249 103.529 12.9067 103.109 12.9067H103.108Z" fill="#323030"/>
</g>
<defs>
<clipPath id="clip0_131_196">
<rect width="103.229" height="34.8844" fill="white" transform="translate(0.639343)"/>
</clipPath>
</defs>
</svg>
