<svg width="185" height="32" viewBox="0 0 185 32" fill="none" xmlns="http://www.w3.org/2000/svg">
<g clip-path="url(#clip0_131_208)">
<path d="M56.8521 15.8483H58.5367L61.273 20.1163H64.0401L60.4907 14.6369L63.9342 9.521H61.3638L58.5967 13.8042H56.8521V9.521H54.4308V20.1163H56.8521V15.8483Z" fill="black"/>
<path d="M73.2757 20.4716C74.1584 19.6193 74.5991 18.3964 74.5991 16.8018V9.521H72.164V12.8204C72.164 13.719 71.9423 14.3899 71.5016 14.8335C71.0606 15.2785 70.464 15.5003 69.7122 15.5003C69.0011 15.5003 68.4497 15.2885 68.0581 14.8645C67.6674 14.4406 67.4721 13.8145 67.4721 12.9873V9.52134H65.0356V13.1391C65.0356 14.571 65.3941 15.669 66.1106 16.4313C66.8275 17.1922 67.8524 17.5741 69.1861 17.5741C70.4691 17.5741 71.4608 17.1401 72.1637 16.2726V16.9228C72.1637 17.8618 71.9505 18.5555 71.5232 19.0046C71.0979 19.4523 70.4438 19.6772 69.561 19.6772C68.289 19.6772 67.176 19.2898 66.2234 18.512L65.2762 20.3285C65.7967 20.7817 66.4283 21.1332 67.1702 21.3799C67.9121 21.6268 68.7294 21.7507 69.622 21.7507C71.1754 21.7507 72.3933 21.3254 73.2746 20.4716H73.2757Z" fill="black"/>
<path d="M83.4456 20.1163H86.3172L82.5279 14.5917L86.0314 9.521H83.1749L80.9951 12.7304L78.814 9.521H76.002L79.5209 14.6972L75.7621 20.1163H78.5741L80.9951 16.6051L83.4456 20.1163Z" fill="black"/>
<path d="M89.8861 15.7728H94.6672V20.1163H97.1036V9.521H94.6672V13.699H89.8861V9.521H87.4497V20.1163H89.8861V15.7728Z" fill="black"/>
<path d="M103.544 20.2974C104.947 20.2974 106.01 19.809 106.731 18.8304V20.1163H109.093V9.521H106.656V15.4848C106.656 16.3833 106.435 17.0611 105.995 17.5203C105.554 17.9794 104.967 18.2098 104.236 18.2098C103.554 18.2098 103.015 17.9949 102.62 17.5651C102.224 17.137 102.026 16.4982 102.026 15.6517V9.521H99.5891V15.7262C99.5891 17.1905 99.938 18.3178 100.634 19.1098C101.331 19.9014 102.3 20.2974 103.544 20.2974Z" fill="black"/>
<path d="M125.951 9.5166L122.071 16.1009L118.132 9.5166H116.117V20.1116H118.403V13.8908L121.501 18.9912H122.583L125.68 13.7701L125.696 20.1116H127.98L127.966 9.5166H125.951Z" fill="black"/>
<path d="M137.669 15.6005H132.858V14.0873C132.858 13.2097 133.071 12.5461 133.496 12.0962C133.923 11.6471 134.512 11.4239 135.263 11.4239C136.005 11.4239 136.591 11.6471 137.023 12.0962C137.454 12.5457 137.669 13.2097 137.669 14.0873V15.6005ZM137.82 9.90929C137.097 9.52606 136.251 9.33496 135.279 9.33496C134.307 9.33496 133.459 9.52606 132.738 9.90929C132.015 10.2939 131.455 10.8582 131.053 11.605C130.653 12.3518 130.452 13.2549 130.452 14.3146V20.1114H132.858V17.5688H137.67V20.1114H140.106V14.3146C140.106 13.2549 139.905 12.3518 139.504 11.605C139.103 10.8582 138.541 10.2939 137.82 9.90929H137.82Z" fill="black"/>
<path d="M148.613 15.1476C148.227 15.5098 147.677 15.6922 146.966 15.6922C146.565 15.6922 146.171 15.6319 145.786 15.5098C145.399 15.389 145.056 15.2231 144.755 15.0113V13.8309C144.755 13.0838 144.953 12.5043 145.349 12.09C145.746 11.6757 146.299 11.4694 147.011 11.4694C147.693 11.4694 148.227 11.656 148.613 12.0296C148.998 12.4032 149.192 12.9268 149.192 13.6036C149.192 14.269 148.998 14.7843 148.613 15.1479V15.1476ZM150.403 10.5005C149.575 9.77333 148.425 9.41113 146.951 9.41113C145.457 9.41113 144.318 9.79437 143.531 10.5608C142.743 11.3276 142.35 12.4225 142.35 13.8457V20.1113H144.756V16.9485C145.237 17.1603 145.686 17.3107 146.101 17.4021C146.517 17.4935 146.946 17.5384 147.387 17.5384C148.73 17.5384 149.775 17.1862 150.522 16.4784C151.268 15.7723 151.642 14.7992 151.642 13.5584C151.642 12.2459 151.23 11.2266 150.403 10.5005Z" fill="black"/>
<path d="M160.369 12.8159C160.369 13.7144 160.147 14.3857 159.706 14.8293C159.266 15.2743 158.669 15.4961 157.917 15.4961C157.205 15.4961 156.654 15.2843 156.263 14.8603C155.872 14.4361 155.677 13.81 155.677 12.9832V9.5168H153.24V13.1346C153.24 14.5668 153.599 15.6644 154.316 16.4267C155.032 17.1877 156.057 17.5695 157.391 17.5695C158.674 17.5695 159.666 17.1356 160.369 16.2681V16.9179C160.369 17.8572 160.155 18.5506 159.728 19C159.303 19.4478 158.649 19.6723 157.766 19.6723C156.494 19.6723 155.381 19.285 154.428 18.5071L153.481 20.3239C154.001 20.7775 154.634 21.1283 155.375 21.3753C156.117 21.6223 156.935 21.7458 157.827 21.7458C159.381 21.7458 160.599 21.3205 161.48 20.4667C162.363 19.6147 162.803 18.3919 162.803 16.7969V9.51611H160.368V12.8155L160.369 12.8159Z" fill="black"/>
<path d="M168.642 11.8553C169.154 11.5676 169.734 11.4244 170.386 11.4244C171.438 11.4244 172.321 11.837 173.032 12.6655L174.596 11.2126C174.095 10.6059 173.476 10.1426 172.74 9.81975C172.003 9.49688 171.178 9.33545 170.265 9.33545C169.183 9.33545 168.209 9.57001 167.341 10.0388C166.475 10.5076 165.793 11.1592 165.296 11.9919C164.799 12.8242 164.551 13.7649 164.551 14.8152C164.551 15.8639 164.799 16.8045 165.296 17.6369C165.792 18.4696 166.474 19.1208 167.341 19.5896C168.208 20.0588 169.179 20.293 170.251 20.293C171.164 20.293 171.99 20.1315 172.731 19.8087C173.473 19.4855 174.095 19.0167 174.596 18.402L173.032 16.9491C172.321 17.7856 171.438 18.2057 170.386 18.2057C169.734 18.2057 169.153 18.0612 168.642 17.7731C168.13 17.4855 167.732 17.0853 167.447 16.57C167.161 16.056 167.019 15.4706 167.019 14.8152C167.019 14.1581 167.161 13.5728 167.447 13.0588C167.732 12.5434 168.13 12.1436 168.642 11.8556V11.8553Z" fill="black"/>
<path d="M184.389 9.51646V20.1114H181.983V17.2967H179.758L177.893 20.1114H175.323L177.518 16.9176C176.805 16.6254 176.26 16.1836 175.879 15.5937C175.497 15.0028 175.307 14.2939 175.307 13.4668C175.307 12.6499 175.493 11.9463 175.864 11.3554C176.235 10.7655 176.761 10.3109 177.442 9.99352C178.124 9.67479 178.925 9.51611 179.848 9.51611H184.389V9.51646ZM178.299 14.8597C178.65 15.1925 179.166 15.3595 179.848 15.3595H181.984V11.5144H179.908C179.217 11.5144 178.688 11.6758 178.321 11.9987C177.956 12.3216 177.773 12.8017 177.773 13.4364C177.773 14.0525 177.949 14.5275 178.299 14.8597Z" fill="black"/>
<path d="M46.125 31.4124H47.4416V9.57666H46.125V31.4124Z" fill="black"/>
<path d="M32.4758 7.43931H38.9709V0.900879H32.4758V7.43931Z" fill="black"/>
<path d="M27.2479 9.73045C25.416 9.29927 23.6139 10.1402 22.7712 11.8225L17.3504 22.6466V13.6004C17.3504 11.7204 16.1195 10.1623 14.2876 9.73045C12.4556 9.29927 10.6531 10.1402 9.81084 11.8225L0 31.4123H4.91673L12.9546 15.3558V31.4123H12.9607H17.8771L25.9149 15.3558V31.4123H30.3111V13.6004C30.3111 11.7204 29.0802 10.1623 27.2483 9.73045H27.2479Z" fill="black"/>
<path d="M56.3943 26.9087C56.6709 26.9087 56.9166 26.9494 57.1311 27.0315C57.346 27.1136 57.5694 27.2491 57.8014 27.4378L58.1122 26.6776C57.9001 26.4741 57.6468 26.3199 57.3535 26.2157C57.0595 26.1112 56.7302 26.0591 56.3649 26.0591C55.8221 26.0591 55.3567 26.1695 54.9695 26.3906C54.5819 26.6117 54.2848 26.9235 54.0775 27.3261C53.8702 27.7283 53.7664 28.2053 53.7664 28.7569C53.7664 29.3081 53.8702 29.7866 54.0775 30.1915C54.2848 30.5965 54.5819 30.909 54.9695 31.1301C55.3567 31.3512 55.8221 31.4616 56.3649 31.4616C56.7302 31.4616 57.0595 31.4071 57.3535 31.2978C57.6468 31.1884 57.9001 31.0342 58.1122 30.8355L57.8014 30.0756C57.5694 30.2691 57.346 30.4071 57.1311 30.4889C56.9166 30.571 56.6709 30.612 56.3943 30.612C55.8663 30.612 55.4629 30.4506 55.184 30.1274C54.9051 29.8045 54.7659 29.3474 54.7659 28.7562C54.7659 28.165 54.9051 27.709 55.184 27.3888C55.4626 27.0684 55.8663 26.9083 56.3943 26.9083V26.9087Z" fill="black"/>
<path d="M61.0732 27.1621H61.103L62.0701 29.4201H60.1267L61.0736 27.1621H61.0732ZM60.6808 26.1338L58.3195 31.3876H59.2817L59.806 30.1731H62.3778L62.9017 31.3876H63.8719L61.4807 26.1338H60.6812H60.6808Z" fill="black"/>
<path d="M65.2264 27.7364C65.2264 28.2183 65.2004 28.6295 65.1486 28.9696C65.0969 29.3097 65.0188 29.5957 64.9153 29.8264C64.8118 30.0575 64.6809 30.25 64.5229 30.4042C64.3649 30.5581 64.1823 30.6922 63.975 30.8064L64.4414 31.5146C64.708 31.3852 64.9434 31.2224 65.1486 31.0261C65.3532 30.8299 65.5273 30.5888 65.6705 30.3031C65.8138 30.0179 65.9224 29.6836 65.9964 29.3011C66.0704 28.9185 66.1075 28.4763 66.1075 27.9744V26.9165H68.0693V31.3876H69.0168V26.1338H65.2264V27.7361V27.7364Z" fill="black"/>
<path d="M73.6138 30.1429C73.3523 30.4758 72.9799 30.642 72.496 30.642C71.9974 30.642 71.6225 30.4758 71.3706 30.1429C71.1188 29.81 70.993 29.3481 70.993 28.7569C70.993 28.1608 71.1188 27.6989 71.3706 27.3709C71.6225 27.0429 71.9974 26.879 72.496 26.879C72.9847 26.879 73.3585 27.0429 73.6176 27.3709C73.8766 27.6989 74.0062 28.1608 74.0062 28.7569C74.0062 29.3481 73.8756 29.81 73.6138 30.1429ZM73.8287 26.3906C73.4534 26.1698 73.0093 26.0591 72.496 26.0591C71.9779 26.0591 71.531 26.1695 71.1561 26.3906C70.7809 26.6117 70.4937 26.9235 70.2936 27.3261C70.0938 27.7283 69.9938 28.2053 69.9938 28.7569C69.9938 29.3033 70.0949 29.779 70.2974 30.1839C70.4999 30.5889 70.7871 30.9031 71.1599 31.1267C71.5324 31.3502 71.9779 31.462 72.496 31.462C73.0093 31.462 73.4534 31.3502 73.8287 31.1267C74.2039 30.9031 74.4935 30.5889 74.6984 30.1839C74.903 29.779 75.0058 29.3009 75.0058 28.7493C75.0058 28.2029 74.903 27.7286 74.6984 27.3261C74.4935 26.9235 74.2036 26.6117 73.8287 26.3906Z" fill="black"/>
<path d="M79.6176 28.3245H76.945V26.1338H75.99V31.3873H76.945V29.1217H79.6176V31.3873H80.5726V26.1338H79.6176V28.3245Z" fill="black"/>
<path d="M85.9249 27.1621H85.9547L86.9217 29.4201H84.9784L85.9252 27.1621H85.9249ZM85.5325 26.1338L83.1708 31.3876H84.133L84.657 30.1731H87.2291L87.753 31.3876H88.7232L86.332 26.1338H85.5325Z" fill="black"/>
<path d="M92.3137 30.4742C92.1359 30.5963 91.8867 30.6571 91.566 30.6571H90.2186V29.0844H91.566C91.8867 29.0844 92.1362 29.1455 92.3137 29.2673C92.4912 29.3887 92.58 29.5915 92.58 29.8744C92.58 30.1527 92.4912 30.3528 92.3137 30.4742ZM90.2186 26.8564H91.4252C91.7658 26.8564 92.0183 26.9199 92.1838 27.0465C92.3494 27.1731 92.4319 27.3608 92.4319 27.6091C92.4319 27.8578 92.3494 28.0451 92.1838 28.1721C92.0183 28.2983 91.7658 28.3621 91.4252 28.3621H90.2186V26.8564ZM92.5197 28.6767C92.7465 28.5936 92.9326 28.4694 93.0762 28.3021C93.264 28.0838 93.3575 27.8154 93.3575 27.4974C93.3575 27.0703 93.2043 26.7361 92.8987 26.4953C92.5923 26.2542 92.1557 26.1338 91.5883 26.1338H89.3009V31.3876H91.6774C92.2496 31.3876 92.6965 31.2597 93.0172 31.0041C93.338 30.7481 93.4987 30.387 93.4987 29.9196C93.4987 29.557 93.3938 29.2652 93.1841 29.0441C93.0172 28.8685 92.7945 28.7478 92.5203 28.6771L92.5197 28.6767Z" fill="black"/>
<path d="M93.8386 26.9234H95.5633V31.3873H96.5184V26.9234H98.2434V26.1338H93.8386V26.9234Z" fill="black"/>
<path d="M102.086 30.1429C101.824 30.4758 101.452 30.642 100.968 30.642C100.469 30.642 100.094 30.4758 99.8424 30.1429C99.5908 29.81 99.4647 29.3481 99.4647 28.7569C99.4647 28.1608 99.5908 27.6989 99.8424 27.3709C100.094 27.0429 100.469 26.879 100.968 26.879C101.456 26.879 101.83 27.0429 102.089 27.3709C102.348 27.6989 102.478 28.1608 102.478 28.7569C102.478 29.3481 102.347 29.81 102.086 30.1429ZM102.3 26.3906C101.925 26.1698 101.481 26.0591 100.968 26.0591C100.45 26.0591 100.003 26.1695 99.6278 26.3906C99.2526 26.6117 98.9654 26.9235 98.7657 27.3261C98.5655 27.7283 98.4658 28.2053 98.4658 28.7569C98.4658 29.3033 98.5669 29.779 98.7694 30.1839C98.972 30.5889 99.2591 30.9031 99.632 31.1267C100.004 31.3502 100.45 31.462 100.968 31.462C101.481 31.462 101.925 31.3502 102.301 31.1267C102.676 30.9031 102.966 30.5889 103.17 30.1839C103.375 29.779 103.478 29.3009 103.478 28.7493C103.478 28.2029 103.375 27.7286 103.17 27.3261C102.966 26.9235 102.676 26.6117 102.301 26.3906H102.3Z" fill="black"/>
<path d="M107.378 28.2987C107.22 28.4404 106.983 28.5111 106.668 28.5111H105.417V26.8865H106.668C106.983 26.8865 107.22 26.9572 107.378 27.0989C107.536 27.2407 107.616 27.4404 107.616 27.6988C107.616 27.9572 107.536 28.1576 107.378 28.2987ZM106.779 26.1338H104.462V31.3873H105.417V29.2711H106.779C107.351 29.2711 107.788 29.1293 108.089 28.8464C108.39 28.5632 108.54 28.1807 108.54 27.6985C108.54 27.2117 108.39 26.8289 108.089 26.5508C107.788 26.2728 107.351 26.1338 106.779 26.1338Z" fill="black"/>
<path d="M111.776 26.9087C112.052 26.9087 112.298 26.9494 112.512 27.0315C112.727 27.1136 112.95 27.2491 113.182 27.4378L113.493 26.6776C113.281 26.4741 113.028 26.3199 112.735 26.2157C112.44 26.1112 112.111 26.0591 111.746 26.0591C111.203 26.0591 110.738 26.1695 110.351 26.3906C109.963 26.6117 109.666 26.9235 109.459 27.3261C109.251 27.7283 109.148 28.2053 109.148 28.7569C109.148 29.3081 109.251 29.7866 109.459 30.1915C109.666 30.5965 109.963 30.909 110.351 31.1301C110.738 31.3512 111.203 31.4616 111.746 31.4616C112.111 31.4616 112.441 31.4071 112.735 31.2978C113.028 31.1884 113.281 31.0342 113.493 30.8355L113.182 30.0756C112.95 30.2691 112.727 30.4071 112.512 30.4889C112.298 30.571 112.052 30.612 111.776 30.612C111.248 30.612 110.844 30.4506 110.565 30.1274C110.287 29.8045 110.147 29.3474 110.147 28.7562C110.147 28.165 110.287 27.709 110.565 27.3888C110.844 27.0684 111.248 26.9083 111.776 26.9083V26.9087Z" fill="black"/>
<path d="M117.376 28.753C117.264 28.6619 117.136 28.5877 116.996 28.5301L118.616 26.1338H117.565L116.108 28.3694H115.329V26.1338H114.389V31.3876H115.329V29.1521H116.055C116.316 29.1521 116.532 29.2066 116.702 29.3159C116.873 29.4253 117.02 29.6115 117.143 29.8747L117.861 31.3876H118.89L117.965 29.5174C117.797 29.1893 117.6 28.9347 117.376 28.7533V28.753Z" fill="black"/>
<path d="M120.378 29.8647V26.1338H119.497V31.3873H120.2L123.05 27.6553V31.3873H123.939V26.1338H123.221L120.378 29.8647Z" fill="black"/>
<path d="M129.462 26.1338H128.336L126.992 28.0158L125.641 26.1338H124.524L126.444 28.7154L124.45 31.3873H125.567L126.989 29.4218L128.41 31.3873H129.535L127.534 28.7154L129.462 26.1338Z" fill="black"/>
<path d="M135.069 28.753C134.956 28.6619 134.83 28.5877 134.689 28.5301L136.309 26.1338H135.258L133.801 28.3694H133.022V26.1338H132.082V31.3876H133.022V29.1521H133.748C134.009 29.1521 134.225 29.2066 134.395 29.3159C134.566 29.4253 134.712 29.6115 134.836 29.8747L135.554 31.3876H136.583L135.658 29.5174C135.49 29.1893 135.293 28.9347 135.069 28.7533V28.753Z" fill="black"/>
<path d="M139.288 28.9382L137.53 26.1338H136.509L138.828 29.7864L137.989 31.387H138.982L141.735 26.1338H140.751L139.288 28.9382Z" fill="black"/>
<path d="M146.821 26.1338H145.695L144.351 28.0158L143 26.1338H141.883L143.803 28.7154L141.809 31.3873H142.926L144.348 29.4218L145.769 31.3873H146.894L144.893 28.7154L146.821 26.1338Z" fill="black"/>
<path d="M150.449 30.1429C150.187 30.4758 149.814 30.642 149.331 30.642C148.832 30.642 148.457 30.4758 148.206 30.1429C147.954 29.81 147.828 29.3481 147.828 28.7569C147.828 28.1608 147.954 27.6989 148.206 27.3709C148.457 27.0429 148.832 26.879 149.331 26.879C149.82 26.879 150.193 27.0429 150.452 27.3709C150.711 27.6989 150.841 28.1608 150.841 28.7569C150.841 29.3481 150.71 29.81 150.448 30.1429H150.449ZM150.663 26.3906C150.288 26.1698 149.844 26.0591 149.331 26.0591C148.812 26.0591 148.366 26.1695 147.991 26.3906C147.616 26.6117 147.328 26.9235 147.129 27.3261C146.928 27.7283 146.829 28.2053 146.829 28.7569C146.829 29.3033 146.93 29.779 147.132 30.1839C147.335 30.5889 147.622 30.9031 147.995 31.1267C148.367 31.3502 148.812 31.462 149.331 31.462C149.844 31.462 150.288 31.3502 150.663 31.1267C151.038 30.9031 151.328 30.5889 151.533 30.1839C151.738 29.779 151.84 29.3009 151.84 28.7493C151.84 28.2029 151.738 27.7286 151.533 27.3261C151.328 26.9235 151.038 26.6117 150.663 26.3906H150.663Z" fill="black"/>
<path d="M156.452 28.3245H153.78V26.1338H152.825V31.3873H153.78V29.1217H156.452V31.3873H157.407V26.1338H156.452V28.3245Z" fill="black"/>
<path d="M161.642 30.4522C161.479 30.5839 161.222 30.6495 160.872 30.6495H159.502V29.07H160.872C161.222 29.07 161.479 29.1345 161.642 29.2635C161.804 29.3928 161.886 29.5891 161.886 29.8523C161.886 30.1207 161.804 30.3207 161.642 30.4522ZM162.323 28.716C162.002 28.4601 161.555 28.3321 160.983 28.3321H159.503V26.1338H158.555V31.3876H160.983C161.556 31.3876 162.003 31.2559 162.323 30.9927C162.644 30.7291 162.805 30.349 162.805 29.8523C162.805 29.3504 162.644 28.9717 162.323 28.716H162.323Z" fill="black"/>
</g>
<defs>
<clipPath id="clip0_131_208">
<rect width="184.389" height="30.6129" fill="white" transform="translate(0 0.901367)"/>
</clipPath>
</defs>
</svg>
