<svg width="500" height="500" viewBox="0 0 500 500" fill="none" xmlns="http://www.w3.org/2000/svg">
<path fill-rule="evenodd" clip-rule="evenodd" d="M3.89897 240.548L240.548 3.89897C245.747 -1.29966 254.253 -1.29966 259.452 3.89897L496.101 240.548C501.3 245.747 501.3 254.253 496.101 259.452L259.452 496.101C254.253 501.3 245.747 501.3 240.548 496.101L3.89897 259.452C-1.29966 254.253 -1.29966 245.747 3.89897 240.548V240.548ZM14.5229 233.096L249.563 13.9172C254.498 9.31477 262.302 9.58731 266.905 14.5227L486.083 249.563C490.685 254.498 490.413 262.302 485.477 266.904L250.437 486.083C245.502 490.685 237.698 490.413 233.096 485.477L13.9174 250.437C9.31506 245.502 9.58746 237.698 14.5229 233.096V233.096Z" fill="#2B2A29"/>
<path d="M163.323 375.367V367.662H165.693C166.494 367.662 167.176 367.81 167.738 368.106C168.301 368.402 168.73 368.836 169.026 369.41C169.322 369.983 169.47 370.681 169.47 371.504C169.47 372.333 169.322 373.035 169.026 373.609C168.73 374.182 168.301 374.619 167.738 374.918C167.176 375.217 166.494 375.367 165.693 375.367H163.323ZM163.767 374.956H165.682C166.772 374.956 167.592 374.665 168.144 374.085C168.696 373.504 168.972 372.644 168.972 371.504C168.972 369.217 167.875 368.073 165.682 368.073H163.767V374.956Z" fill="#2B2A29"/>
<path d="M174.772 375.367V367.662H179.404V368.084H175.227V371.244H179.188V371.677H175.227V374.945H179.404V375.367H174.772Z" fill="#2B2A29"/>
<path d="M186.795 375.454C186.391 375.454 186.023 375.418 185.691 375.345C185.359 375.273 185.054 375.161 184.777 375.01C184.499 374.859 184.237 374.66 183.992 374.415L184.219 374.036C184.602 374.39 184.988 374.64 185.377 374.788C185.767 374.936 186.239 375.01 186.795 375.01C187.48 375.01 188.012 374.864 188.391 374.572C188.77 374.28 188.959 373.87 188.959 373.343C188.959 373.012 188.858 372.754 188.656 372.57C188.454 372.386 188.195 372.241 187.877 372.137C187.56 372.032 187.224 371.94 186.871 371.861C186.568 371.789 186.256 371.708 185.935 371.617C185.614 371.527 185.316 371.408 185.042 371.26C184.768 371.112 184.546 370.916 184.376 370.671C184.207 370.425 184.122 370.104 184.122 369.707C184.122 369.282 184.23 368.909 184.447 368.588C184.663 368.266 184.97 368.018 185.367 367.841C185.763 367.664 186.236 367.576 186.784 367.576C187.13 367.576 187.459 367.614 187.769 367.689C188.079 367.765 188.37 367.88 188.64 368.036C188.911 368.191 189.154 368.384 189.37 368.614L189.143 368.993C188.783 368.654 188.415 368.407 188.039 368.252C187.664 368.097 187.246 368.019 186.784 368.019C186.092 368.019 185.552 368.171 185.166 368.474C184.78 368.777 184.587 369.195 184.587 369.729C184.587 370.068 184.679 370.341 184.863 370.546C185.047 370.752 185.285 370.912 185.577 371.028C185.87 371.143 186.178 371.241 186.503 371.32C186.82 371.399 187.15 371.479 187.493 371.558C187.836 371.637 188.155 371.744 188.451 371.877C188.746 372.011 188.985 372.195 189.165 372.429C189.345 372.664 189.435 372.979 189.435 373.376C189.435 373.787 189.327 374.148 189.111 374.458C188.894 374.768 188.588 375.012 188.191 375.189C187.794 375.365 187.329 375.454 186.795 375.454Z" fill="#2B2A29"/>
<path d="M194.533 375.367V367.662H194.977V375.367H194.533Z" fill="#2B2A29"/>
<path d="M203.807 375.454C203.071 375.454 202.44 375.297 201.913 374.983C201.387 374.669 200.983 374.218 200.701 373.63C200.42 373.042 200.279 372.333 200.279 371.504C200.279 370.674 200.42 369.967 200.701 369.383C200.983 368.799 201.383 368.351 201.902 368.041C202.422 367.731 203.042 367.576 203.764 367.576C204.283 367.576 204.761 367.66 205.198 367.83C205.634 367.999 206.018 368.261 206.35 368.614L206.123 368.993C205.748 368.647 205.373 368.398 204.997 368.247C204.622 368.095 204.2 368.019 203.731 368.019C202.786 368.019 202.054 368.322 201.535 368.928C201.015 369.534 200.755 370.393 200.755 371.504C200.755 372.636 201.019 373.506 201.545 374.112C202.072 374.718 202.826 375.021 203.807 375.021C204.24 375.021 204.657 374.979 205.057 374.896C205.457 374.813 205.805 374.703 206.101 374.566L205.982 374.988V371.926H203.85V371.482H206.404V374.934C206.224 375.035 205.995 375.125 205.717 375.205C205.439 375.284 205.135 375.346 204.803 375.389C204.471 375.432 204.139 375.454 203.807 375.454V375.454Z" fill="#2B2A29"/>
<path d="M211.934 375.367V367.662H212.312L217.647 374.902L217.409 374.88V367.662H217.831V375.367H217.463L212.128 368.127L212.356 368.149V375.367H211.934Z" fill="#2B2A29"/>
<path d="M223.448 375.367V367.662H228.08V368.084H223.903V371.244H227.863V371.677H223.903V374.945H228.08V375.367H223.448Z" fill="#2B2A29"/>
<path d="M233.263 375.367V367.662H236.13C236.917 367.662 237.528 367.839 237.965 368.192C238.401 368.546 238.619 369.062 238.619 369.74C238.619 370.389 238.399 370.894 237.959 371.255C237.519 371.616 236.906 371.796 236.12 371.796L236.855 371.655C237.144 371.655 237.388 371.731 237.586 371.883C237.784 372.034 237.945 372.287 238.067 372.64L239.063 375.367H238.598L237.656 372.802C237.512 372.405 237.321 372.149 237.083 372.034C236.845 371.919 236.516 371.861 236.098 371.861H233.706V375.367H233.263V375.367ZM233.717 371.428H236.141C236.805 371.428 237.303 371.284 237.635 370.995C237.966 370.707 238.132 370.284 238.132 369.729C238.132 369.188 237.968 368.779 237.64 368.501C237.312 368.223 236.812 368.084 236.141 368.084H233.717V371.428V371.428Z" fill="#2B2A29"/>
<path d="M250.56 375.367V367.662H255.083V368.084H251.003V371.244H254.866V371.666H251.003V375.367H250.56Z" fill="#2B2A29"/>
<path d="M262.939 375.453C261.98 375.453 261.253 375.199 260.759 374.691C260.265 374.182 260.018 373.434 260.018 372.445V367.662H260.461V372.521C260.461 373.351 260.669 373.973 261.084 374.388C261.498 374.802 262.121 375.01 262.95 375.01C263.751 375.01 264.359 374.802 264.774 374.388C265.188 373.973 265.396 373.351 265.396 372.521V367.662H265.85V372.445C265.85 373.426 265.603 374.173 265.109 374.685C264.615 375.198 263.892 375.453 262.939 375.453V375.453Z" fill="#2B2A29"/>
<path d="M271.401 375.367V367.662H274.269C275.055 367.662 275.667 367.839 276.103 368.192C276.54 368.546 276.758 369.062 276.758 369.74C276.758 370.389 276.538 370.894 276.098 371.255C275.658 371.616 275.045 371.796 274.258 371.796L274.994 371.655C275.283 371.655 275.526 371.731 275.725 371.883C275.923 372.034 276.083 372.287 276.206 372.64L277.202 375.367H276.736L275.795 372.802C275.651 372.405 275.459 372.149 275.221 372.034C274.983 371.919 274.655 371.861 274.237 371.861H271.845V375.367H271.401V375.367ZM271.856 371.428H274.28C274.944 371.428 275.441 371.284 275.773 370.995C276.105 370.707 276.271 370.284 276.271 369.729C276.271 369.188 276.107 368.779 275.779 368.501C275.45 368.223 274.951 368.084 274.28 368.084H271.856V371.428V371.428Z" fill="#2B2A29"/>
<path d="M282.32 375.367V367.662H282.699L288.034 374.902L287.796 374.88V367.662H288.218V375.367H287.85L282.515 368.127L282.742 368.149V375.367H282.32Z" fill="#2B2A29"/>
<path d="M293.835 375.367V367.662H294.279V375.367H293.835Z" fill="#2B2A29"/>
<path d="M301.81 375.367V368.073H298.975V367.662H305.099V368.073H302.253V375.367H301.81Z" fill="#2B2A29"/>
<path d="M312.664 375.453C311.704 375.453 310.978 375.199 310.483 374.691C309.989 374.182 309.742 373.434 309.742 372.445V367.662H310.186V372.521C310.186 373.351 310.393 373.973 310.808 374.388C311.223 374.802 311.845 375.01 312.675 375.01C313.476 375.01 314.083 374.802 314.498 374.388C314.913 373.973 315.12 373.351 315.12 372.521V367.662H315.575V372.445C315.575 373.426 315.328 374.173 314.834 374.685C314.34 375.198 313.616 375.453 312.664 375.453V375.453Z" fill="#2B2A29"/>
<path d="M321.126 375.367V367.662H323.994C324.78 367.662 325.391 367.839 325.828 368.192C326.264 368.546 326.483 369.062 326.483 369.74C326.483 370.389 326.263 370.894 325.822 371.255C325.382 371.616 324.769 371.796 323.983 371.796L324.719 371.655C325.007 371.655 325.251 371.731 325.449 371.883C325.648 372.034 325.808 372.287 325.931 372.64L326.926 375.367H326.461L325.52 372.802C325.375 372.405 325.184 372.149 324.946 372.034C324.708 371.919 324.38 371.861 323.961 371.861H321.57V375.367H321.126V375.367ZM321.58 371.428H324.005C324.668 371.428 325.166 371.284 325.498 370.995C325.83 370.707 325.996 370.284 325.996 369.729C325.996 369.188 325.832 368.779 325.503 368.501C325.175 368.223 324.675 368.084 324.005 368.084H321.58V371.428V371.428Z" fill="#2B2A29"/>
<path d="M332.045 375.367V367.662H336.677V368.084H332.499V371.244H336.46V371.677H332.499V374.945H336.677V375.367H332.045Z" fill="#2B2A29"/>
<path d="M169.785 240.68C170.012 240.68 170.126 240.907 170.126 241.362C170.126 241.816 170.012 242.043 169.785 242.043C167.437 242.043 165.581 242.006 164.217 241.93L156.605 241.816L149.56 241.93C148.424 242.006 146.833 242.043 144.788 242.043C144.636 242.043 144.56 241.816 144.56 241.362C144.56 240.907 144.636 240.68 144.788 240.68C147.439 240.68 149.37 240.491 150.582 240.112C151.87 239.657 152.703 238.9 153.082 237.839C153.537 236.779 153.688 235.112 153.537 232.84L151.605 180.004L125.017 241.248C124.865 241.551 124.562 241.703 124.108 241.703C123.729 241.703 123.388 241.551 123.085 241.248L95.3608 180.459L95.2472 180.232L94.3382 230.226C94.2624 234.165 94.9063 236.892 96.2698 238.407C97.6333 239.922 100.171 240.68 103.883 240.68C104.034 240.68 104.11 240.907 104.11 241.362C104.11 241.816 104.034 242.043 103.883 242.043C101.762 242.043 100.133 242.006 98.9968 241.93L92.8611 241.816L87.2935 241.93C86.3087 242.006 84.8316 242.043 82.8621 242.043C82.7106 242.043 82.6348 241.816 82.6348 241.362C82.6348 240.907 82.7106 240.68 82.8621 240.68C86.0436 240.68 88.2782 239.922 89.5659 238.407C90.9294 236.817 91.6491 234.09 91.7248 230.226L92.8611 176.368C90.5128 173.717 87.445 172.391 83.6575 172.391C83.506 172.391 83.4302 172.164 83.4302 171.71C83.4302 171.255 83.506 171.028 83.6575 171.028L87.5207 171.142C88.2782 171.217 89.2629 171.255 90.4749 171.255C91.6869 171.255 92.7096 171.217 93.5428 171.142C94.3761 171.066 95.0199 171.028 95.4744 171.028C96.5349 171.028 97.3682 171.407 97.9742 172.164C98.5802 172.846 99.4892 174.437 100.701 176.936L126.267 232.158L151.719 173.869C152.097 173.035 152.59 172.354 153.196 171.823C153.878 171.293 154.521 171.028 155.127 171.028C155.43 171.028 155.923 171.066 156.605 171.142C157.286 171.217 158.233 171.255 159.445 171.255L164.558 171.142C165.316 171.066 166.49 171.028 168.081 171.028C168.232 171.028 168.308 171.255 168.308 171.71C168.308 172.164 168.232 172.391 168.081 172.391C164.142 172.391 161.339 172.922 159.672 173.982C158.082 174.967 157.324 176.974 157.4 180.004L159.559 232.84C159.635 235.188 159.9 236.892 160.354 237.953C160.884 239.013 161.831 239.733 163.195 240.112C164.634 240.491 166.831 240.68 169.785 240.68ZM244.445 240.68C244.748 240.68 244.9 240.907 244.9 241.362C244.9 241.816 244.748 242.043 244.445 242.043C243.082 242.043 240.885 241.968 237.855 241.816C234.977 241.665 232.856 241.589 231.492 241.589C229.901 241.589 227.818 241.665 225.243 241.816C222.819 241.968 221.001 242.043 219.789 242.043C219.486 242.043 219.334 241.816 219.334 241.362C219.334 240.907 219.486 240.68 219.789 240.68C222.895 240.68 225.129 240.415 226.493 239.885C227.856 239.279 228.538 238.294 228.538 236.93C228.538 235.87 228.121 234.393 227.288 232.499L216.607 209.433H189.565L181.838 228.068C180.778 230.643 180.247 232.764 180.247 234.431C180.247 236.627 181.156 238.218 182.974 239.203C184.792 240.188 187.633 240.68 191.496 240.68C191.875 240.68 192.064 240.907 192.064 241.362C192.064 241.816 191.875 242.043 191.496 242.043C190.133 242.043 188.163 241.968 185.588 241.816C182.709 241.665 180.21 241.589 178.089 241.589C176.195 241.589 173.96 241.665 171.385 241.816C169.112 241.968 167.256 242.043 165.817 242.043C165.438 242.043 165.249 241.816 165.249 241.362C165.249 240.907 165.438 240.68 165.817 240.68C167.938 240.68 169.718 240.301 171.157 239.544C172.672 238.786 174.074 237.423 175.362 235.453C176.725 233.484 178.164 230.681 179.679 227.045L203.427 169.892C203.578 169.664 203.806 169.551 204.109 169.551C204.487 169.551 204.715 169.664 204.79 169.892L231.151 226.477C232.894 230.34 234.446 233.294 235.81 235.34C237.173 237.309 238.499 238.71 239.787 239.544C241.15 240.301 242.703 240.68 244.445 240.68ZM190.474 207.388H215.585L202.291 178.868L190.474 207.388ZM291.514 225.454C291.514 225.227 291.741 225.151 292.195 225.227C292.65 225.227 292.877 225.341 292.877 225.568C292.195 230.34 291.854 235.264 291.854 240.339C291.854 240.945 291.703 241.4 291.4 241.703C291.173 241.93 290.718 242.043 290.036 242.043H243.109C242.958 242.043 242.882 241.816 242.882 241.362C242.882 240.907 242.958 240.68 243.109 240.68C246.064 240.68 248.223 240.491 249.586 240.112C251.025 239.733 251.972 239.013 252.427 237.953C252.957 236.817 253.222 235.112 253.222 232.84V180.232C253.222 177.959 252.957 176.293 252.427 175.232C251.972 174.172 251.025 173.452 249.586 173.073C248.223 172.619 246.064 172.391 243.109 172.391C242.958 172.391 242.882 172.164 242.882 171.71C242.882 171.255 242.958 171.028 243.109 171.028H288.105C288.787 171.028 289.127 171.369 289.127 172.051L289.355 185.799C289.355 186.026 289.127 186.14 288.673 186.14C288.294 186.14 288.105 186.026 288.105 185.799C288.105 181.936 287.082 178.868 285.037 176.596C282.992 174.323 280.303 173.187 276.97 173.187H269.13C266.251 173.187 264.13 173.376 262.767 173.755C261.403 174.134 260.456 174.853 259.926 175.914C259.471 176.974 259.244 178.641 259.244 180.913V203.979H274.243C277.727 203.979 280.151 203.411 281.515 202.275C282.878 201.063 283.56 199.018 283.56 196.139C283.56 195.988 283.787 195.912 284.242 195.912C284.696 195.912 284.923 195.988 284.923 196.139L284.81 205.115C284.81 207.312 284.848 208.941 284.923 210.001L285.037 215.342C285.037 215.493 284.81 215.569 284.355 215.569C283.901 215.569 283.673 215.493 283.673 215.342C283.673 211.933 282.954 209.547 281.515 208.183C280.075 206.82 277.538 206.138 273.902 206.138H259.244V232.385C259.244 234.582 259.471 236.211 259.926 237.271C260.456 238.256 261.365 238.938 262.653 239.316C264.016 239.695 266.175 239.885 269.13 239.885H279.583C282.613 239.885 285.188 238.559 287.309 235.908C289.506 233.256 290.908 229.772 291.514 225.454ZM307.558 184.777C307.558 187.807 308.277 190.42 309.717 192.617C311.156 194.813 312.898 196.669 314.943 198.184C317.064 199.624 319.981 201.442 323.693 203.638C327.632 205.987 330.661 207.956 332.782 209.547C334.979 211.062 336.835 213.031 338.35 215.455C339.941 217.879 340.736 220.796 340.736 224.204C340.736 227.765 339.865 231.022 338.123 233.976C336.381 236.855 333.767 239.165 330.283 240.907C326.874 242.574 322.67 243.407 317.67 243.407C315.019 243.407 312.482 243.104 310.058 242.498C307.709 241.968 305.096 240.983 302.217 239.544C301.839 239.316 301.574 239.051 301.422 238.748C301.346 238.445 301.271 237.991 301.195 237.385L299.49 222.614V222.5C299.49 222.197 299.68 222.045 300.059 222.045C300.437 221.97 300.665 222.083 300.74 222.386C301.498 227.613 303.505 232.158 306.762 236.021C310.02 239.885 314.489 241.816 320.17 241.816C324.185 241.816 327.556 240.718 330.283 238.521C333.085 236.324 334.487 232.878 334.487 228.181C334.487 224.772 333.729 221.856 332.214 219.432C330.699 216.932 328.843 214.887 326.647 213.296C324.526 211.63 321.609 209.698 317.898 207.502C314.262 205.381 311.383 203.525 309.262 201.934C307.217 200.343 305.437 198.374 303.922 196.025C302.483 193.601 301.763 190.723 301.763 187.39C301.763 183.602 302.71 180.383 304.604 177.732C306.573 175.081 309.111 173.111 312.216 171.823C315.322 170.46 318.655 169.778 322.215 169.778C326.382 169.778 330.699 170.687 335.169 172.505C336.305 172.96 336.873 173.603 336.873 174.437L337.896 186.481C337.896 186.784 337.668 186.935 337.214 186.935C336.835 186.935 336.608 186.784 336.532 186.481C336.229 182.542 334.752 179.02 332.101 175.914C329.449 172.808 325.662 171.255 320.738 171.255C316.193 171.255 312.86 172.581 310.739 175.232C308.618 177.883 307.558 181.065 307.558 184.777ZM360.661 172.96C355.888 172.96 352.404 174.096 350.207 176.368C348.01 178.641 346.533 182.693 345.776 188.526C345.776 188.678 345.548 188.753 345.094 188.753C344.639 188.753 344.412 188.678 344.412 188.526C344.715 186.481 345.056 183.224 345.435 178.754C345.814 174.209 346.003 170.801 346.003 168.528C346.003 168.149 346.23 167.96 346.685 167.96C347.139 167.96 347.366 168.149 347.366 168.528C347.366 170.195 349.374 171.028 353.389 171.028C359.903 171.255 367.516 171.369 376.227 171.369C380.696 171.369 385.431 171.293 390.43 171.142L398.157 171.028C400.884 171.028 402.891 170.839 404.179 170.46C405.467 170.081 406.3 169.324 406.679 168.187C406.754 167.884 406.982 167.733 407.36 167.733C407.739 167.733 407.928 167.884 407.928 168.187C407.701 170.308 407.474 173.566 407.247 177.959C407.019 182.277 406.906 185.799 406.906 188.526C406.906 188.678 406.679 188.753 406.224 188.753C405.77 188.753 405.542 188.678 405.542 188.526C405.542 184.511 405.126 181.406 404.292 179.209C403.459 177.012 402.058 175.421 400.088 174.437C398.119 173.452 395.354 172.96 391.794 172.96C387.855 172.96 385.09 173.111 383.499 173.414C381.908 173.641 380.81 174.247 380.204 175.232C379.674 176.217 379.409 177.959 379.409 180.459V232.84C379.409 235.188 379.674 236.892 380.204 237.953C380.734 239.013 381.795 239.733 383.385 240.112C384.976 240.491 387.476 240.68 390.885 240.68C391.036 240.68 391.112 240.907 391.112 241.362C391.112 241.816 391.036 242.043 390.885 242.043C388.385 242.043 386.415 242.006 384.976 241.93L376.227 241.816L367.932 241.93C366.417 242.006 364.334 242.043 361.683 242.043C361.532 242.043 361.456 241.816 361.456 241.362C361.456 240.907 361.532 240.68 361.683 240.68C365.092 240.68 367.592 240.491 369.182 240.112C370.773 239.733 371.834 239.013 372.364 237.953C372.97 236.817 373.273 235.112 373.273 232.84V180.232C373.273 177.732 372.97 176.027 372.364 175.118C371.758 174.134 370.659 173.528 369.069 173.3C367.554 173.073 364.751 172.96 360.661 172.96Z" fill="#2B2A29"/>
<path d="M170.425 329.591C170.652 329.591 170.765 329.818 170.765 330.273C170.765 330.727 170.652 330.955 170.425 330.955H157.244C155.35 330.955 151.677 327.811 146.223 321.524C140.844 315.161 134.406 306.45 126.906 295.39C124.255 295.92 121.869 296.185 119.748 296.185C119.445 296.185 117.816 296.072 114.862 295.845V321.751C114.862 324.099 115.089 325.804 115.544 326.864C116.074 327.925 117.021 328.644 118.384 329.023C119.748 329.402 121.945 329.591 124.975 329.591C125.202 329.591 125.316 329.818 125.316 330.273C125.316 330.727 125.202 330.955 124.975 330.955C122.702 330.955 120.884 330.917 119.521 330.841L111.794 330.727L104.295 330.841C102.931 330.917 101.038 330.955 98.6137 330.955C98.4622 330.955 98.3865 330.727 98.3865 330.273C98.3865 329.818 98.4622 329.591 98.6137 329.591C101.644 329.591 103.84 329.402 105.204 329.023C106.643 328.644 107.628 327.925 108.158 326.864C108.688 325.728 108.954 324.023 108.954 321.751V269.143C108.954 266.87 108.688 265.204 108.158 264.143C107.704 263.083 106.757 262.363 105.318 261.984C103.954 261.53 101.795 261.303 98.841 261.303C98.6137 261.303 98.5001 261.075 98.5001 260.621C98.5001 260.166 98.6137 259.939 98.841 259.939L104.295 260.053C107.325 260.204 109.825 260.28 111.794 260.28C113.461 260.28 115.014 260.242 116.453 260.166C117.968 260.091 119.256 260.015 120.316 259.939C123.043 259.712 125.467 259.598 127.588 259.598C133.269 259.598 137.663 261 140.769 263.802C143.95 266.529 145.541 270.165 145.541 274.71C145.541 278.725 144.329 282.399 141.905 285.732C139.481 288.989 136.261 291.565 132.247 293.458C138.761 302.7 144.215 309.896 148.609 315.047C153.002 320.198 156.903 323.91 160.312 326.182C163.721 328.455 167.092 329.591 170.425 329.591ZM114.862 293.231C116.983 293.458 119.256 293.572 121.68 293.572C127.967 293.572 132.436 292.284 135.087 289.709C137.814 287.058 139.178 283.081 139.178 277.778C139.178 271.945 137.739 267.703 134.86 265.052C132.057 262.401 127.967 261.075 122.589 261.075C119.71 261.075 117.703 261.606 116.566 262.666C115.43 263.727 114.862 265.961 114.862 269.37V293.231ZM198.844 332.318C191.799 332.318 185.512 330.689 179.982 327.432C174.528 324.099 170.286 319.63 167.256 314.024C164.302 308.343 162.825 302.17 162.825 295.504C162.825 287.701 164.795 281.035 168.734 275.506C172.673 269.9 177.71 265.696 183.846 262.893C190.057 260.091 196.382 258.689 202.821 258.689C210.017 258.689 216.342 260.394 221.796 263.802C227.25 267.135 231.417 271.567 234.295 277.096C237.249 282.626 238.726 288.497 238.726 294.708C238.726 301.602 236.908 307.927 233.272 313.684C229.636 319.441 224.751 323.986 218.615 327.319C212.555 330.652 205.965 332.318 198.844 332.318ZM202.935 330.046C208.313 330.046 213.161 328.796 217.479 326.296C221.796 323.796 225.205 320.122 227.705 315.274C230.205 310.426 231.454 304.632 231.454 297.89C231.454 290.769 230.053 284.444 227.25 278.914C224.523 273.309 220.622 268.953 215.547 265.848C210.547 262.742 204.715 261.189 198.049 261.189C189.262 261.189 182.406 263.916 177.483 269.37C172.559 274.824 170.097 282.247 170.097 291.64C170.097 298.685 171.461 305.162 174.188 311.07C176.99 316.903 180.891 321.524 185.891 324.932C190.89 328.341 196.572 330.046 202.935 330.046ZM279.021 332.318C271.976 332.318 265.689 330.689 260.159 327.432C254.705 324.099 250.463 319.63 247.433 314.024C244.479 308.343 243.002 302.17 243.002 295.504C243.002 287.701 244.971 281.035 248.91 275.506C252.849 269.9 257.886 265.696 264.022 262.893C270.234 260.091 276.559 258.689 282.997 258.689C290.194 258.689 296.519 260.394 301.973 263.802C307.427 267.135 311.593 271.567 314.472 277.096C317.426 282.626 318.903 288.497 318.903 294.708C318.903 301.602 317.085 307.927 313.449 313.684C309.813 319.441 304.927 323.986 298.791 327.319C292.731 330.652 286.141 332.318 279.021 332.318ZM283.111 330.046C288.489 330.046 293.337 328.796 297.655 326.296C301.973 323.796 305.382 320.122 307.881 315.274C310.381 310.426 311.631 304.632 311.631 297.89C311.631 290.769 310.23 284.444 307.427 278.914C304.7 273.309 300.799 268.953 295.723 265.848C290.724 262.742 284.891 261.189 278.225 261.189C269.438 261.189 262.583 263.916 257.659 269.37C252.735 274.824 250.274 282.247 250.274 291.64C250.274 298.685 251.637 305.162 254.364 311.07C257.167 316.903 261.068 321.524 266.067 324.932C271.067 328.341 276.748 330.046 283.111 330.046ZM409.306 329.591C409.533 329.591 409.647 329.818 409.647 330.273C409.647 330.727 409.533 330.955 409.306 330.955C406.957 330.955 405.102 330.917 403.738 330.841L396.125 330.727L389.08 330.841C387.944 330.917 386.353 330.955 384.308 330.955C384.157 330.955 384.081 330.727 384.081 330.273C384.081 329.818 384.157 329.591 384.308 329.591C386.959 329.591 388.891 329.402 390.103 329.023C391.391 328.568 392.224 327.811 392.603 326.75C393.057 325.69 393.209 324.023 393.057 321.751L391.126 268.915L364.537 330.159C364.386 330.462 364.083 330.614 363.628 330.614C363.25 330.614 362.909 330.462 362.606 330.159L334.881 269.37L334.768 269.143L333.859 319.138C333.783 323.077 334.427 325.804 335.79 327.319C337.154 328.834 339.692 329.591 343.403 329.591C343.555 329.591 343.631 329.818 343.631 330.273C343.631 330.727 343.555 330.955 343.403 330.955C341.282 330.955 339.654 330.917 338.517 330.841L332.382 330.727L326.814 330.841C325.829 330.917 324.352 330.955 322.383 330.955C322.231 330.955 322.155 330.727 322.155 330.273C322.155 329.818 322.231 329.591 322.383 329.591C325.564 329.591 327.799 328.834 329.087 327.319C330.45 325.728 331.17 323.001 331.245 319.138L332.382 265.279C330.033 262.628 326.966 261.303 323.178 261.303C323.027 261.303 322.951 261.075 322.951 260.621C322.951 260.166 323.027 259.939 323.178 259.939L327.041 260.053C327.799 260.128 328.784 260.166 329.996 260.166C331.208 260.166 332.23 260.128 333.063 260.053C333.897 259.977 334.541 259.939 334.995 259.939C336.056 259.939 336.889 260.318 337.495 261.075C338.101 261.757 339.01 263.348 340.222 265.848L365.787 321.069L391.239 262.78C391.618 261.946 392.11 261.265 392.716 260.734C393.398 260.204 394.042 259.939 394.648 259.939C394.951 259.939 395.443 259.977 396.125 260.053C396.807 260.128 397.754 260.166 398.966 260.166L404.079 260.053C404.836 259.977 406.011 259.939 407.601 259.939C407.753 259.939 407.829 260.166 407.829 260.621C407.829 261.075 407.753 261.303 407.601 261.303C403.662 261.303 400.86 261.833 399.193 262.893C397.602 263.878 396.845 265.885 396.921 268.915L399.079 321.751C399.155 324.099 399.42 325.804 399.875 326.864C400.405 327.925 401.352 328.644 402.715 329.023C404.155 329.402 406.351 329.591 409.306 329.591Z" fill="#2B2A29"/>
</svg>
